%TF.GenerationSoftware,KiCad,Pcbnew,8.0.2*%
%TF.CreationDate,2024-11-23T19:12:39+01:00*%
%TF.ProjectId,NTR-Subcard,4e54522d-5375-4626-9361-72642e6b6963,rev?*%
%TF.SameCoordinates,Original*%
%TF.FileFunction,Legend,Top*%
%TF.FilePolarity,Positive*%
%FSLAX46Y46*%
G04 Gerber Fmt 4.6, Leading zero omitted, Abs format (unit mm)*
G04 Created by KiCad (PCBNEW 8.0.2) date 2024-11-23 19:12:39*
%MOMM*%
%LPD*%
G01*
G04 APERTURE LIST*
%ADD10C,0.100000*%
%ADD11C,0.150000*%
%ADD12C,0.120000*%
G04 APERTURE END LIST*
D10*
X105850000Y-74750000D02*
X105850000Y-79250000D01*
X117732455Y-67205752D02*
X117732455Y-67872419D01*
X117494360Y-66824800D02*
X117256265Y-67539085D01*
X117256265Y-67539085D02*
X117875312Y-67539085D01*
X118446741Y-66872419D02*
X118541979Y-66872419D01*
X118541979Y-66872419D02*
X118637217Y-66920038D01*
X118637217Y-66920038D02*
X118684836Y-66967657D01*
X118684836Y-66967657D02*
X118732455Y-67062895D01*
X118732455Y-67062895D02*
X118780074Y-67253371D01*
X118780074Y-67253371D02*
X118780074Y-67491466D01*
X118780074Y-67491466D02*
X118732455Y-67681942D01*
X118732455Y-67681942D02*
X118684836Y-67777180D01*
X118684836Y-67777180D02*
X118637217Y-67824800D01*
X118637217Y-67824800D02*
X118541979Y-67872419D01*
X118541979Y-67872419D02*
X118446741Y-67872419D01*
X118446741Y-67872419D02*
X118351503Y-67824800D01*
X118351503Y-67824800D02*
X118303884Y-67777180D01*
X118303884Y-67777180D02*
X118256265Y-67681942D01*
X118256265Y-67681942D02*
X118208646Y-67491466D01*
X118208646Y-67491466D02*
X118208646Y-67253371D01*
X118208646Y-67253371D02*
X118256265Y-67062895D01*
X118256265Y-67062895D02*
X118303884Y-66967657D01*
X118303884Y-66967657D02*
X118351503Y-66920038D01*
X118351503Y-66920038D02*
X118446741Y-66872419D01*
X117827693Y-70872419D02*
X117256265Y-70872419D01*
X117541979Y-70872419D02*
X117541979Y-69872419D01*
X117541979Y-69872419D02*
X117446741Y-70015276D01*
X117446741Y-70015276D02*
X117351503Y-70110514D01*
X117351503Y-70110514D02*
X117256265Y-70158133D01*
X100256265Y-70467657D02*
X100303884Y-70420038D01*
X100303884Y-70420038D02*
X100399122Y-70372419D01*
X100399122Y-70372419D02*
X100637217Y-70372419D01*
X100637217Y-70372419D02*
X100732455Y-70420038D01*
X100732455Y-70420038D02*
X100780074Y-70467657D01*
X100780074Y-70467657D02*
X100827693Y-70562895D01*
X100827693Y-70562895D02*
X100827693Y-70658133D01*
X100827693Y-70658133D02*
X100780074Y-70800990D01*
X100780074Y-70800990D02*
X100208646Y-71372419D01*
X100208646Y-71372419D02*
X100827693Y-71372419D01*
X101446741Y-70372419D02*
X101541979Y-70372419D01*
X101541979Y-70372419D02*
X101637217Y-70420038D01*
X101637217Y-70420038D02*
X101684836Y-70467657D01*
X101684836Y-70467657D02*
X101732455Y-70562895D01*
X101732455Y-70562895D02*
X101780074Y-70753371D01*
X101780074Y-70753371D02*
X101780074Y-70991466D01*
X101780074Y-70991466D02*
X101732455Y-71181942D01*
X101732455Y-71181942D02*
X101684836Y-71277180D01*
X101684836Y-71277180D02*
X101637217Y-71324800D01*
X101637217Y-71324800D02*
X101541979Y-71372419D01*
X101541979Y-71372419D02*
X101446741Y-71372419D01*
X101446741Y-71372419D02*
X101351503Y-71324800D01*
X101351503Y-71324800D02*
X101303884Y-71277180D01*
X101303884Y-71277180D02*
X101256265Y-71181942D01*
X101256265Y-71181942D02*
X101208646Y-70991466D01*
X101208646Y-70991466D02*
X101208646Y-70753371D01*
X101208646Y-70753371D02*
X101256265Y-70562895D01*
X101256265Y-70562895D02*
X101303884Y-70467657D01*
X101303884Y-70467657D02*
X101351503Y-70420038D01*
X101351503Y-70420038D02*
X101446741Y-70372419D01*
X100256265Y-66467657D02*
X100303884Y-66420038D01*
X100303884Y-66420038D02*
X100399122Y-66372419D01*
X100399122Y-66372419D02*
X100637217Y-66372419D01*
X100637217Y-66372419D02*
X100732455Y-66420038D01*
X100732455Y-66420038D02*
X100780074Y-66467657D01*
X100780074Y-66467657D02*
X100827693Y-66562895D01*
X100827693Y-66562895D02*
X100827693Y-66658133D01*
X100827693Y-66658133D02*
X100780074Y-66800990D01*
X100780074Y-66800990D02*
X100208646Y-67372419D01*
X100208646Y-67372419D02*
X100827693Y-67372419D01*
X101780074Y-67372419D02*
X101208646Y-67372419D01*
X101494360Y-67372419D02*
X101494360Y-66372419D01*
X101494360Y-66372419D02*
X101399122Y-66515276D01*
X101399122Y-66515276D02*
X101303884Y-66610514D01*
X101303884Y-66610514D02*
X101208646Y-66658133D01*
X104839598Y-68622419D02*
X104839598Y-69336704D01*
X104839598Y-69336704D02*
X104791979Y-69479561D01*
X104791979Y-69479561D02*
X104696741Y-69574800D01*
X104696741Y-69574800D02*
X104553884Y-69622419D01*
X104553884Y-69622419D02*
X104458646Y-69622419D01*
X105791979Y-69622419D02*
X105315789Y-69622419D01*
X105315789Y-69622419D02*
X105315789Y-68622419D01*
X106696741Y-69527180D02*
X106649122Y-69574800D01*
X106649122Y-69574800D02*
X106506265Y-69622419D01*
X106506265Y-69622419D02*
X106411027Y-69622419D01*
X106411027Y-69622419D02*
X106268170Y-69574800D01*
X106268170Y-69574800D02*
X106172932Y-69479561D01*
X106172932Y-69479561D02*
X106125313Y-69384323D01*
X106125313Y-69384323D02*
X106077694Y-69193847D01*
X106077694Y-69193847D02*
X106077694Y-69050990D01*
X106077694Y-69050990D02*
X106125313Y-68860514D01*
X106125313Y-68860514D02*
X106172932Y-68765276D01*
X106172932Y-68765276D02*
X106268170Y-68670038D01*
X106268170Y-68670038D02*
X106411027Y-68622419D01*
X106411027Y-68622419D02*
X106506265Y-68622419D01*
X106506265Y-68622419D02*
X106649122Y-68670038D01*
X106649122Y-68670038D02*
X106696741Y-68717657D01*
X107411027Y-68622419D02*
X107411027Y-69336704D01*
X107411027Y-69336704D02*
X107363408Y-69479561D01*
X107363408Y-69479561D02*
X107268170Y-69574800D01*
X107268170Y-69574800D02*
X107125313Y-69622419D01*
X107125313Y-69622419D02*
X107030075Y-69622419D01*
X108363408Y-69622419D02*
X107887218Y-69622419D01*
X107887218Y-69622419D02*
X107887218Y-68622419D01*
X109268170Y-69527180D02*
X109220551Y-69574800D01*
X109220551Y-69574800D02*
X109077694Y-69622419D01*
X109077694Y-69622419D02*
X108982456Y-69622419D01*
X108982456Y-69622419D02*
X108839599Y-69574800D01*
X108839599Y-69574800D02*
X108744361Y-69479561D01*
X108744361Y-69479561D02*
X108696742Y-69384323D01*
X108696742Y-69384323D02*
X108649123Y-69193847D01*
X108649123Y-69193847D02*
X108649123Y-69050990D01*
X108649123Y-69050990D02*
X108696742Y-68860514D01*
X108696742Y-68860514D02*
X108744361Y-68765276D01*
X108744361Y-68765276D02*
X108839599Y-68670038D01*
X108839599Y-68670038D02*
X108982456Y-68622419D01*
X108982456Y-68622419D02*
X109077694Y-68622419D01*
X109077694Y-68622419D02*
X109220551Y-68670038D01*
X109220551Y-68670038D02*
X109268170Y-68717657D01*
X109982456Y-68622419D02*
X109982456Y-69336704D01*
X109982456Y-69336704D02*
X109934837Y-69479561D01*
X109934837Y-69479561D02*
X109839599Y-69574800D01*
X109839599Y-69574800D02*
X109696742Y-69622419D01*
X109696742Y-69622419D02*
X109601504Y-69622419D01*
X110934837Y-69622419D02*
X110458647Y-69622419D01*
X110458647Y-69622419D02*
X110458647Y-68622419D01*
X111839599Y-69527180D02*
X111791980Y-69574800D01*
X111791980Y-69574800D02*
X111649123Y-69622419D01*
X111649123Y-69622419D02*
X111553885Y-69622419D01*
X111553885Y-69622419D02*
X111411028Y-69574800D01*
X111411028Y-69574800D02*
X111315790Y-69479561D01*
X111315790Y-69479561D02*
X111268171Y-69384323D01*
X111268171Y-69384323D02*
X111220552Y-69193847D01*
X111220552Y-69193847D02*
X111220552Y-69050990D01*
X111220552Y-69050990D02*
X111268171Y-68860514D01*
X111268171Y-68860514D02*
X111315790Y-68765276D01*
X111315790Y-68765276D02*
X111411028Y-68670038D01*
X111411028Y-68670038D02*
X111553885Y-68622419D01*
X111553885Y-68622419D02*
X111649123Y-68622419D01*
X111649123Y-68622419D02*
X111791980Y-68670038D01*
X111791980Y-68670038D02*
X111839599Y-68717657D01*
X112553885Y-68622419D02*
X112553885Y-69336704D01*
X112553885Y-69336704D02*
X112506266Y-69479561D01*
X112506266Y-69479561D02*
X112411028Y-69574800D01*
X112411028Y-69574800D02*
X112268171Y-69622419D01*
X112268171Y-69622419D02*
X112172933Y-69622419D01*
X113506266Y-69622419D02*
X113030076Y-69622419D01*
X113030076Y-69622419D02*
X113030076Y-68622419D01*
X114411028Y-69527180D02*
X114363409Y-69574800D01*
X114363409Y-69574800D02*
X114220552Y-69622419D01*
X114220552Y-69622419D02*
X114125314Y-69622419D01*
X114125314Y-69622419D02*
X113982457Y-69574800D01*
X113982457Y-69574800D02*
X113887219Y-69479561D01*
X113887219Y-69479561D02*
X113839600Y-69384323D01*
X113839600Y-69384323D02*
X113791981Y-69193847D01*
X113791981Y-69193847D02*
X113791981Y-69050990D01*
X113791981Y-69050990D02*
X113839600Y-68860514D01*
X113839600Y-68860514D02*
X113887219Y-68765276D01*
X113887219Y-68765276D02*
X113982457Y-68670038D01*
X113982457Y-68670038D02*
X114125314Y-68622419D01*
X114125314Y-68622419D02*
X114220552Y-68622419D01*
X114220552Y-68622419D02*
X114363409Y-68670038D01*
X114363409Y-68670038D02*
X114411028Y-68717657D01*
D11*
X109054819Y-76986904D02*
X109864342Y-76986904D01*
X109864342Y-76986904D02*
X109959580Y-76939285D01*
X109959580Y-76939285D02*
X110007200Y-76891666D01*
X110007200Y-76891666D02*
X110054819Y-76796428D01*
X110054819Y-76796428D02*
X110054819Y-76605952D01*
X110054819Y-76605952D02*
X110007200Y-76510714D01*
X110007200Y-76510714D02*
X109959580Y-76463095D01*
X109959580Y-76463095D02*
X109864342Y-76415476D01*
X109864342Y-76415476D02*
X109054819Y-76415476D01*
X109150057Y-75986904D02*
X109102438Y-75939285D01*
X109102438Y-75939285D02*
X109054819Y-75844047D01*
X109054819Y-75844047D02*
X109054819Y-75605952D01*
X109054819Y-75605952D02*
X109102438Y-75510714D01*
X109102438Y-75510714D02*
X109150057Y-75463095D01*
X109150057Y-75463095D02*
X109245295Y-75415476D01*
X109245295Y-75415476D02*
X109340533Y-75415476D01*
X109340533Y-75415476D02*
X109483390Y-75463095D01*
X109483390Y-75463095D02*
X110054819Y-76034523D01*
X110054819Y-76034523D02*
X110054819Y-75415476D01*
X100309523Y-69359580D02*
X100261904Y-69407200D01*
X100261904Y-69407200D02*
X100119047Y-69454819D01*
X100119047Y-69454819D02*
X100023809Y-69454819D01*
X100023809Y-69454819D02*
X99880952Y-69407200D01*
X99880952Y-69407200D02*
X99785714Y-69311961D01*
X99785714Y-69311961D02*
X99738095Y-69216723D01*
X99738095Y-69216723D02*
X99690476Y-69026247D01*
X99690476Y-69026247D02*
X99690476Y-68883390D01*
X99690476Y-68883390D02*
X99738095Y-68692914D01*
X99738095Y-68692914D02*
X99785714Y-68597676D01*
X99785714Y-68597676D02*
X99880952Y-68502438D01*
X99880952Y-68502438D02*
X100023809Y-68454819D01*
X100023809Y-68454819D02*
X100119047Y-68454819D01*
X100119047Y-68454819D02*
X100261904Y-68502438D01*
X100261904Y-68502438D02*
X100309523Y-68550057D01*
X100738095Y-69454819D02*
X100738095Y-68454819D01*
X100738095Y-68454819D02*
X101309523Y-69454819D01*
X101309523Y-69454819D02*
X101309523Y-68454819D01*
X102309523Y-69454819D02*
X101738095Y-69454819D01*
X102023809Y-69454819D02*
X102023809Y-68454819D01*
X102023809Y-68454819D02*
X101928571Y-68597676D01*
X101928571Y-68597676D02*
X101833333Y-68692914D01*
X101833333Y-68692914D02*
X101738095Y-68740533D01*
X100738095Y-73954819D02*
X100738095Y-74764342D01*
X100738095Y-74764342D02*
X100785714Y-74859580D01*
X100785714Y-74859580D02*
X100833333Y-74907200D01*
X100833333Y-74907200D02*
X100928571Y-74954819D01*
X100928571Y-74954819D02*
X101119047Y-74954819D01*
X101119047Y-74954819D02*
X101214285Y-74907200D01*
X101214285Y-74907200D02*
X101261904Y-74859580D01*
X101261904Y-74859580D02*
X101309523Y-74764342D01*
X101309523Y-74764342D02*
X101309523Y-73954819D01*
X102309523Y-74954819D02*
X101738095Y-74954819D01*
X102023809Y-74954819D02*
X102023809Y-73954819D01*
X102023809Y-73954819D02*
X101928571Y-74097676D01*
X101928571Y-74097676D02*
X101833333Y-74192914D01*
X101833333Y-74192914D02*
X101738095Y-74240533D01*
X117454819Y-81166666D02*
X116978628Y-81499999D01*
X117454819Y-81738094D02*
X116454819Y-81738094D01*
X116454819Y-81738094D02*
X116454819Y-81357142D01*
X116454819Y-81357142D02*
X116502438Y-81261904D01*
X116502438Y-81261904D02*
X116550057Y-81214285D01*
X116550057Y-81214285D02*
X116645295Y-81166666D01*
X116645295Y-81166666D02*
X116788152Y-81166666D01*
X116788152Y-81166666D02*
X116883390Y-81214285D01*
X116883390Y-81214285D02*
X116931009Y-81261904D01*
X116931009Y-81261904D02*
X116978628Y-81357142D01*
X116978628Y-81357142D02*
X116978628Y-81738094D01*
X117454819Y-80214285D02*
X117454819Y-80785713D01*
X117454819Y-80499999D02*
X116454819Y-80499999D01*
X116454819Y-80499999D02*
X116597676Y-80595237D01*
X116597676Y-80595237D02*
X116692914Y-80690475D01*
X116692914Y-80690475D02*
X116740533Y-80785713D01*
X117359580Y-72416666D02*
X117407200Y-72464285D01*
X117407200Y-72464285D02*
X117454819Y-72607142D01*
X117454819Y-72607142D02*
X117454819Y-72702380D01*
X117454819Y-72702380D02*
X117407200Y-72845237D01*
X117407200Y-72845237D02*
X117311961Y-72940475D01*
X117311961Y-72940475D02*
X117216723Y-72988094D01*
X117216723Y-72988094D02*
X117026247Y-73035713D01*
X117026247Y-73035713D02*
X116883390Y-73035713D01*
X116883390Y-73035713D02*
X116692914Y-72988094D01*
X116692914Y-72988094D02*
X116597676Y-72940475D01*
X116597676Y-72940475D02*
X116502438Y-72845237D01*
X116502438Y-72845237D02*
X116454819Y-72702380D01*
X116454819Y-72702380D02*
X116454819Y-72607142D01*
X116454819Y-72607142D02*
X116502438Y-72464285D01*
X116502438Y-72464285D02*
X116550057Y-72416666D01*
X116550057Y-72035713D02*
X116502438Y-71988094D01*
X116502438Y-71988094D02*
X116454819Y-71892856D01*
X116454819Y-71892856D02*
X116454819Y-71654761D01*
X116454819Y-71654761D02*
X116502438Y-71559523D01*
X116502438Y-71559523D02*
X116550057Y-71511904D01*
X116550057Y-71511904D02*
X116645295Y-71464285D01*
X116645295Y-71464285D02*
X116740533Y-71464285D01*
X116740533Y-71464285D02*
X116883390Y-71511904D01*
X116883390Y-71511904D02*
X117454819Y-72083332D01*
X117454819Y-72083332D02*
X117454819Y-71464285D01*
X100929580Y-77166666D02*
X100977200Y-77214285D01*
X100977200Y-77214285D02*
X101024819Y-77357142D01*
X101024819Y-77357142D02*
X101024819Y-77452380D01*
X101024819Y-77452380D02*
X100977200Y-77595237D01*
X100977200Y-77595237D02*
X100881961Y-77690475D01*
X100881961Y-77690475D02*
X100786723Y-77738094D01*
X100786723Y-77738094D02*
X100596247Y-77785713D01*
X100596247Y-77785713D02*
X100453390Y-77785713D01*
X100453390Y-77785713D02*
X100262914Y-77738094D01*
X100262914Y-77738094D02*
X100167676Y-77690475D01*
X100167676Y-77690475D02*
X100072438Y-77595237D01*
X100072438Y-77595237D02*
X100024819Y-77452380D01*
X100024819Y-77452380D02*
X100024819Y-77357142D01*
X100024819Y-77357142D02*
X100072438Y-77214285D01*
X100072438Y-77214285D02*
X100120057Y-77166666D01*
X101024819Y-76214285D02*
X101024819Y-76785713D01*
X101024819Y-76499999D02*
X100024819Y-76499999D01*
X100024819Y-76499999D02*
X100167676Y-76595237D01*
X100167676Y-76595237D02*
X100262914Y-76690475D01*
X100262914Y-76690475D02*
X100310533Y-76785713D01*
D12*
%TO.C,U2*%
X110440000Y-76225000D02*
X110440000Y-78175000D01*
X110440000Y-76225000D02*
X110440000Y-74275000D01*
X115560000Y-76225000D02*
X115560000Y-78175000D01*
X115560000Y-76225000D02*
X115560000Y-74275000D01*
X110535000Y-80735000D02*
X110205000Y-80975000D01*
X110205000Y-80495000D01*
X110535000Y-80735000D01*
G36*
X110535000Y-80735000D02*
G01*
X110205000Y-80975000D01*
X110205000Y-80495000D01*
X110535000Y-80735000D01*
G37*
X110535000Y-78925000D02*
X110205000Y-79165000D01*
X110205000Y-78685000D01*
X110535000Y-78925000D01*
G36*
X110535000Y-78925000D02*
G01*
X110205000Y-79165000D01*
X110205000Y-78685000D01*
X110535000Y-78925000D01*
G37*
%TO.C,CN1*%
X102490000Y-66740000D02*
X102490000Y-71260000D01*
X102490000Y-71260000D02*
X103810000Y-71260000D01*
X103810000Y-66740000D02*
X102490000Y-66740000D01*
X103810000Y-67340000D02*
X103810000Y-66740000D01*
X103810000Y-70660000D02*
X104340000Y-70660000D01*
X103810000Y-71260000D02*
X103810000Y-70660000D01*
X103810000Y-71260000D02*
X103810000Y-71260000D01*
X104340000Y-67340000D02*
X103810000Y-67340000D01*
X104340000Y-70660000D02*
X104340000Y-71250000D01*
X114660000Y-67340000D02*
X115190000Y-67340000D01*
X115190000Y-66740000D02*
X116510000Y-66740000D01*
X115190000Y-67340000D02*
X115190000Y-66740000D01*
X115190000Y-70660000D02*
X114660000Y-70660000D01*
X115190000Y-71260000D02*
X115190000Y-70660000D01*
X115734683Y-71260000D02*
X115190000Y-71260000D01*
X116510000Y-66740000D02*
X116510000Y-70717262D01*
X116510000Y-70717262D02*
X115734683Y-71260000D01*
%TO.C,U1*%
X102890000Y-77000000D02*
X102890000Y-74800000D01*
X102890000Y-77000000D02*
X102890000Y-79200000D01*
X108110000Y-77000000D02*
X108110000Y-74800000D01*
X108110000Y-77000000D02*
X108110000Y-79200000D01*
X103090000Y-79900000D02*
X102760000Y-80140000D01*
X102760000Y-79660000D01*
X103090000Y-79900000D01*
G36*
X103090000Y-79900000D02*
G01*
X102760000Y-80140000D01*
X102760000Y-79660000D01*
X103090000Y-79900000D01*
G37*
%TO.C,R1*%
X116477500Y-78754724D02*
X116477500Y-78245276D01*
X117522500Y-78754724D02*
X117522500Y-78245276D01*
%TO.C,C2*%
X116490000Y-74896267D02*
X116490000Y-74603733D01*
X117510000Y-74896267D02*
X117510000Y-74603733D01*
%TO.C,C1*%
X101490000Y-77146267D02*
X101490000Y-76853733D01*
X102510000Y-77146267D02*
X102510000Y-76853733D01*
%TD*%
M02*
