M48
; DRILL file {KiCad 8.0.2} date 2024-11-21T20:15:39+0100
; FORMAT={-:-/ absolute / inch / decimal}
; #@! TF.CreationDate,2024-11-21T20:15:39+01:00
; #@! TF.GenerationSoftware,Kicad,Pcbnew,8.0.2
; #@! TF.FileFunction,Plated,1,2,PTH
FMAT,2
INCH
; #@! TA.AperFunction,Plated,PTH,ViaDrill
T1C0.0118
%
G90
G05
T1
X3.937Y-2.6476
X3.937Y-2.7559
X3.937Y-2.874
X3.937Y-2.9823
X3.937Y-3.1004
X3.937Y-3.2185
X4.0256Y-2.8346
X4.0256Y-2.874
X4.0551Y-2.8346
X4.0748Y-3.2087
X4.0846Y-3.0709
X4.0945Y-2.9823
X4.124Y-3.0709
X4.1339Y-3.1988
X4.1358Y-2.9744
X4.1437Y-2.8445
X4.1732Y-3.2087
X4.1831Y-2.7264
X4.1929Y-2.5984
X4.2126Y-2.9823
X4.2126Y-3.1988
X4.2323Y-2.6083
X4.2323Y-2.8445
X4.252Y-2.9823
X4.2717Y-2.6083
X4.2717Y-2.8445
X4.2717Y-2.9331
X4.3012Y-3.2087
X4.311Y-2.5984
X4.311Y-2.7264
X4.3307Y-2.9528
X4.3504Y-2.6083
X4.3504Y-2.8445
X4.3701Y-2.9921
X4.3701Y-3.061
X4.3898Y-2.6083
X4.3898Y-2.7264
X4.3898Y-2.8445
X4.4243Y-2.8325
X4.4291Y-2.5984
X4.4291Y-2.9921
X4.4291Y-3.0413
X4.4291Y-3.2087
X4.4783Y-3.0413
X4.4783Y-3.1988
X4.4882Y-2.6083
X4.5079Y-2.7165
X4.5238Y-3.0746
X4.5276Y-2.8346
X4.5472Y-3.2087
X4.5669Y-2.8346
X4.5669Y-2.8642
X4.5768Y-2.6476
X4.5768Y-3.1594
X4.6752Y-2.6181
X4.6752Y-2.7264
X4.6752Y-2.8445
X4.6752Y-2.9626
X4.685Y-3.0709
X4.685Y-3.1791
M30
