%TF.GenerationSoftware,KiCad,Pcbnew,8.0.2*%
%TF.CreationDate,2024-11-21T20:15:41+01:00*%
%TF.ProjectId,NTR-Subcard,4e54522d-5375-4626-9361-72642e6b6963,rev?*%
%TF.SameCoordinates,Original*%
%TF.FileFunction,Copper,L1,Top*%
%TF.FilePolarity,Positive*%
%FSLAX46Y46*%
G04 Gerber Fmt 4.6, Leading zero omitted, Abs format (unit mm)*
G04 Created by KiCad (PCBNEW 8.0.2) date 2024-11-21 20:15:41*
%MOMM*%
%LPD*%
G01*
G04 APERTURE LIST*
G04 Aperture macros list*
%AMRoundRect*
0 Rectangle with rounded corners*
0 $1 Rounding radius*
0 $2 $3 $4 $5 $6 $7 $8 $9 X,Y pos of 4 corners*
0 Add a 4 corners polygon primitive as box body*
4,1,4,$2,$3,$4,$5,$6,$7,$8,$9,$2,$3,0*
0 Add four circle primitives for the rounded corners*
1,1,$1+$1,$2,$3*
1,1,$1+$1,$4,$5*
1,1,$1+$1,$6,$7*
1,1,$1+$1,$8,$9*
0 Add four rect primitives between the rounded corners*
20,1,$1+$1,$2,$3,$4,$5,0*
20,1,$1+$1,$4,$5,$6,$7,0*
20,1,$1+$1,$6,$7,$8,$9,0*
20,1,$1+$1,$8,$9,$2,$3,0*%
G04 Aperture macros list end*
%TA.AperFunction,SMDPad,CuDef*%
%ADD10R,0.300000X1.200000*%
%TD*%
%TA.AperFunction,SMDPad,CuDef*%
%ADD11RoundRect,0.150000X0.150000X-0.825000X0.150000X0.825000X-0.150000X0.825000X-0.150000X-0.825000X0*%
%TD*%
%TA.AperFunction,SMDPad,CuDef*%
%ADD12RoundRect,0.100000X0.100000X-0.637500X0.100000X0.637500X-0.100000X0.637500X-0.100000X-0.637500X0*%
%TD*%
%TA.AperFunction,SMDPad,CuDef*%
%ADD13RoundRect,0.237500X0.237500X-0.250000X0.237500X0.250000X-0.237500X0.250000X-0.237500X-0.250000X0*%
%TD*%
%TA.AperFunction,SMDPad,CuDef*%
%ADD14RoundRect,0.237500X0.237500X-0.300000X0.237500X0.300000X-0.237500X0.300000X-0.237500X-0.300000X0*%
%TD*%
%TA.AperFunction,ViaPad*%
%ADD15C,0.600000*%
%TD*%
%TA.AperFunction,Conductor*%
%ADD16C,0.400000*%
%TD*%
%TA.AperFunction,Conductor*%
%ADD17C,0.200000*%
%TD*%
G04 APERTURE END LIST*
D10*
%TO.P,CN1,40,Pin_40*%
%TO.N,GND*%
X114250000Y-67300000D03*
%TO.P,CN1,39,Pin_39*%
X113750000Y-67300000D03*
%TO.P,CN1,38,Pin_38*%
%TO.N,unconnected-(CN1-Pin_38-Pad38)*%
X113250000Y-67300000D03*
%TO.P,CN1,37,Pin_37*%
%TO.N,unconnected-(CN1-Pin_37-Pad37)*%
X112750000Y-67300000D03*
%TO.P,CN1,36,Pin_36*%
%TO.N,unconnected-(CN1-Pin_36-Pad36)*%
X112250000Y-67300000D03*
%TO.P,CN1,35,Pin_35*%
%TO.N,C*%
X111750000Y-67300000D03*
%TO.P,CN1,34,Pin_34*%
X111250000Y-67300000D03*
%TO.P,CN1,33,Pin_33*%
%TO.N,D*%
X110750000Y-67300000D03*
%TO.P,CN1,32,Pin_32*%
X110250000Y-67300000D03*
%TO.P,CN1,31,Pin_31*%
%TO.N,GND*%
X109750000Y-67300000D03*
%TO.P,CN1,30,Pin_30*%
X109250000Y-67300000D03*
%TO.P,CN1,29,Pin_29*%
%TO.N,Q*%
X108750000Y-67300000D03*
%TO.P,CN1,28,Pin_28*%
X108250000Y-67300000D03*
%TO.P,CN1,27,Pin_27*%
%TO.N,S*%
X107750000Y-67300000D03*
%TO.P,CN1,26,Pin_26*%
X107250000Y-67300000D03*
%TO.P,CN1,25,Pin_25*%
%TO.N,unconnected-(CN1-Pin_25-Pad25)*%
X106750000Y-67300000D03*
%TO.P,CN1,24,Pin_24*%
%TO.N,unconnected-(CN1-Pin_24-Pad24)*%
X106250000Y-67300000D03*
%TO.P,CN1,23,Pin_23*%
%TO.N,unconnected-(CN1-Pin_23-Pad23)*%
X105750000Y-67300000D03*
%TO.P,CN1,22,Pin_22*%
%TO.N,VCC*%
X105250000Y-67300000D03*
%TO.P,CN1,21,Pin_21*%
X104750000Y-67300000D03*
%TO.P,CN1,20,Pin_20*%
%TO.N,GND*%
X104750000Y-70700000D03*
%TO.P,CN1,19,Pin_19*%
X105250000Y-70700000D03*
%TO.P,CN1,18,Pin_18*%
%TO.N,unconnected-(CN1-Pin_18-Pad18)*%
X105750000Y-70700000D03*
%TO.P,CN1,17,Pin_17*%
%TO.N,unconnected-(CN1-Pin_17-Pad17)*%
X106250000Y-70700000D03*
%TO.P,CN1,16,Pin_16*%
%TO.N,unconnected-(CN1-Pin_16-Pad16)*%
X106750000Y-70700000D03*
%TO.P,CN1,15,Pin_15*%
%TO.N,C*%
X107250000Y-70700000D03*
%TO.P,CN1,14,Pin_14*%
X107750000Y-70700000D03*
%TO.P,CN1,13,Pin_13*%
%TO.N,D*%
X108250000Y-70700000D03*
%TO.P,CN1,12,Pin_12*%
X108750000Y-70700000D03*
%TO.P,CN1,11,Pin_11*%
%TO.N,GND*%
X109250000Y-70700000D03*
%TO.P,CN1,10,Pin_10*%
X109750000Y-70700000D03*
%TO.P,CN1,9,Pin_9*%
%TO.N,Q*%
X110250000Y-70700000D03*
%TO.P,CN1,8,Pin_8*%
X110750000Y-70700000D03*
%TO.P,CN1,7,Pin_7*%
%TO.N,S*%
X111250000Y-70700000D03*
%TO.P,CN1,6,Pin_6*%
X111750000Y-70700000D03*
%TO.P,CN1,5,Pin_5*%
%TO.N,unconnected-(CN1-Pin_5-Pad5)*%
X112250000Y-70700000D03*
%TO.P,CN1,4,Pin_4*%
%TO.N,unconnected-(CN1-Pin_4-Pad4)*%
X112750000Y-70700000D03*
%TO.P,CN1,3,Pin_3*%
%TO.N,unconnected-(CN1-Pin_3-Pad3)*%
X113250000Y-70700000D03*
%TO.P,CN1,2,Pin_2*%
%TO.N,VCC*%
X113750000Y-70700000D03*
%TO.P,CN1,1,Pin_1*%
X114250000Y-70700000D03*
%TD*%
D11*
%TO.P,U2,8,Q*%
%TO.N,Q*%
X111095000Y-74525000D03*
%TO.P,U2,7,VSS*%
%TO.N,GND*%
X112365000Y-74525000D03*
%TO.P,U2,6,VCC*%
%TO.N,VCC*%
X113635000Y-74525000D03*
%TO.P,U2,5,~{W}*%
X114905000Y-74525000D03*
%TO.P,U2,4,~{S}*%
%TO.N,S*%
X114905000Y-79475000D03*
%TO.P,U2,3,~{Reset}*%
%TO.N,VCC*%
X113635000Y-79475000D03*
%TO.P,U2,2,C*%
%TO.N,C*%
X112365000Y-79475000D03*
%TO.P,U2,1,D*%
%TO.N,D*%
X111095000Y-79475000D03*
%TD*%
D12*
%TO.P,U1,1,~{S}*%
%TO.N,S*%
X103550000Y-79862500D03*
%TO.P,U1,2,Q*%
%TO.N,Q*%
X104200000Y-79862500D03*
%TO.P,U1,3,~{W}*%
%TO.N,VCC*%
X104850000Y-79862500D03*
%TO.P,U1,4,VSS*%
%TO.N,GND*%
X105500000Y-79862500D03*
%TO.P,U1,5*%
X106150000Y-79862500D03*
%TO.P,U1,6*%
%TO.N,VCC*%
X106800000Y-79862500D03*
%TO.P,U1,7*%
%TO.N,GND*%
X107450000Y-79862500D03*
%TO.P,U1,8*%
%TO.N,D*%
X107450000Y-74137500D03*
%TO.P,U1,9*%
%TO.N,C*%
X106800000Y-74137500D03*
%TO.P,U1,10*%
%TO.N,GND*%
X106150000Y-74137500D03*
%TO.P,U1,11,D*%
%TO.N,D*%
X105500000Y-74137500D03*
%TO.P,U1,12,C*%
%TO.N,C*%
X104850000Y-74137500D03*
%TO.P,U1,13,~{HOLD}*%
%TO.N,VCC*%
X104200000Y-74137500D03*
%TO.P,U1,14,VCC*%
X103550000Y-74137500D03*
%TD*%
D13*
%TO.P,R1,2*%
%TO.N,S*%
X117000000Y-77587500D03*
%TO.P,R1,1*%
%TO.N,VCC*%
X117000000Y-79412500D03*
%TD*%
D14*
%TO.P,C2,2*%
%TO.N,VCC*%
X117000000Y-73887500D03*
%TO.P,C2,1*%
%TO.N,GND*%
X117000000Y-75612500D03*
%TD*%
%TO.P,C1,2*%
%TO.N,VCC*%
X102000000Y-76137500D03*
%TO.P,C1,1*%
%TO.N,GND*%
X102000000Y-77862500D03*
%TD*%
D15*
%TO.N,GND*%
X116250000Y-67250000D03*
X114500000Y-69000000D03*
X111500000Y-69250000D03*
X109500000Y-69250000D03*
X106250000Y-69250000D03*
X110000000Y-75000000D03*
X108500000Y-74500000D03*
X113750000Y-77250000D03*
X112500000Y-76000000D03*
X112378463Y-71946036D03*
%TO.N,VCC*%
X116000000Y-72750000D03*
X116000000Y-72000000D03*
X115000000Y-72000000D03*
%TO.N,GND*%
X118750000Y-66500000D03*
X114000000Y-66250000D03*
X112500000Y-66000000D03*
X109500000Y-66000000D03*
X106500000Y-66000000D03*
X100000000Y-67250000D03*
X100000000Y-70000000D03*
X100000000Y-73000000D03*
X100000000Y-75750000D03*
X100000000Y-78750000D03*
X100000000Y-81750000D03*
X103500000Y-81500000D03*
X106000000Y-81500000D03*
X109250000Y-81500000D03*
X112500000Y-81500000D03*
X115500000Y-81500000D03*
X119000000Y-80750000D03*
X119000000Y-78000000D03*
X118750000Y-75250000D03*
X118750000Y-69250000D03*
X118750000Y-72250000D03*
%TO.N,VCC*%
X105000000Y-81250000D03*
X107000000Y-81250000D03*
X116250000Y-80250000D03*
X113750000Y-81250000D03*
X102250000Y-73000000D03*
X102250000Y-72000000D03*
X103000000Y-72000000D03*
%TO.N,GND*%
X105250000Y-72250000D03*
%TO.N,S*%
X103750000Y-78000000D03*
X114905000Y-78095000D03*
%TO.N,D*%
X105049265Y-75549265D03*
%TO.N,C*%
X107000000Y-75750000D03*
X104000000Y-75750000D03*
X112500000Y-77250000D03*
%TO.N,D*%
X108000000Y-75750000D03*
X111000000Y-76000000D03*
%TO.N,Q*%
X104750000Y-78000000D03*
X111000000Y-77750000D03*
%TO.N,S*%
X111500000Y-72250000D03*
%TO.N,Q*%
X110500000Y-72250000D03*
%TO.N,C*%
X107500000Y-72250000D03*
%TO.N,D*%
X108500000Y-72250000D03*
%TO.N,S*%
X107500000Y-66250000D03*
%TO.N,Q*%
X108500000Y-66250000D03*
%TO.N,D*%
X110500000Y-66250000D03*
%TO.N,C*%
X111500000Y-66250000D03*
%TD*%
D16*
%TO.N,VCC*%
X114250000Y-70700000D02*
X113800000Y-70700000D01*
X104850000Y-81100000D02*
X105000000Y-81250000D01*
X104850000Y-79862500D02*
X104850000Y-81100000D01*
X106800000Y-81050000D02*
X107000000Y-81250000D01*
X106800000Y-79862500D02*
X106800000Y-81050000D01*
X117000000Y-79500000D02*
X116250000Y-80250000D01*
X117000000Y-79412500D02*
X117000000Y-79500000D01*
X113635000Y-81135000D02*
X113750000Y-81250000D01*
X113635000Y-79475000D02*
X113635000Y-81135000D01*
%TO.N,GND*%
X105250000Y-72250000D02*
X105250000Y-72000000D01*
D17*
%TO.N,S*%
X103550000Y-78200000D02*
X103550000Y-79862500D01*
X103750000Y-78000000D02*
X103550000Y-78200000D01*
X116250000Y-77250000D02*
X116587500Y-77587500D01*
X116587500Y-77587500D02*
X117000000Y-77587500D01*
X115750000Y-77250000D02*
X116250000Y-77250000D01*
X114905000Y-78095000D02*
X115750000Y-77250000D01*
X114905000Y-79475000D02*
X114905000Y-78095000D01*
%TO.N,D*%
X105049265Y-75549265D02*
X105500000Y-75098530D01*
X105500000Y-75098530D02*
X105500000Y-74137500D01*
%TO.N,C*%
X104850000Y-74900000D02*
X104850000Y-74137500D01*
X104000000Y-75750000D02*
X104850000Y-74900000D01*
X107000000Y-75750000D02*
X106800000Y-75550000D01*
X106800000Y-75550000D02*
X106800000Y-74137500D01*
X112365000Y-77385000D02*
X112500000Y-77250000D01*
X112365000Y-79475000D02*
X112365000Y-77385000D01*
%TO.N,D*%
X107450000Y-74950000D02*
X107450000Y-74137500D01*
X107750000Y-75250000D02*
X107450000Y-74950000D01*
X107750000Y-75500000D02*
X107750000Y-75250000D01*
X108000000Y-75750000D02*
X107750000Y-75500000D01*
X110000000Y-78380000D02*
X110000000Y-77000000D01*
X110000000Y-77000000D02*
X111000000Y-76000000D01*
X111095000Y-79475000D02*
X110000000Y-78380000D01*
%TO.N,Q*%
X111750000Y-77000000D02*
X111750000Y-75180000D01*
X111000000Y-77750000D02*
X111750000Y-77000000D01*
X111750000Y-75180000D02*
X111095000Y-74525000D01*
X104200000Y-78550000D02*
X104200000Y-79862500D01*
X104750000Y-78000000D02*
X104200000Y-78550000D01*
X111095000Y-74525000D02*
X111095000Y-72845000D01*
X111095000Y-72845000D02*
X110500000Y-72250000D01*
%TO.N,D*%
X107450000Y-73300000D02*
X108500000Y-72250000D01*
X107450000Y-74137500D02*
X107450000Y-73300000D01*
%TO.N,C*%
X106800000Y-72950000D02*
X107500000Y-72250000D01*
X106800000Y-74137500D02*
X106800000Y-72950000D01*
%TO.N,S*%
X111750000Y-72000000D02*
X111750000Y-70700000D01*
X111500000Y-72250000D02*
X111750000Y-72000000D01*
X111250000Y-72000000D02*
X111500000Y-72250000D01*
X111250000Y-70700000D02*
X111250000Y-72000000D01*
%TO.N,Q*%
X110500000Y-72250000D02*
X110750000Y-72000000D01*
X110250000Y-72000000D02*
X110500000Y-72250000D01*
X110250000Y-70700000D02*
X110250000Y-72000000D01*
X110750000Y-72000000D02*
X110750000Y-70700000D01*
%TO.N,C*%
X107500000Y-72250000D02*
X107750000Y-72000000D01*
X107750000Y-72000000D02*
X107750000Y-70700000D01*
X107250000Y-72000000D02*
X107500000Y-72250000D01*
X107250000Y-70700000D02*
X107250000Y-72000000D01*
%TO.N,D*%
X108250000Y-72000000D02*
X108500000Y-72250000D01*
X108750000Y-72000000D02*
X108750000Y-70700000D01*
X108250000Y-70700000D02*
X108250000Y-72000000D01*
X108500000Y-72250000D02*
X108750000Y-72000000D01*
%TO.N,S*%
X107500000Y-66250000D02*
X107750000Y-66500000D01*
X107250000Y-66500000D02*
X107500000Y-66250000D01*
X107250000Y-67300000D02*
X107250000Y-66500000D01*
X107750000Y-66500000D02*
X107750000Y-67300000D01*
%TO.N,Q*%
X108750000Y-66500000D02*
X108500000Y-66250000D01*
X108750000Y-67300000D02*
X108750000Y-66500000D01*
X108250000Y-66500000D02*
X108500000Y-66250000D01*
X108250000Y-67300000D02*
X108250000Y-66500000D01*
%TO.N,C*%
X111750000Y-66500000D02*
X111750000Y-67300000D01*
X111500000Y-66250000D02*
X111750000Y-66500000D01*
X111250000Y-66500000D02*
X111500000Y-66250000D01*
X111250000Y-67300000D02*
X111250000Y-66500000D01*
%TO.N,D*%
X110750000Y-66500000D02*
X110750000Y-67300000D01*
X110500000Y-66250000D02*
X110750000Y-66500000D01*
X110250000Y-66500000D02*
X110500000Y-66250000D01*
X110250000Y-67300000D02*
X110250000Y-66500000D01*
%TD*%
%TA.AperFunction,Conductor*%
%TO.N,VCC*%
G36*
X105478326Y-66271674D02*
G01*
X105500000Y-66324000D01*
X105500000Y-66376000D01*
X105478326Y-66428326D01*
X105426000Y-66450000D01*
X105400000Y-66450000D01*
X105400000Y-66525984D01*
X105387529Y-66567095D01*
X105364034Y-66602258D01*
X105349500Y-66675327D01*
X105349500Y-67376000D01*
X105327826Y-67428326D01*
X105275500Y-67450000D01*
X104350000Y-67450000D01*
X104350000Y-67924622D01*
X104364505Y-67997545D01*
X104419759Y-68080239D01*
X104419760Y-68080240D01*
X104470990Y-68114471D01*
X104502456Y-68161563D01*
X104491407Y-68217112D01*
X104444315Y-68248578D01*
X104429878Y-68250000D01*
X104250000Y-68250000D01*
X103500000Y-69000000D01*
X103500000Y-72500000D01*
X104426000Y-72500000D01*
X104478326Y-72521674D01*
X104500000Y-72574000D01*
X104500000Y-73090107D01*
X104478326Y-73142433D01*
X104426000Y-73164107D01*
X104404159Y-73160810D01*
X104401257Y-73159913D01*
X104400000Y-73159730D01*
X104400000Y-73457945D01*
X104399557Y-73464059D01*
X104399694Y-73464069D01*
X104399500Y-73466746D01*
X104399500Y-74263500D01*
X104377826Y-74315826D01*
X104325500Y-74337500D01*
X103100001Y-74337500D01*
X103100001Y-74676000D01*
X103078327Y-74728326D01*
X103026001Y-74750000D01*
X103000000Y-74750000D01*
X103000000Y-76176000D01*
X102978326Y-76228326D01*
X102926000Y-76250000D01*
X101750000Y-76250000D01*
X101750000Y-75887500D01*
X102250000Y-75887500D01*
X102725000Y-75887500D01*
X102725000Y-75790868D01*
X102718758Y-75732810D01*
X102718756Y-75732804D01*
X102669769Y-75601466D01*
X102585758Y-75489241D01*
X102473533Y-75405230D01*
X102342195Y-75356243D01*
X102342189Y-75356241D01*
X102284132Y-75350000D01*
X102250000Y-75350000D01*
X102250000Y-75887500D01*
X101750000Y-75887500D01*
X101750000Y-75350000D01*
X101715868Y-75350000D01*
X101657810Y-75356241D01*
X101657804Y-75356243D01*
X101599860Y-75377855D01*
X101543259Y-75375834D01*
X101504666Y-75334381D01*
X101500000Y-75308521D01*
X101500000Y-73466776D01*
X103100000Y-73466776D01*
X103100000Y-73937500D01*
X103350000Y-73937500D01*
X103350000Y-73159730D01*
X103750000Y-73159730D01*
X103750000Y-73937500D01*
X104000000Y-73937500D01*
X104000000Y-73159730D01*
X103998748Y-73159912D01*
X103907500Y-73204521D01*
X103850972Y-73208030D01*
X103842500Y-73204521D01*
X103751251Y-73159912D01*
X103750000Y-73159730D01*
X103350000Y-73159730D01*
X103348749Y-73159912D01*
X103243810Y-73211214D01*
X103161214Y-73293810D01*
X103109912Y-73398750D01*
X103100000Y-73466776D01*
X101500000Y-73466776D01*
X101500000Y-67530652D01*
X101521674Y-67478326D01*
X102324623Y-66675377D01*
X104350000Y-66675377D01*
X104350000Y-67150000D01*
X104600000Y-67150000D01*
X104900000Y-67150000D01*
X105100000Y-67150000D01*
X105100000Y-66450000D01*
X105075376Y-66450000D01*
X105014436Y-66462121D01*
X104985564Y-66462121D01*
X104924624Y-66450000D01*
X104900000Y-66450000D01*
X104900000Y-67150000D01*
X104600000Y-67150000D01*
X104600000Y-66450000D01*
X104575378Y-66450000D01*
X104502454Y-66464505D01*
X104419760Y-66519759D01*
X104419759Y-66519760D01*
X104364505Y-66602454D01*
X104350000Y-66675377D01*
X102324623Y-66675377D01*
X102728326Y-66271674D01*
X102780652Y-66250000D01*
X105426000Y-66250000D01*
X105478326Y-66271674D01*
G37*
%TD.AperFunction*%
%TD*%
%TA.AperFunction,Conductor*%
%TO.N,VCC*%
G36*
X116015677Y-70019685D02*
G01*
X116036319Y-70036319D01*
X116213681Y-70213681D01*
X116247166Y-70275004D01*
X116250000Y-70301362D01*
X116250000Y-71250000D01*
X117463681Y-72463681D01*
X117497166Y-72525004D01*
X117500000Y-72551362D01*
X117500000Y-72734483D01*
X117480315Y-72801522D01*
X117427511Y-72847277D01*
X117363397Y-72857841D01*
X117286654Y-72850000D01*
X117250000Y-72850000D01*
X117250000Y-74013500D01*
X117230315Y-74080539D01*
X117177511Y-74126294D01*
X117126000Y-74137500D01*
X116025001Y-74137500D01*
X116025001Y-74236654D01*
X116035319Y-74337652D01*
X116089546Y-74501300D01*
X116089551Y-74501311D01*
X116180052Y-74648034D01*
X116180055Y-74648038D01*
X116193982Y-74661965D01*
X116227467Y-74723288D01*
X116222483Y-74792980D01*
X116193984Y-74837325D01*
X116179661Y-74851648D01*
X116089093Y-74998481D01*
X116089092Y-74998484D01*
X116034826Y-75162247D01*
X116034826Y-75162248D01*
X116034825Y-75162248D01*
X116024500Y-75263315D01*
X116024500Y-75263323D01*
X116024500Y-75608353D01*
X116024501Y-75626000D01*
X116004817Y-75693039D01*
X115952013Y-75738794D01*
X115900501Y-75750000D01*
X115780818Y-75750000D01*
X115713779Y-75730315D01*
X115668024Y-75677511D01*
X115658080Y-75608353D01*
X115661742Y-75591405D01*
X115702099Y-75452495D01*
X115702100Y-75452489D01*
X115704999Y-75415649D01*
X115705000Y-75415634D01*
X115705000Y-74775000D01*
X113509000Y-74775000D01*
X113441961Y-74755315D01*
X113396206Y-74702511D01*
X113385000Y-74651000D01*
X113385000Y-73052703D01*
X113885000Y-73052703D01*
X113885000Y-74275000D01*
X114655000Y-74275000D01*
X115155000Y-74275000D01*
X115705000Y-74275000D01*
X115705000Y-73634365D01*
X115704999Y-73634350D01*
X115702100Y-73597510D01*
X115702099Y-73597504D01*
X115684912Y-73538345D01*
X116025000Y-73538345D01*
X116025000Y-73637500D01*
X116750000Y-73637500D01*
X116750000Y-72850000D01*
X116713361Y-72850000D01*
X116713343Y-72850001D01*
X116612347Y-72860319D01*
X116448699Y-72914546D01*
X116448688Y-72914551D01*
X116301965Y-73005052D01*
X116301961Y-73005055D01*
X116180055Y-73126961D01*
X116180052Y-73126965D01*
X116089551Y-73273688D01*
X116089546Y-73273699D01*
X116035319Y-73437347D01*
X116025000Y-73538345D01*
X115684912Y-73538345D01*
X115656283Y-73439806D01*
X115656282Y-73439803D01*
X115572685Y-73298447D01*
X115572678Y-73298438D01*
X115456561Y-73182321D01*
X115456552Y-73182314D01*
X115315196Y-73098717D01*
X115315193Y-73098716D01*
X115157494Y-73052900D01*
X115157497Y-73052900D01*
X115155000Y-73052703D01*
X115155000Y-74275000D01*
X114655000Y-74275000D01*
X114655000Y-73052703D01*
X114652503Y-73052900D01*
X114494806Y-73098716D01*
X114494803Y-73098717D01*
X114353447Y-73182314D01*
X114347278Y-73187100D01*
X114345457Y-73184753D01*
X114296358Y-73211564D01*
X114226666Y-73206580D01*
X114193930Y-73185541D01*
X114192722Y-73187100D01*
X114186552Y-73182314D01*
X114045196Y-73098717D01*
X114045193Y-73098716D01*
X113887494Y-73052900D01*
X113887497Y-73052900D01*
X113885000Y-73052703D01*
X113385000Y-73052703D01*
X113383776Y-73052800D01*
X113315393Y-73038462D01*
X113265618Y-72989430D01*
X113250000Y-72929186D01*
X113250000Y-71924499D01*
X113269685Y-71857460D01*
X113322489Y-71811705D01*
X113373999Y-71800499D01*
X113447872Y-71800499D01*
X113456711Y-71799548D01*
X113489094Y-71796068D01*
X113515606Y-71796068D01*
X113552166Y-71799999D01*
X113552182Y-71800000D01*
X113600000Y-71800000D01*
X113615611Y-71784388D01*
X113619685Y-71770515D01*
X113649686Y-71738289D01*
X113701690Y-71699359D01*
X113767154Y-71674943D01*
X113835426Y-71689795D01*
X113884832Y-71739200D01*
X113900000Y-71798627D01*
X113900000Y-71800000D01*
X113947821Y-71800000D01*
X113947831Y-71799999D01*
X113986742Y-71795815D01*
X114013258Y-71795815D01*
X114052168Y-71799999D01*
X114052179Y-71800000D01*
X114100000Y-71800000D01*
X114400000Y-71800000D01*
X114447828Y-71800000D01*
X114447844Y-71799999D01*
X114507372Y-71793598D01*
X114507379Y-71793596D01*
X114642086Y-71743354D01*
X114642093Y-71743350D01*
X114757187Y-71657190D01*
X114757190Y-71657187D01*
X114843350Y-71542093D01*
X114843354Y-71542086D01*
X114893596Y-71407379D01*
X114893598Y-71407372D01*
X114899999Y-71347844D01*
X114900000Y-71347827D01*
X114900000Y-70850000D01*
X114400000Y-70850000D01*
X114400000Y-71800000D01*
X114100000Y-71800000D01*
X114100000Y-70674000D01*
X114119685Y-70606961D01*
X114172489Y-70561206D01*
X114224000Y-70550000D01*
X114900000Y-70550000D01*
X114900000Y-70124000D01*
X114919685Y-70056961D01*
X114972489Y-70011206D01*
X115024000Y-70000000D01*
X115948638Y-70000000D01*
X116015677Y-70019685D01*
G37*
%TD.AperFunction*%
%TD*%
%TA.AperFunction,Conductor*%
%TO.N,GND*%
G36*
X119504126Y-65500965D02*
G01*
X119514292Y-65502110D01*
X119602873Y-65512091D01*
X119619013Y-65515775D01*
X119708852Y-65547211D01*
X119723781Y-65554400D01*
X119804372Y-65605038D01*
X119817328Y-65615370D01*
X119884629Y-65682671D01*
X119894961Y-65695627D01*
X119945599Y-65776218D01*
X119952788Y-65791147D01*
X119984222Y-65880980D01*
X119987909Y-65897131D01*
X119999035Y-65995873D01*
X119999500Y-66004159D01*
X119999500Y-81995840D01*
X119999035Y-82004126D01*
X119987909Y-82102868D01*
X119984221Y-82119023D01*
X119952788Y-82208852D01*
X119945599Y-82223781D01*
X119894961Y-82304372D01*
X119884629Y-82317328D01*
X119817328Y-82384629D01*
X119804372Y-82394961D01*
X119723781Y-82445599D01*
X119708852Y-82452788D01*
X119635258Y-82478539D01*
X119619021Y-82484221D01*
X119602868Y-82487909D01*
X119504127Y-82499035D01*
X119495841Y-82499500D01*
X99504159Y-82499500D01*
X99495873Y-82499035D01*
X99397131Y-82487909D01*
X99380980Y-82484222D01*
X99333867Y-82467736D01*
X99291147Y-82452788D01*
X99276218Y-82445599D01*
X99195627Y-82394961D01*
X99182671Y-82384629D01*
X99115370Y-82317328D01*
X99105038Y-82304372D01*
X99054400Y-82223781D01*
X99047211Y-82208852D01*
X99015775Y-82119013D01*
X99012091Y-82102873D01*
X99000965Y-82004125D01*
X99000500Y-81995840D01*
X99000500Y-79191735D01*
X103099500Y-79191735D01*
X103099500Y-80533264D01*
X103109427Y-80601393D01*
X103109427Y-80601394D01*
X103160801Y-80706482D01*
X103160802Y-80706483D01*
X103243517Y-80789198D01*
X103348607Y-80840573D01*
X103416740Y-80850500D01*
X103416746Y-80850500D01*
X103683254Y-80850500D01*
X103683260Y-80850500D01*
X103751393Y-80840573D01*
X103842502Y-80796032D01*
X103899027Y-80792523D01*
X103907483Y-80796025D01*
X103998607Y-80840573D01*
X104066740Y-80850500D01*
X104066746Y-80850500D01*
X104325500Y-80850500D01*
X104377826Y-80872174D01*
X104399500Y-80924500D01*
X104399500Y-81159311D01*
X104416803Y-81223885D01*
X104416803Y-81223886D01*
X104430199Y-81273882D01*
X104430203Y-81273891D01*
X104445761Y-81300838D01*
X104455042Y-81328178D01*
X104463669Y-81393708D01*
X104519138Y-81527623D01*
X104519139Y-81527625D01*
X104607379Y-81642621D01*
X104722375Y-81730861D01*
X104856291Y-81786330D01*
X105000000Y-81805250D01*
X105143709Y-81786330D01*
X105277625Y-81730861D01*
X105392621Y-81642621D01*
X105480861Y-81527625D01*
X105536330Y-81393709D01*
X105555250Y-81250000D01*
X105536330Y-81106291D01*
X105480861Y-80972375D01*
X105444125Y-80924500D01*
X105392623Y-80857381D01*
X105392622Y-80857380D01*
X105392619Y-80857378D01*
X105370323Y-80840269D01*
X105700000Y-80840269D01*
X105701246Y-80840088D01*
X105792499Y-80795478D01*
X105849028Y-80791968D01*
X105857501Y-80795478D01*
X105948753Y-80840088D01*
X105948752Y-80840088D01*
X105949999Y-80840269D01*
X105950000Y-80840268D01*
X105950000Y-80062500D01*
X105700000Y-80062500D01*
X105700000Y-80840269D01*
X105370323Y-80840269D01*
X105329451Y-80808906D01*
X105301133Y-80759856D01*
X105300500Y-80750198D01*
X105300500Y-79191746D01*
X105300306Y-79189069D01*
X105300442Y-79189059D01*
X105300000Y-79182945D01*
X105300000Y-78884730D01*
X105700000Y-78884730D01*
X105700000Y-79662500D01*
X105950000Y-79662500D01*
X105950000Y-79191746D01*
X106349500Y-79191746D01*
X106349500Y-81109310D01*
X106362897Y-81159306D01*
X106362897Y-81159308D01*
X106362898Y-81159308D01*
X106362898Y-81159309D01*
X106380200Y-81223885D01*
X106380202Y-81223889D01*
X106380203Y-81223891D01*
X106439509Y-81326611D01*
X106442459Y-81330455D01*
X106441653Y-81331073D01*
X106460438Y-81369164D01*
X106463670Y-81393709D01*
X106519139Y-81527625D01*
X106607379Y-81642621D01*
X106722375Y-81730861D01*
X106856291Y-81786330D01*
X107000000Y-81805250D01*
X107143709Y-81786330D01*
X107277625Y-81730861D01*
X107392621Y-81642621D01*
X107480861Y-81527625D01*
X107536330Y-81393709D01*
X107555250Y-81250000D01*
X107536330Y-81106291D01*
X107480861Y-80972375D01*
X107478307Y-80969046D01*
X107463649Y-80914338D01*
X107491969Y-80865290D01*
X107537016Y-80849999D01*
X107583211Y-80849999D01*
X107583224Y-80849998D01*
X107651250Y-80840087D01*
X107756188Y-80788786D01*
X107838785Y-80706189D01*
X107890087Y-80601249D01*
X107899999Y-80533223D01*
X107900000Y-80533212D01*
X107900000Y-80062500D01*
X107324500Y-80062500D01*
X107272174Y-80040826D01*
X107250500Y-79988500D01*
X107250500Y-79662500D01*
X107650000Y-79662500D01*
X107899999Y-79662500D01*
X107899999Y-79191789D01*
X107899998Y-79191775D01*
X107890087Y-79123749D01*
X107838786Y-79018811D01*
X107756189Y-78936214D01*
X107651248Y-78884912D01*
X107651251Y-78884912D01*
X107650000Y-78884730D01*
X107650000Y-79662500D01*
X107250500Y-79662500D01*
X107250500Y-79191746D01*
X107250306Y-79189069D01*
X107250442Y-79189059D01*
X107250000Y-79182945D01*
X107250000Y-78884730D01*
X107248748Y-78884912D01*
X107158068Y-78929243D01*
X107101540Y-78932752D01*
X107093068Y-78929243D01*
X107001394Y-78884427D01*
X106933264Y-78874500D01*
X106933260Y-78874500D01*
X106666740Y-78874500D01*
X106666735Y-78874500D01*
X106598606Y-78884427D01*
X106598604Y-78884428D01*
X106506931Y-78929243D01*
X106450402Y-78932752D01*
X106441931Y-78929243D01*
X106351251Y-78884912D01*
X106350000Y-78884730D01*
X106350000Y-79182945D01*
X106349557Y-79189059D01*
X106349694Y-79189069D01*
X106349500Y-79191746D01*
X105950000Y-79191746D01*
X105950000Y-78884730D01*
X105948748Y-78884912D01*
X105857500Y-78929521D01*
X105800972Y-78933030D01*
X105792500Y-78929521D01*
X105701251Y-78884912D01*
X105700000Y-78884730D01*
X105300000Y-78884730D01*
X105298748Y-78884912D01*
X105208068Y-78929243D01*
X105151540Y-78932752D01*
X105143068Y-78929243D01*
X105051394Y-78884427D01*
X104983264Y-78874500D01*
X104983260Y-78874500D01*
X104716740Y-78874500D01*
X104716735Y-78874500D01*
X104648599Y-78884428D01*
X104646338Y-78885127D01*
X104644794Y-78884982D01*
X104642920Y-78885256D01*
X104642853Y-78884801D01*
X104589946Y-78879860D01*
X104553796Y-78836261D01*
X104550500Y-78814423D01*
X104550500Y-78725833D01*
X104572173Y-78673508D01*
X104671559Y-78574122D01*
X104723883Y-78552449D01*
X104733539Y-78553082D01*
X104743954Y-78554453D01*
X104749998Y-78555250D01*
X104749999Y-78555250D01*
X104749999Y-78555249D01*
X104750000Y-78555250D01*
X104893709Y-78536330D01*
X105027625Y-78480861D01*
X105142621Y-78392621D01*
X105230861Y-78277625D01*
X105286330Y-78143709D01*
X105305250Y-78000000D01*
X105286330Y-77856291D01*
X105230861Y-77722375D01*
X105142621Y-77607379D01*
X105027625Y-77519139D01*
X105019728Y-77515868D01*
X104893708Y-77463669D01*
X104750000Y-77444750D01*
X104606291Y-77463669D01*
X104472376Y-77519138D01*
X104436483Y-77546680D01*
X104357379Y-77607379D01*
X104330338Y-77642620D01*
X104308708Y-77670808D01*
X104259658Y-77699126D01*
X104204951Y-77684467D01*
X104191292Y-77670808D01*
X104169663Y-77642621D01*
X104142621Y-77607379D01*
X104027625Y-77519139D01*
X104019728Y-77515868D01*
X103893708Y-77463669D01*
X103750000Y-77444750D01*
X103606291Y-77463669D01*
X103472376Y-77519138D01*
X103357379Y-77607379D01*
X103269138Y-77722376D01*
X103213669Y-77856291D01*
X103194750Y-78000000D01*
X103207975Y-78100459D01*
X103206087Y-78129266D01*
X103199500Y-78153851D01*
X103199500Y-78949167D01*
X103177826Y-79001493D01*
X103160801Y-79018517D01*
X103109427Y-79123605D01*
X103109427Y-79123606D01*
X103099500Y-79191735D01*
X99000500Y-79191735D01*
X99000500Y-78209131D01*
X101275000Y-78209131D01*
X101281241Y-78267189D01*
X101281243Y-78267195D01*
X101330230Y-78398533D01*
X101414241Y-78510758D01*
X101526466Y-78594769D01*
X101657804Y-78643756D01*
X101657810Y-78643758D01*
X101715868Y-78650000D01*
X101750000Y-78650000D01*
X102250000Y-78650000D01*
X102284132Y-78650000D01*
X102342189Y-78643758D01*
X102342195Y-78643756D01*
X102473533Y-78594769D01*
X102585758Y-78510758D01*
X102669769Y-78398533D01*
X102718756Y-78267195D01*
X102718758Y-78267189D01*
X102725000Y-78209131D01*
X102725000Y-78112500D01*
X102250000Y-78112500D01*
X102250000Y-78650000D01*
X101750000Y-78650000D01*
X101750000Y-78112500D01*
X101275000Y-78112500D01*
X101275000Y-78209131D01*
X99000500Y-78209131D01*
X99000500Y-77515868D01*
X101275000Y-77515868D01*
X101275000Y-77612500D01*
X101750000Y-77612500D01*
X102250000Y-77612500D01*
X102725000Y-77612500D01*
X102725000Y-77515868D01*
X102718758Y-77457810D01*
X102718756Y-77457804D01*
X102669769Y-77326466D01*
X102585758Y-77214241D01*
X102473533Y-77130230D01*
X102342195Y-77081243D01*
X102342189Y-77081241D01*
X102284132Y-77075000D01*
X102250000Y-77075000D01*
X102250000Y-77612500D01*
X101750000Y-77612500D01*
X101750000Y-77075000D01*
X101715868Y-77075000D01*
X101657810Y-77081241D01*
X101657804Y-77081243D01*
X101526466Y-77130230D01*
X101414241Y-77214241D01*
X101330230Y-77326466D01*
X101281243Y-77457804D01*
X101281241Y-77457810D01*
X101275000Y-77515868D01*
X99000500Y-77515868D01*
X99000500Y-76953853D01*
X109649500Y-76953853D01*
X109649500Y-78426146D01*
X109670322Y-78503853D01*
X109670322Y-78503854D01*
X109673384Y-78515283D01*
X109673386Y-78515288D01*
X109719530Y-78595212D01*
X110522826Y-79398508D01*
X110544500Y-79450834D01*
X110544500Y-80331519D01*
X110559353Y-80425304D01*
X110559354Y-80425306D01*
X110611488Y-80527623D01*
X110616950Y-80538342D01*
X110706658Y-80628050D01*
X110819696Y-80685646D01*
X110913481Y-80700500D01*
X111276518Y-80700499D01*
X111276519Y-80700499D01*
X111370304Y-80685646D01*
X111370306Y-80685645D01*
X111372419Y-80684568D01*
X111483342Y-80628050D01*
X111573050Y-80538342D01*
X111630646Y-80425304D01*
X111645500Y-80331519D01*
X111645499Y-78618482D01*
X111632488Y-78536330D01*
X111630646Y-78524695D01*
X111630645Y-78524693D01*
X111573049Y-78411657D01*
X111483343Y-78321951D01*
X111483342Y-78321950D01*
X111392874Y-78275854D01*
X111356093Y-78232788D01*
X111360536Y-78176326D01*
X111381419Y-78151216D01*
X111392621Y-78142621D01*
X111480861Y-78027625D01*
X111536330Y-77893709D01*
X111555250Y-77750000D01*
X111553083Y-77733544D01*
X111567738Y-77678838D01*
X111574115Y-77671565D01*
X111852644Y-77393036D01*
X111904969Y-77371363D01*
X111957295Y-77393037D01*
X111973335Y-77417044D01*
X111992648Y-77463670D01*
X112008867Y-77502825D01*
X112014500Y-77531143D01*
X112014500Y-78257321D01*
X111992826Y-78309647D01*
X111981104Y-78318164D01*
X111981368Y-78318528D01*
X111976658Y-78321949D01*
X111886951Y-78411656D01*
X111829353Y-78524698D01*
X111814500Y-78618480D01*
X111814500Y-80331519D01*
X111829353Y-80425304D01*
X111829354Y-80425306D01*
X111881488Y-80527623D01*
X111886950Y-80538342D01*
X111976658Y-80628050D01*
X112089696Y-80685646D01*
X112183481Y-80700500D01*
X112546518Y-80700499D01*
X112546519Y-80700499D01*
X112640304Y-80685646D01*
X112640306Y-80685645D01*
X112642419Y-80684568D01*
X112753342Y-80628050D01*
X112843050Y-80538342D01*
X112900646Y-80425304D01*
X112915500Y-80331519D01*
X112915499Y-78618482D01*
X112915499Y-78618480D01*
X113084500Y-78618480D01*
X113084500Y-80331519D01*
X113099353Y-80425304D01*
X113099354Y-80425306D01*
X113156950Y-80538342D01*
X113162826Y-80544218D01*
X113184500Y-80596544D01*
X113184500Y-81194309D01*
X113192425Y-81223885D01*
X113192480Y-81224091D01*
X113193862Y-81245152D01*
X113194750Y-81245152D01*
X113194750Y-81250000D01*
X113213669Y-81393708D01*
X113269138Y-81527623D01*
X113269139Y-81527625D01*
X113357379Y-81642621D01*
X113472375Y-81730861D01*
X113606291Y-81786330D01*
X113750000Y-81805250D01*
X113893709Y-81786330D01*
X114027625Y-81730861D01*
X114142621Y-81642621D01*
X114230861Y-81527625D01*
X114286330Y-81393709D01*
X114305250Y-81250000D01*
X114286330Y-81106291D01*
X114230861Y-80972375D01*
X114142621Y-80857379D01*
X114114450Y-80835762D01*
X114086133Y-80786712D01*
X114085500Y-80777055D01*
X114085500Y-80596544D01*
X114107174Y-80544218D01*
X114113050Y-80538342D01*
X114170646Y-80425304D01*
X114185500Y-80331519D01*
X114185499Y-78618482D01*
X114172488Y-78536330D01*
X114170646Y-78524695D01*
X114170645Y-78524693D01*
X114113049Y-78411657D01*
X114023343Y-78321951D01*
X114023342Y-78321950D01*
X113910304Y-78264354D01*
X113910302Y-78264353D01*
X113910301Y-78264353D01*
X113816519Y-78249500D01*
X113453480Y-78249500D01*
X113359695Y-78264353D01*
X113359693Y-78264354D01*
X113246657Y-78321950D01*
X113156951Y-78411656D01*
X113099353Y-78524698D01*
X113084500Y-78618480D01*
X112915499Y-78618480D01*
X112902488Y-78536330D01*
X112900646Y-78524695D01*
X112900645Y-78524693D01*
X112843049Y-78411657D01*
X112753341Y-78321949D01*
X112748632Y-78318528D01*
X112750117Y-78316483D01*
X112719119Y-78280178D01*
X112715500Y-78257321D01*
X112715500Y-78095000D01*
X114349750Y-78095000D01*
X114368669Y-78238708D01*
X114421262Y-78365680D01*
X114421262Y-78422317D01*
X114418830Y-78427593D01*
X114369353Y-78524698D01*
X114354500Y-78618480D01*
X114354500Y-80331519D01*
X114369353Y-80425304D01*
X114369354Y-80425306D01*
X114421488Y-80527623D01*
X114426950Y-80538342D01*
X114516658Y-80628050D01*
X114629696Y-80685646D01*
X114723481Y-80700500D01*
X115086518Y-80700499D01*
X115086519Y-80700499D01*
X115180304Y-80685646D01*
X115180306Y-80685645D01*
X115182419Y-80684568D01*
X115293342Y-80628050D01*
X115383050Y-80538342D01*
X115440646Y-80425304D01*
X115455500Y-80331519D01*
X115455500Y-80250000D01*
X115694750Y-80250000D01*
X115713669Y-80393708D01*
X115769138Y-80527623D01*
X115769139Y-80527625D01*
X115857379Y-80642621D01*
X115972375Y-80730861D01*
X116106291Y-80786330D01*
X116250000Y-80805250D01*
X116393709Y-80786330D01*
X116527625Y-80730861D01*
X116642621Y-80642621D01*
X116730861Y-80527625D01*
X116786330Y-80393709D01*
X116789560Y-80369169D01*
X116810599Y-80326502D01*
X116964929Y-80172174D01*
X117017255Y-80150500D01*
X117284175Y-80150500D01*
X117289317Y-80149946D01*
X117342299Y-80144251D01*
X117444074Y-80106291D01*
X117473776Y-80095213D01*
X117473776Y-80095212D01*
X117473778Y-80095212D01*
X117586116Y-80011116D01*
X117670212Y-79898778D01*
X117719251Y-79767299D01*
X117725500Y-79709174D01*
X117725500Y-79115826D01*
X117719251Y-79057701D01*
X117690203Y-78979819D01*
X117670213Y-78926223D01*
X117670212Y-78926222D01*
X117639448Y-78885127D01*
X117586116Y-78813884D01*
X117473778Y-78729788D01*
X117473777Y-78729787D01*
X117473776Y-78729786D01*
X117342303Y-78680750D01*
X117342300Y-78680749D01*
X117342299Y-78680749D01*
X117313236Y-78677624D01*
X117284175Y-78674500D01*
X117284174Y-78674500D01*
X116715826Y-78674500D01*
X116715825Y-78674500D01*
X116657701Y-78680749D01*
X116657696Y-78680750D01*
X116526223Y-78729786D01*
X116526222Y-78729787D01*
X116413884Y-78813884D01*
X116329787Y-78926222D01*
X116329786Y-78926223D01*
X116280750Y-79057696D01*
X116280749Y-79057701D01*
X116274500Y-79115825D01*
X116274500Y-79557744D01*
X116252826Y-79610070D01*
X116173498Y-79689397D01*
X116130834Y-79710438D01*
X116106290Y-79713670D01*
X115972376Y-79769138D01*
X115857379Y-79857379D01*
X115769138Y-79972376D01*
X115713669Y-80106291D01*
X115694750Y-80250000D01*
X115455500Y-80250000D01*
X115455499Y-78618482D01*
X115442488Y-78536330D01*
X115440646Y-78524695D01*
X115440645Y-78524694D01*
X115418311Y-78480861D01*
X115391169Y-78427594D01*
X115386726Y-78371132D01*
X115388737Y-78365681D01*
X115441330Y-78238709D01*
X115460250Y-78095000D01*
X115458083Y-78078544D01*
X115472738Y-78023838D01*
X115479115Y-78016565D01*
X115873508Y-77622174D01*
X115925834Y-77600500D01*
X116074166Y-77600500D01*
X116126492Y-77622174D01*
X116252826Y-77748508D01*
X116274500Y-77800834D01*
X116274500Y-77884174D01*
X116280749Y-77942298D01*
X116280750Y-77942303D01*
X116329786Y-78073776D01*
X116329787Y-78073777D01*
X116329788Y-78073778D01*
X116413884Y-78186116D01*
X116509002Y-78257321D01*
X116526222Y-78270212D01*
X116526223Y-78270213D01*
X116613240Y-78302668D01*
X116657701Y-78319251D01*
X116710182Y-78324893D01*
X116715825Y-78325500D01*
X116715826Y-78325500D01*
X117284175Y-78325500D01*
X117289317Y-78324946D01*
X117342299Y-78319251D01*
X117453903Y-78277625D01*
X117473776Y-78270213D01*
X117473776Y-78270212D01*
X117473778Y-78270212D01*
X117586116Y-78186116D01*
X117670212Y-78073778D01*
X117719251Y-77942299D01*
X117725500Y-77884174D01*
X117725500Y-77290826D01*
X117719251Y-77232701D01*
X117698056Y-77175875D01*
X117670213Y-77101223D01*
X117670212Y-77101222D01*
X117650582Y-77075000D01*
X117586116Y-76988884D01*
X117493097Y-76919250D01*
X117473777Y-76904787D01*
X117473776Y-76904786D01*
X117342303Y-76855750D01*
X117342300Y-76855749D01*
X117342299Y-76855749D01*
X117313236Y-76852624D01*
X117284175Y-76849500D01*
X117284174Y-76849500D01*
X116715826Y-76849500D01*
X116715825Y-76849500D01*
X116657701Y-76855749D01*
X116657696Y-76855750D01*
X116526225Y-76904786D01*
X116489904Y-76931975D01*
X116435025Y-76945981D01*
X116408559Y-76936821D01*
X116385288Y-76923386D01*
X116379929Y-76921950D01*
X116369856Y-76919251D01*
X116296146Y-76899500D01*
X116296144Y-76899500D01*
X115703856Y-76899500D01*
X115703854Y-76899500D01*
X115630144Y-76919251D01*
X115620071Y-76921950D01*
X115616672Y-76922860D01*
X115614711Y-76923386D01*
X115614710Y-76923386D01*
X115534788Y-76969529D01*
X114983441Y-77520875D01*
X114931115Y-77542549D01*
X114921458Y-77541916D01*
X114905002Y-77539750D01*
X114905001Y-77539750D01*
X114905000Y-77539750D01*
X114888548Y-77541916D01*
X114761291Y-77558669D01*
X114627376Y-77614138D01*
X114512379Y-77702379D01*
X114424138Y-77817376D01*
X114368669Y-77951291D01*
X114349750Y-78095000D01*
X112715500Y-78095000D01*
X112715500Y-77806038D01*
X112737174Y-77753712D01*
X112761180Y-77737672D01*
X112777625Y-77730861D01*
X112892621Y-77642621D01*
X112980861Y-77527625D01*
X113036330Y-77393709D01*
X113055250Y-77250000D01*
X113036330Y-77106291D01*
X112980861Y-76972375D01*
X112892621Y-76857379D01*
X112777625Y-76769139D01*
X112777623Y-76769138D01*
X112643708Y-76713669D01*
X112500000Y-76694750D01*
X112356291Y-76713669D01*
X112222376Y-76769138D01*
X112222370Y-76769141D01*
X112219543Y-76771311D01*
X112164835Y-76785965D01*
X112115788Y-76757642D01*
X112100500Y-76712599D01*
X112100500Y-75785645D01*
X112115000Y-75750638D01*
X112115000Y-74775000D01*
X111871334Y-74775000D01*
X111819008Y-74753326D01*
X111667173Y-74601491D01*
X111645499Y-74549165D01*
X111645499Y-73668518D01*
X111815000Y-73668518D01*
X111815000Y-74275000D01*
X112115000Y-74275000D01*
X112115000Y-73310852D01*
X112114998Y-73310851D01*
X112089852Y-73314834D01*
X112089851Y-73314835D01*
X111976955Y-73372358D01*
X111887360Y-73461953D01*
X111829835Y-73574850D01*
X111829835Y-73574851D01*
X111815000Y-73668518D01*
X111645499Y-73668518D01*
X111645499Y-73668480D01*
X111630646Y-73574695D01*
X111630645Y-73574693D01*
X111575639Y-73466740D01*
X111573050Y-73461658D01*
X111483342Y-73371950D01*
X111483341Y-73371949D01*
X111478632Y-73368528D01*
X111480117Y-73366483D01*
X111449119Y-73330178D01*
X111445500Y-73307321D01*
X111445500Y-72877321D01*
X111467174Y-72824995D01*
X111509839Y-72803954D01*
X111643709Y-72786330D01*
X111777625Y-72730861D01*
X111892621Y-72642621D01*
X111980861Y-72527625D01*
X112036330Y-72393709D01*
X112055250Y-72250000D01*
X112050197Y-72211624D01*
X112059480Y-72164963D01*
X112076614Y-72135288D01*
X112082127Y-72114712D01*
X112095906Y-72063286D01*
X112100500Y-72046145D01*
X112100500Y-71624500D01*
X112122174Y-71572174D01*
X112174500Y-71550500D01*
X112424672Y-71550500D01*
X112424674Y-71550500D01*
X112485564Y-71538388D01*
X112514436Y-71538388D01*
X112575326Y-71550500D01*
X112744659Y-71550500D01*
X112796985Y-71572174D01*
X112818659Y-71624500D01*
X112811972Y-71655241D01*
X112784660Y-71715044D01*
X112784655Y-71715057D01*
X112764982Y-71782057D01*
X112764975Y-71782087D01*
X112744500Y-71924494D01*
X112744500Y-72929188D01*
X112760675Y-73056037D01*
X112760676Y-73056044D01*
X112776292Y-73116280D01*
X112776294Y-73116285D01*
X112786691Y-73142279D01*
X112823783Y-73235018D01*
X112843059Y-73260367D01*
X112857478Y-73315138D01*
X112828945Y-73364063D01*
X112774174Y-73378482D01*
X112750559Y-73371093D01*
X112640145Y-73314834D01*
X112615001Y-73310851D01*
X112615000Y-73310852D01*
X112615000Y-75739147D01*
X112640149Y-75735164D01*
X112640150Y-75735164D01*
X112753046Y-75677639D01*
X112842639Y-75588046D01*
X112900164Y-75475149D01*
X112900164Y-75475148D01*
X112914999Y-75381481D01*
X112914999Y-75117489D01*
X112936673Y-75065163D01*
X112988999Y-75043489D01*
X113041325Y-75065163D01*
X113044925Y-75069030D01*
X113059928Y-75086345D01*
X113061798Y-75088215D01*
X113060802Y-75089210D01*
X113084309Y-75136120D01*
X113084500Y-75141431D01*
X113084500Y-75381519D01*
X113099353Y-75475304D01*
X113099354Y-75475306D01*
X113137039Y-75549265D01*
X113156950Y-75588342D01*
X113246658Y-75678050D01*
X113359696Y-75735646D01*
X113453481Y-75750500D01*
X113816518Y-75750499D01*
X113816519Y-75750499D01*
X113910304Y-75735646D01*
X113910306Y-75735645D01*
X113916094Y-75732696D01*
X114023342Y-75678050D01*
X114113050Y-75588342D01*
X114170646Y-75475304D01*
X114185500Y-75381519D01*
X114185500Y-75354500D01*
X114207174Y-75302174D01*
X114259500Y-75280500D01*
X114280501Y-75280500D01*
X114332827Y-75302174D01*
X114354501Y-75354500D01*
X114354501Y-75381519D01*
X114369353Y-75475304D01*
X114369354Y-75475306D01*
X114407039Y-75549265D01*
X114426950Y-75588342D01*
X114516658Y-75678050D01*
X114629696Y-75735646D01*
X114723481Y-75750500D01*
X115086518Y-75750499D01*
X115100104Y-75748347D01*
X115155177Y-75761568D01*
X115182683Y-75800587D01*
X115208203Y-75887500D01*
X115208204Y-75887502D01*
X115208205Y-75887504D01*
X115285993Y-76008543D01*
X115302526Y-76027623D01*
X115331742Y-76061341D01*
X115331747Y-76061346D01*
X115331748Y-76061347D01*
X115440482Y-76155567D01*
X115571359Y-76215338D01*
X115571364Y-76215339D01*
X115571376Y-76215344D01*
X115638376Y-76235017D01*
X115638383Y-76235018D01*
X115638398Y-76235023D01*
X115638402Y-76235024D01*
X115780818Y-76255500D01*
X115780824Y-76255500D01*
X115900502Y-76255500D01*
X115913446Y-76254108D01*
X116007955Y-76243947D01*
X116059467Y-76232741D01*
X116162006Y-76198613D01*
X116242939Y-76146599D01*
X116298675Y-76136543D01*
X116342186Y-76164505D01*
X116414241Y-76260758D01*
X116526466Y-76344769D01*
X116657804Y-76393756D01*
X116657810Y-76393758D01*
X116715868Y-76400000D01*
X116750000Y-76400000D01*
X117250000Y-76400000D01*
X117284132Y-76400000D01*
X117342189Y-76393758D01*
X117342195Y-76393756D01*
X117473533Y-76344769D01*
X117585758Y-76260758D01*
X117669769Y-76148533D01*
X117718756Y-76017195D01*
X117718758Y-76017189D01*
X117725000Y-75959131D01*
X117725000Y-75862500D01*
X117250000Y-75862500D01*
X117250000Y-76400000D01*
X116750000Y-76400000D01*
X116750000Y-75362500D01*
X117250000Y-75362500D01*
X117725000Y-75362500D01*
X117725000Y-75265868D01*
X117718758Y-75207810D01*
X117718756Y-75207804D01*
X117669769Y-75076466D01*
X117585758Y-74964241D01*
X117473533Y-74880230D01*
X117342195Y-74831243D01*
X117342189Y-74831241D01*
X117284132Y-74825000D01*
X117250000Y-74825000D01*
X117250000Y-75362500D01*
X116750000Y-75362500D01*
X116750000Y-74821583D01*
X116730742Y-74775090D01*
X116730931Y-74769811D01*
X116731679Y-74759352D01*
X116731679Y-74759351D01*
X116731352Y-74754777D01*
X116749240Y-74701038D01*
X116799887Y-74675688D01*
X116805164Y-74675500D01*
X117284175Y-74675500D01*
X117289317Y-74674946D01*
X117342299Y-74669251D01*
X117429951Y-74636558D01*
X117473776Y-74620213D01*
X117473776Y-74620212D01*
X117473778Y-74620212D01*
X117586116Y-74536116D01*
X117670212Y-74423778D01*
X117719251Y-74292299D01*
X117725500Y-74234174D01*
X117725500Y-74198990D01*
X117728498Y-74178140D01*
X117735023Y-74155920D01*
X117735024Y-74155916D01*
X117755500Y-74013500D01*
X117755500Y-73265739D01*
X117777174Y-73213413D01*
X117781041Y-73209813D01*
X117783740Y-73207475D01*
X117811347Y-73183553D01*
X117905567Y-73074819D01*
X117965338Y-72943942D01*
X117965340Y-72943931D01*
X117965344Y-72943924D01*
X117985017Y-72876924D01*
X117985017Y-72876921D01*
X117985023Y-72876903D01*
X117985024Y-72876899D01*
X118005500Y-72734483D01*
X118005500Y-72551362D01*
X118002603Y-72497322D01*
X117999769Y-72470964D01*
X117992142Y-72423899D01*
X117991114Y-72417552D01*
X117940831Y-72282741D01*
X117940832Y-72282741D01*
X117907350Y-72221424D01*
X117881371Y-72186720D01*
X117821123Y-72106239D01*
X116777174Y-71062290D01*
X116755500Y-71009964D01*
X116755500Y-70301378D01*
X116755499Y-70301346D01*
X116752603Y-70247321D01*
X116752261Y-70244145D01*
X116749769Y-70220964D01*
X116741114Y-70167552D01*
X116690832Y-70032743D01*
X116690831Y-70032741D01*
X116690832Y-70032741D01*
X116657350Y-69971424D01*
X116623334Y-69925984D01*
X116571123Y-69856239D01*
X116393761Y-69678877D01*
X116389366Y-69674929D01*
X116353502Y-69642713D01*
X116353479Y-69642694D01*
X116332861Y-69626080D01*
X116332848Y-69626070D01*
X116288977Y-69594435D01*
X116288976Y-69594434D01*
X116288974Y-69594433D01*
X116158097Y-69534662D01*
X116158095Y-69534661D01*
X116158092Y-69534660D01*
X116158079Y-69534655D01*
X116091079Y-69514982D01*
X116091058Y-69514977D01*
X116091054Y-69514976D01*
X116091052Y-69514975D01*
X116091049Y-69514975D01*
X115948642Y-69494500D01*
X115948638Y-69494500D01*
X115024000Y-69494500D01*
X115023999Y-69494500D01*
X114916545Y-69506052D01*
X114865027Y-69517260D01*
X114865019Y-69517263D01*
X114762501Y-69551384D01*
X114762496Y-69551386D01*
X114762496Y-69551387D01*
X114741621Y-69564802D01*
X114641459Y-69629172D01*
X114588658Y-69674924D01*
X114588653Y-69674929D01*
X114494431Y-69783665D01*
X114484121Y-69806242D01*
X114442668Y-69844835D01*
X114416809Y-69849500D01*
X114075326Y-69849500D01*
X114014436Y-69861611D01*
X113985564Y-69861611D01*
X113924674Y-69849500D01*
X113575326Y-69849500D01*
X113514436Y-69861611D01*
X113485564Y-69861611D01*
X113424674Y-69849500D01*
X113075326Y-69849500D01*
X113014436Y-69861611D01*
X112985564Y-69861611D01*
X112924674Y-69849500D01*
X112575326Y-69849500D01*
X112514436Y-69861611D01*
X112485564Y-69861611D01*
X112424674Y-69849500D01*
X112075326Y-69849500D01*
X112014436Y-69861611D01*
X111985564Y-69861611D01*
X111924674Y-69849500D01*
X111575326Y-69849500D01*
X111514436Y-69861611D01*
X111485564Y-69861611D01*
X111424674Y-69849500D01*
X111075326Y-69849500D01*
X111014436Y-69861611D01*
X110985564Y-69861611D01*
X110924674Y-69849500D01*
X110575326Y-69849500D01*
X110514436Y-69861611D01*
X110485564Y-69861611D01*
X110424674Y-69849500D01*
X110075326Y-69849500D01*
X110013154Y-69861866D01*
X109984282Y-69861866D01*
X109924624Y-69850000D01*
X109900000Y-69850000D01*
X109900000Y-69925984D01*
X109887529Y-69967095D01*
X109864034Y-70002258D01*
X109864034Y-70002260D01*
X109849500Y-70075326D01*
X109849500Y-71324674D01*
X109864034Y-71397740D01*
X109887029Y-71432154D01*
X109899500Y-71473266D01*
X109899500Y-72046146D01*
X109917872Y-72114710D01*
X109917872Y-72114713D01*
X109917873Y-72114713D01*
X109923384Y-72135284D01*
X109923385Y-72135286D01*
X109923386Y-72135288D01*
X109940518Y-72164963D01*
X109940521Y-72164967D01*
X109949801Y-72211623D01*
X109944750Y-72249998D01*
X109944750Y-72250000D01*
X109963669Y-72393708D01*
X110006587Y-72497321D01*
X110019139Y-72527625D01*
X110107379Y-72642621D01*
X110222375Y-72730861D01*
X110356291Y-72786330D01*
X110500000Y-72805250D01*
X110516456Y-72803083D01*
X110571163Y-72817741D01*
X110578442Y-72824124D01*
X110722826Y-72968508D01*
X110744500Y-73020834D01*
X110744500Y-73307321D01*
X110722826Y-73359647D01*
X110711104Y-73368164D01*
X110711368Y-73368528D01*
X110706658Y-73371949D01*
X110616951Y-73461656D01*
X110559353Y-73574698D01*
X110544500Y-73668480D01*
X110544500Y-75381519D01*
X110559353Y-75475304D01*
X110559354Y-75475306D01*
X110597762Y-75550684D01*
X110602206Y-75607147D01*
X110590536Y-75629328D01*
X110519140Y-75722372D01*
X110519138Y-75722376D01*
X110463669Y-75856291D01*
X110444750Y-76000000D01*
X110444750Y-76000002D01*
X110446916Y-76016458D01*
X110432256Y-76071165D01*
X110425875Y-76078441D01*
X109719530Y-76784787D01*
X109685051Y-76844507D01*
X109673387Y-76864709D01*
X109673384Y-76864715D01*
X109649500Y-76953853D01*
X99000500Y-76953853D01*
X99000500Y-67530653D01*
X101244500Y-67530653D01*
X101244500Y-75308539D01*
X101248558Y-75353874D01*
X101248561Y-75353899D01*
X101253223Y-75379734D01*
X101253227Y-75379755D01*
X101265273Y-75423664D01*
X101265274Y-75423666D01*
X101297075Y-75475149D01*
X101317664Y-75508481D01*
X101320866Y-75511920D01*
X101340657Y-75564987D01*
X101331653Y-75597807D01*
X101329785Y-75601227D01*
X101280750Y-75732696D01*
X101280749Y-75732701D01*
X101274500Y-75790825D01*
X101274500Y-76484174D01*
X101280749Y-76542298D01*
X101280750Y-76542303D01*
X101329786Y-76673776D01*
X101329787Y-76673777D01*
X101329788Y-76673778D01*
X101413884Y-76786116D01*
X101505658Y-76854818D01*
X101526222Y-76870212D01*
X101526223Y-76870213D01*
X101618921Y-76904787D01*
X101657701Y-76919251D01*
X101710182Y-76924893D01*
X101715825Y-76925500D01*
X101715826Y-76925500D01*
X102284175Y-76925500D01*
X102289317Y-76924946D01*
X102342299Y-76919251D01*
X102429951Y-76886558D01*
X102473776Y-76870213D01*
X102473776Y-76870212D01*
X102473778Y-76870212D01*
X102586116Y-76786116D01*
X102670212Y-76673778D01*
X102715021Y-76553639D01*
X102753614Y-76512187D01*
X102784355Y-76505500D01*
X102925998Y-76505500D01*
X102926000Y-76505500D01*
X103023775Y-76486051D01*
X103072757Y-76465762D01*
X103075496Y-76464781D01*
X103076101Y-76464377D01*
X103076102Y-76464377D01*
X103158992Y-76408991D01*
X103214377Y-76326101D01*
X103236051Y-76273775D01*
X103255500Y-76176000D01*
X103255500Y-75187120D01*
X103277174Y-75134794D01*
X103329500Y-75113120D01*
X103342862Y-75115139D01*
X103342920Y-75114744D01*
X103348605Y-75115572D01*
X103348607Y-75115573D01*
X103416740Y-75125500D01*
X103416746Y-75125500D01*
X103683254Y-75125500D01*
X103683260Y-75125500D01*
X103691069Y-75124362D01*
X103745974Y-75138262D01*
X103774968Y-75186915D01*
X103761068Y-75241820D01*
X103730064Y-75265954D01*
X103722375Y-75269139D01*
X103607379Y-75357379D01*
X103519138Y-75472376D01*
X103463669Y-75606291D01*
X103444750Y-75750000D01*
X103463669Y-75893708D01*
X103514816Y-76017189D01*
X103519139Y-76027625D01*
X103607379Y-76142621D01*
X103722375Y-76230861D01*
X103856291Y-76286330D01*
X104000000Y-76305250D01*
X104143709Y-76286330D01*
X104277625Y-76230861D01*
X104392621Y-76142621D01*
X104480861Y-76027625D01*
X104516501Y-75941580D01*
X104556546Y-75901534D01*
X104613183Y-75901533D01*
X104643572Y-75924850D01*
X104656644Y-75941886D01*
X104771640Y-76030126D01*
X104905556Y-76085595D01*
X105049265Y-76104515D01*
X105192974Y-76085595D01*
X105326890Y-76030126D01*
X105441886Y-75941886D01*
X105530126Y-75826890D01*
X105585595Y-75692974D01*
X105604515Y-75549265D01*
X105602348Y-75532809D01*
X105617003Y-75478103D01*
X105623379Y-75470831D01*
X105780470Y-75313742D01*
X105826614Y-75233818D01*
X105837082Y-75194750D01*
X105845633Y-75162835D01*
X105880111Y-75117903D01*
X105936264Y-75110511D01*
X105947256Y-75114626D01*
X105948752Y-75115088D01*
X105949999Y-75115269D01*
X105950000Y-75115268D01*
X105950000Y-74817056D01*
X105950443Y-74810944D01*
X105950306Y-74810935D01*
X105950500Y-74808256D01*
X105950500Y-73466746D01*
X105950499Y-73466737D01*
X105950499Y-73466734D01*
X105950306Y-73464069D01*
X105950442Y-73464059D01*
X105950000Y-73457945D01*
X105950000Y-73159730D01*
X105948748Y-73159912D01*
X105858068Y-73204243D01*
X105801540Y-73207752D01*
X105793068Y-73204243D01*
X105701394Y-73159427D01*
X105633264Y-73149500D01*
X105633260Y-73149500D01*
X105366740Y-73149500D01*
X105366735Y-73149500D01*
X105298606Y-73159427D01*
X105298605Y-73159427D01*
X105207500Y-73203966D01*
X105150972Y-73207475D01*
X105142500Y-73203966D01*
X105051394Y-73159427D01*
X104983264Y-73149500D01*
X104983260Y-73149500D01*
X104829500Y-73149500D01*
X104777174Y-73127826D01*
X104755500Y-73075500D01*
X104755500Y-72574001D01*
X104740247Y-72497322D01*
X104736051Y-72476225D01*
X104715764Y-72427249D01*
X104714782Y-72424504D01*
X104658991Y-72341008D01*
X104658990Y-72341007D01*
X104576100Y-72285622D01*
X104523779Y-72263950D01*
X104523769Y-72263947D01*
X104453640Y-72249998D01*
X104426000Y-72244500D01*
X104425998Y-72244500D01*
X103829500Y-72244500D01*
X103777174Y-72222826D01*
X103755500Y-72170500D01*
X103755500Y-71324622D01*
X104350000Y-71324622D01*
X104364505Y-71397545D01*
X104419759Y-71480239D01*
X104419760Y-71480240D01*
X104502454Y-71535494D01*
X104575378Y-71550000D01*
X104600000Y-71550000D01*
X104900000Y-71550000D01*
X104924622Y-71550000D01*
X104985563Y-71537878D01*
X105014437Y-71537878D01*
X105075378Y-71550000D01*
X105100000Y-71550000D01*
X105100000Y-70850000D01*
X104900000Y-70850000D01*
X104900000Y-71550000D01*
X104600000Y-71550000D01*
X104600000Y-70850000D01*
X104350000Y-70850000D01*
X104350000Y-71324622D01*
X103755500Y-71324622D01*
X103755500Y-70075377D01*
X104350000Y-70075377D01*
X104350000Y-70550000D01*
X104600000Y-70550000D01*
X104900000Y-70550000D01*
X105100000Y-70550000D01*
X105100000Y-70075327D01*
X105349500Y-70075327D01*
X105349500Y-71324672D01*
X105364033Y-71397738D01*
X105364033Y-71397739D01*
X105364034Y-71397740D01*
X105387530Y-71432905D01*
X105400000Y-71474014D01*
X105400000Y-71550000D01*
X105424622Y-71550000D01*
X105484281Y-71538133D01*
X105513154Y-71538133D01*
X105575326Y-71550500D01*
X105575328Y-71550500D01*
X105924672Y-71550500D01*
X105924674Y-71550500D01*
X105985564Y-71538388D01*
X106014436Y-71538388D01*
X106075326Y-71550500D01*
X106075328Y-71550500D01*
X106424672Y-71550500D01*
X106424674Y-71550500D01*
X106485564Y-71538388D01*
X106514436Y-71538388D01*
X106575326Y-71550500D01*
X106825500Y-71550500D01*
X106877826Y-71572174D01*
X106899500Y-71624500D01*
X106899500Y-72046146D01*
X106917872Y-72114710D01*
X106917872Y-72114713D01*
X106917873Y-72114713D01*
X106923384Y-72135284D01*
X106923385Y-72135286D01*
X106923386Y-72135288D01*
X106940518Y-72164963D01*
X106940521Y-72164967D01*
X106949801Y-72211623D01*
X106944750Y-72249998D01*
X106944750Y-72250002D01*
X106946916Y-72266458D01*
X106932256Y-72321165D01*
X106925875Y-72328441D01*
X106519530Y-72734787D01*
X106478849Y-72805247D01*
X106478850Y-72805248D01*
X106473386Y-72814712D01*
X106473384Y-72814715D01*
X106449500Y-72903853D01*
X106449500Y-73089953D01*
X106427826Y-73142279D01*
X106375500Y-73163953D01*
X106353655Y-73160655D01*
X106351253Y-73159913D01*
X106350000Y-73159730D01*
X106350000Y-73457945D01*
X106349557Y-73464059D01*
X106349694Y-73464069D01*
X106349500Y-73466734D01*
X106349501Y-73466737D01*
X106349500Y-73466746D01*
X106349500Y-74808256D01*
X106349694Y-74810935D01*
X106349556Y-74810944D01*
X106350000Y-74817056D01*
X106350000Y-75115269D01*
X106351245Y-75115088D01*
X106353671Y-75114340D01*
X106355337Y-75114495D01*
X106356952Y-75114262D01*
X106357008Y-75114652D01*
X106410062Y-75119614D01*
X106446207Y-75163218D01*
X106449500Y-75185047D01*
X106449500Y-75596144D01*
X106456087Y-75620730D01*
X106457975Y-75649539D01*
X106444750Y-75749999D01*
X106463669Y-75893708D01*
X106514816Y-76017189D01*
X106519139Y-76027625D01*
X106607379Y-76142621D01*
X106722375Y-76230861D01*
X106856291Y-76286330D01*
X107000000Y-76305250D01*
X107143709Y-76286330D01*
X107277625Y-76230861D01*
X107392621Y-76142621D01*
X107441293Y-76079190D01*
X107490341Y-76050873D01*
X107545049Y-76065532D01*
X107558704Y-76079187D01*
X107607379Y-76142621D01*
X107722375Y-76230861D01*
X107856291Y-76286330D01*
X108000000Y-76305250D01*
X108143709Y-76286330D01*
X108277625Y-76230861D01*
X108392621Y-76142621D01*
X108480861Y-76027625D01*
X108536330Y-75893709D01*
X108555250Y-75750000D01*
X108536330Y-75606291D01*
X108480861Y-75472375D01*
X108392621Y-75357379D01*
X108277625Y-75269139D01*
X108143709Y-75213670D01*
X108141247Y-75213010D01*
X108140229Y-75212228D01*
X108139228Y-75211814D01*
X108139339Y-75211545D01*
X108096319Y-75178524D01*
X108088933Y-75160690D01*
X108076614Y-75114712D01*
X108076612Y-75114709D01*
X108076612Y-75114707D01*
X108074250Y-75110617D01*
X108074248Y-75110614D01*
X108036759Y-75045681D01*
X108030470Y-75034788D01*
X107914474Y-74918792D01*
X107892800Y-74866466D01*
X107893572Y-74855809D01*
X107900500Y-74808260D01*
X107900500Y-73466740D01*
X107890573Y-73398607D01*
X107890571Y-73398603D01*
X107890393Y-73397381D01*
X107904296Y-73342477D01*
X107911281Y-73334399D01*
X108421557Y-72824122D01*
X108473882Y-72802449D01*
X108483539Y-72803082D01*
X108493080Y-72804338D01*
X108499998Y-72805250D01*
X108499999Y-72805250D01*
X108499999Y-72805249D01*
X108500000Y-72805250D01*
X108643709Y-72786330D01*
X108777625Y-72730861D01*
X108892621Y-72642621D01*
X108980861Y-72527625D01*
X109036330Y-72393709D01*
X109055250Y-72250000D01*
X109050197Y-72211624D01*
X109059480Y-72164963D01*
X109076614Y-72135288D01*
X109082127Y-72114712D01*
X109095906Y-72063286D01*
X109100500Y-72046145D01*
X109100500Y-71550000D01*
X109400000Y-71550000D01*
X109424622Y-71550000D01*
X109485563Y-71537878D01*
X109514437Y-71537878D01*
X109575378Y-71550000D01*
X109600000Y-71550000D01*
X109600000Y-70850000D01*
X109400000Y-70850000D01*
X109400000Y-71550000D01*
X109100500Y-71550000D01*
X109100500Y-71473266D01*
X109112971Y-71432154D01*
X109135966Y-71397740D01*
X109150500Y-71324674D01*
X109150500Y-70550000D01*
X109400000Y-70550000D01*
X109600000Y-70550000D01*
X109600000Y-69850000D01*
X109575376Y-69850000D01*
X109514436Y-69862121D01*
X109485564Y-69862121D01*
X109424624Y-69850000D01*
X109400000Y-69850000D01*
X109400000Y-70550000D01*
X109150500Y-70550000D01*
X109150500Y-70075326D01*
X109135966Y-70002260D01*
X109135965Y-70002258D01*
X109112471Y-69967095D01*
X109100000Y-69925984D01*
X109100000Y-69850000D01*
X109075376Y-69850000D01*
X109015717Y-69861866D01*
X108986845Y-69861866D01*
X108924674Y-69849500D01*
X108575326Y-69849500D01*
X108514436Y-69861611D01*
X108485564Y-69861611D01*
X108424674Y-69849500D01*
X108075326Y-69849500D01*
X108014436Y-69861611D01*
X107985564Y-69861611D01*
X107924674Y-69849500D01*
X107575326Y-69849500D01*
X107514436Y-69861611D01*
X107485564Y-69861611D01*
X107424674Y-69849500D01*
X107075326Y-69849500D01*
X107014436Y-69861611D01*
X106985564Y-69861611D01*
X106924674Y-69849500D01*
X106575326Y-69849500D01*
X106514436Y-69861611D01*
X106485564Y-69861611D01*
X106424674Y-69849500D01*
X106075326Y-69849500D01*
X106014436Y-69861611D01*
X105985564Y-69861611D01*
X105924674Y-69849500D01*
X105575326Y-69849500D01*
X105513154Y-69861866D01*
X105484282Y-69861866D01*
X105424624Y-69850000D01*
X105400000Y-69850000D01*
X105400000Y-69925984D01*
X105387529Y-69967095D01*
X105364034Y-70002258D01*
X105349500Y-70075327D01*
X105100000Y-70075327D01*
X105100000Y-69850000D01*
X105075376Y-69850000D01*
X105014436Y-69862121D01*
X104985564Y-69862121D01*
X104924624Y-69850000D01*
X104900000Y-69850000D01*
X104900000Y-70550000D01*
X104600000Y-70550000D01*
X104600000Y-69850000D01*
X104575378Y-69850000D01*
X104502454Y-69864505D01*
X104419760Y-69919759D01*
X104419759Y-69919760D01*
X104364505Y-70002454D01*
X104350000Y-70075377D01*
X103755500Y-70075377D01*
X103755500Y-69136484D01*
X103777174Y-69084158D01*
X104334158Y-68527174D01*
X104386484Y-68505500D01*
X104429867Y-68505500D01*
X104429878Y-68505500D01*
X104454923Y-68504270D01*
X104469360Y-68502848D01*
X104494161Y-68499169D01*
X104586264Y-68461018D01*
X104627305Y-68433594D01*
X104631618Y-68431289D01*
X104633352Y-68429554D01*
X104633356Y-68429552D01*
X104633357Y-68429552D01*
X104703848Y-68359059D01*
X104741998Y-68266956D01*
X104753047Y-68211407D01*
X104753047Y-68211406D01*
X104753314Y-68210064D01*
X104784779Y-68162972D01*
X104825892Y-68150500D01*
X104924672Y-68150500D01*
X104924674Y-68150500D01*
X104985564Y-68138388D01*
X105014436Y-68138388D01*
X105075326Y-68150500D01*
X105075328Y-68150500D01*
X105424672Y-68150500D01*
X105424674Y-68150500D01*
X105485564Y-68138388D01*
X105514436Y-68138388D01*
X105575326Y-68150500D01*
X105575328Y-68150500D01*
X105924672Y-68150500D01*
X105924674Y-68150500D01*
X105985564Y-68138388D01*
X106014436Y-68138388D01*
X106075326Y-68150500D01*
X106075328Y-68150500D01*
X106424672Y-68150500D01*
X106424674Y-68150500D01*
X106485564Y-68138388D01*
X106514436Y-68138388D01*
X106575326Y-68150500D01*
X106575328Y-68150500D01*
X106924672Y-68150500D01*
X106924674Y-68150500D01*
X106985564Y-68138388D01*
X107014436Y-68138388D01*
X107075326Y-68150500D01*
X107075328Y-68150500D01*
X107424672Y-68150500D01*
X107424674Y-68150500D01*
X107485564Y-68138388D01*
X107514436Y-68138388D01*
X107575326Y-68150500D01*
X107575328Y-68150500D01*
X107924672Y-68150500D01*
X107924674Y-68150500D01*
X107985564Y-68138388D01*
X108014436Y-68138388D01*
X108075326Y-68150500D01*
X108075328Y-68150500D01*
X108424672Y-68150500D01*
X108424674Y-68150500D01*
X108485564Y-68138388D01*
X108514436Y-68138388D01*
X108575326Y-68150500D01*
X108575328Y-68150500D01*
X108924672Y-68150500D01*
X108924674Y-68150500D01*
X108986846Y-68138133D01*
X109015715Y-68138133D01*
X109075376Y-68150000D01*
X109100000Y-68150000D01*
X109400000Y-68150000D01*
X109424622Y-68150000D01*
X109485563Y-68137878D01*
X109514437Y-68137878D01*
X109575378Y-68150000D01*
X109600000Y-68150000D01*
X109600000Y-67450000D01*
X109400000Y-67450000D01*
X109400000Y-68150000D01*
X109100000Y-68150000D01*
X109100000Y-68074014D01*
X109112469Y-68032905D01*
X109135966Y-67997740D01*
X109150500Y-67924674D01*
X109150500Y-67150000D01*
X109400000Y-67150000D01*
X109600000Y-67150000D01*
X109600000Y-66675327D01*
X109849500Y-66675327D01*
X109849500Y-67924672D01*
X109864033Y-67997738D01*
X109864033Y-67997739D01*
X109864034Y-67997740D01*
X109887530Y-68032905D01*
X109900000Y-68074014D01*
X109900000Y-68150000D01*
X109924622Y-68150000D01*
X109984281Y-68138133D01*
X110013154Y-68138133D01*
X110075326Y-68150500D01*
X110075328Y-68150500D01*
X110424672Y-68150500D01*
X110424674Y-68150500D01*
X110485564Y-68138388D01*
X110514436Y-68138388D01*
X110575326Y-68150500D01*
X110575328Y-68150500D01*
X110924672Y-68150500D01*
X110924674Y-68150500D01*
X110985564Y-68138388D01*
X111014436Y-68138388D01*
X111075326Y-68150500D01*
X111075328Y-68150500D01*
X111424672Y-68150500D01*
X111424674Y-68150500D01*
X111485564Y-68138388D01*
X111514436Y-68138388D01*
X111575326Y-68150500D01*
X111575328Y-68150500D01*
X111924672Y-68150500D01*
X111924674Y-68150500D01*
X111985564Y-68138388D01*
X112014436Y-68138388D01*
X112075326Y-68150500D01*
X112075328Y-68150500D01*
X112424672Y-68150500D01*
X112424674Y-68150500D01*
X112485564Y-68138388D01*
X112514436Y-68138388D01*
X112575326Y-68150500D01*
X112575328Y-68150500D01*
X112924672Y-68150500D01*
X112924674Y-68150500D01*
X112985564Y-68138388D01*
X113014436Y-68138388D01*
X113075326Y-68150500D01*
X113075328Y-68150500D01*
X113424672Y-68150500D01*
X113424674Y-68150500D01*
X113486846Y-68138133D01*
X113515715Y-68138133D01*
X113575376Y-68150000D01*
X113600000Y-68150000D01*
X113900000Y-68150000D01*
X113924622Y-68150000D01*
X113985563Y-68137878D01*
X114014437Y-68137878D01*
X114075378Y-68150000D01*
X114100000Y-68150000D01*
X114400000Y-68150000D01*
X114424622Y-68150000D01*
X114497545Y-68135494D01*
X114580239Y-68080240D01*
X114580240Y-68080239D01*
X114635494Y-67997545D01*
X114650000Y-67924622D01*
X114650000Y-67450000D01*
X114400000Y-67450000D01*
X114400000Y-68150000D01*
X114100000Y-68150000D01*
X114100000Y-67450000D01*
X113900000Y-67450000D01*
X113900000Y-68150000D01*
X113600000Y-68150000D01*
X113600000Y-68074014D01*
X113612469Y-68032905D01*
X113635966Y-67997740D01*
X113650500Y-67924674D01*
X113650500Y-67150000D01*
X113900000Y-67150000D01*
X114100000Y-67150000D01*
X114400000Y-67150000D01*
X114650000Y-67150000D01*
X114650000Y-66675377D01*
X114635494Y-66602454D01*
X114580240Y-66519760D01*
X114580239Y-66519759D01*
X114497545Y-66464505D01*
X114424622Y-66450000D01*
X114400000Y-66450000D01*
X114400000Y-67150000D01*
X114100000Y-67150000D01*
X114100000Y-66450000D01*
X114075376Y-66450000D01*
X114014436Y-66462121D01*
X113985564Y-66462121D01*
X113924624Y-66450000D01*
X113900000Y-66450000D01*
X113900000Y-67150000D01*
X113650500Y-67150000D01*
X113650500Y-66675326D01*
X113635966Y-66602260D01*
X113635965Y-66602258D01*
X113612471Y-66567095D01*
X113600000Y-66525984D01*
X113600000Y-66450000D01*
X113575376Y-66450000D01*
X113515717Y-66461866D01*
X113486845Y-66461866D01*
X113424674Y-66449500D01*
X113075326Y-66449500D01*
X113014436Y-66461611D01*
X112985564Y-66461611D01*
X112924674Y-66449500D01*
X112575326Y-66449500D01*
X112514436Y-66461611D01*
X112485564Y-66461611D01*
X112424674Y-66449500D01*
X112156115Y-66449500D01*
X112103789Y-66427826D01*
X112084637Y-66394655D01*
X112076614Y-66364712D01*
X112059479Y-66335034D01*
X112050197Y-66288373D01*
X112055250Y-66250000D01*
X112036330Y-66106291D01*
X111980861Y-65972375D01*
X111892621Y-65857379D01*
X111777625Y-65769139D01*
X111777623Y-65769138D01*
X111643708Y-65713669D01*
X111500000Y-65694750D01*
X111356291Y-65713669D01*
X111222376Y-65769138D01*
X111107379Y-65857379D01*
X111058708Y-65920808D01*
X111009658Y-65949126D01*
X110954951Y-65934467D01*
X110941292Y-65920808D01*
X110892621Y-65857379D01*
X110777625Y-65769139D01*
X110777623Y-65769138D01*
X110643708Y-65713669D01*
X110500000Y-65694750D01*
X110356291Y-65713669D01*
X110222376Y-65769138D01*
X110107379Y-65857379D01*
X110019138Y-65972376D01*
X109963669Y-66106291D01*
X109944750Y-66249999D01*
X109944750Y-66250001D01*
X109949801Y-66288375D01*
X109940522Y-66335029D01*
X109923386Y-66364711D01*
X109923384Y-66364716D01*
X109905860Y-66430118D01*
X109900000Y-66440268D01*
X109900000Y-66445208D01*
X109899500Y-66452845D01*
X109899500Y-66526733D01*
X109887029Y-66567845D01*
X109864034Y-66602259D01*
X109849500Y-66675327D01*
X109600000Y-66675327D01*
X109600000Y-66450000D01*
X109575376Y-66450000D01*
X109514436Y-66462121D01*
X109485564Y-66462121D01*
X109424624Y-66450000D01*
X109400000Y-66450000D01*
X109400000Y-67150000D01*
X109150500Y-67150000D01*
X109150500Y-66675326D01*
X109135966Y-66602260D01*
X109112970Y-66567844D01*
X109100500Y-66526733D01*
X109100500Y-66452845D01*
X109100000Y-66445208D01*
X109100000Y-66440270D01*
X109094139Y-66430118D01*
X109076614Y-66364712D01*
X109059479Y-66335034D01*
X109050197Y-66288373D01*
X109055250Y-66250000D01*
X109036330Y-66106291D01*
X108980861Y-65972375D01*
X108892621Y-65857379D01*
X108777625Y-65769139D01*
X108777623Y-65769138D01*
X108643708Y-65713669D01*
X108500000Y-65694750D01*
X108356291Y-65713669D01*
X108222376Y-65769138D01*
X108107379Y-65857379D01*
X108058708Y-65920808D01*
X108009658Y-65949126D01*
X107954951Y-65934467D01*
X107941292Y-65920808D01*
X107892621Y-65857379D01*
X107777625Y-65769139D01*
X107777623Y-65769138D01*
X107643708Y-65713669D01*
X107500000Y-65694750D01*
X107356291Y-65713669D01*
X107222376Y-65769138D01*
X107107379Y-65857379D01*
X107019138Y-65972376D01*
X106963669Y-66106291D01*
X106944750Y-66249999D01*
X106944750Y-66250001D01*
X106949801Y-66288375D01*
X106940522Y-66335029D01*
X106923386Y-66364711D01*
X106923384Y-66364716D01*
X106915363Y-66394653D01*
X106880885Y-66439586D01*
X106843885Y-66449500D01*
X106575326Y-66449500D01*
X106514436Y-66461611D01*
X106485564Y-66461611D01*
X106424674Y-66449500D01*
X106075326Y-66449500D01*
X106014436Y-66461611D01*
X105985564Y-66461611D01*
X105924674Y-66449500D01*
X105829500Y-66449500D01*
X105777174Y-66427826D01*
X105755500Y-66375500D01*
X105755500Y-66324001D01*
X105748413Y-66288375D01*
X105736051Y-66226225D01*
X105715764Y-66177249D01*
X105714782Y-66174504D01*
X105658991Y-66091008D01*
X105658990Y-66091007D01*
X105576100Y-66035622D01*
X105523779Y-66013950D01*
X105523769Y-66013947D01*
X105453650Y-66000000D01*
X105426000Y-65994500D01*
X102780652Y-65994500D01*
X102753002Y-66000000D01*
X102682882Y-66013947D01*
X102682872Y-66013950D01*
X102633913Y-66034230D01*
X102631162Y-66035214D01*
X102547660Y-66091007D01*
X102547659Y-66091009D01*
X101339267Y-67299400D01*
X101336958Y-67303722D01*
X101285622Y-67380551D01*
X101263950Y-67432872D01*
X101263947Y-67432882D01*
X101244500Y-67530653D01*
X99000500Y-67530653D01*
X99000500Y-66004159D01*
X99000965Y-65995874D01*
X99001982Y-65986842D01*
X99012091Y-65897124D01*
X99015775Y-65880988D01*
X99047212Y-65791143D01*
X99054400Y-65776218D01*
X99058849Y-65769138D01*
X99105042Y-65695621D01*
X99115366Y-65682675D01*
X99182675Y-65615366D01*
X99195621Y-65605042D01*
X99276219Y-65554399D01*
X99291143Y-65547212D01*
X99380988Y-65515775D01*
X99397124Y-65512091D01*
X99486842Y-65501982D01*
X99495874Y-65500965D01*
X99504159Y-65500500D01*
X99565892Y-65500500D01*
X119434108Y-65500500D01*
X119495841Y-65500500D01*
X119504126Y-65500965D01*
G37*
%TD.AperFunction*%
%TD*%
M02*
