%TF.GenerationSoftware,KiCad,Pcbnew,8.0.2*%
%TF.CreationDate,2024-11-23T19:12:39+01:00*%
%TF.ProjectId,NTR-Subcard,4e54522d-5375-4626-9361-72642e6b6963,rev?*%
%TF.SameCoordinates,Original*%
%TF.FileFunction,Paste,Top*%
%TF.FilePolarity,Positive*%
%FSLAX46Y46*%
G04 Gerber Fmt 4.6, Leading zero omitted, Abs format (unit mm)*
G04 Created by KiCad (PCBNEW 8.0.2) date 2024-11-23 19:12:39*
%MOMM*%
%LPD*%
G01*
G04 APERTURE LIST*
G04 Aperture macros list*
%AMRoundRect*
0 Rectangle with rounded corners*
0 $1 Rounding radius*
0 $2 $3 $4 $5 $6 $7 $8 $9 X,Y pos of 4 corners*
0 Add a 4 corners polygon primitive as box body*
4,1,4,$2,$3,$4,$5,$6,$7,$8,$9,$2,$3,0*
0 Add four circle primitives for the rounded corners*
1,1,$1+$1,$2,$3*
1,1,$1+$1,$4,$5*
1,1,$1+$1,$6,$7*
1,1,$1+$1,$8,$9*
0 Add four rect primitives between the rounded corners*
20,1,$1+$1,$2,$3,$4,$5,0*
20,1,$1+$1,$4,$5,$6,$7,0*
20,1,$1+$1,$6,$7,$8,$9,0*
20,1,$1+$1,$8,$9,$2,$3,0*%
G04 Aperture macros list end*
%ADD10RoundRect,0.150000X0.150000X-1.635000X0.150000X1.635000X-0.150000X1.635000X-0.150000X-1.635000X0*%
%ADD11RoundRect,0.150000X0.150000X-0.825000X0.150000X0.825000X-0.150000X0.825000X-0.150000X-0.825000X0*%
%ADD12R,0.300000X1.200000*%
%ADD13RoundRect,0.100000X0.100000X-0.637500X0.100000X0.637500X-0.100000X0.637500X-0.100000X-0.637500X0*%
%ADD14RoundRect,0.237500X0.237500X-0.250000X0.237500X0.250000X-0.237500X0.250000X-0.237500X-0.250000X0*%
%ADD15RoundRect,0.237500X0.237500X-0.300000X0.237500X0.300000X-0.237500X0.300000X-0.237500X-0.300000X0*%
G04 APERTURE END LIST*
D10*
%TO.C,U2*%
X111095000Y-79510000D03*
X112365000Y-79510000D03*
X113635000Y-79510000D03*
X114905000Y-79510000D03*
D11*
X114905000Y-73750000D03*
X113635000Y-73750000D03*
X112365000Y-73750000D03*
X111095000Y-73750000D03*
%TD*%
D12*
%TO.C,CN1*%
X114250000Y-70700000D03*
X113750000Y-70700000D03*
X113250000Y-70700000D03*
X112750000Y-70700000D03*
X112250000Y-70700000D03*
X111750000Y-70700000D03*
X111250000Y-70700000D03*
X110750000Y-70700000D03*
X110250000Y-70700000D03*
X109750000Y-70700000D03*
X109250000Y-70700000D03*
X108750000Y-70700000D03*
X108250000Y-70700000D03*
X107750000Y-70700000D03*
X107250000Y-70700000D03*
X106750000Y-70700000D03*
X106250000Y-70700000D03*
X105750000Y-70700000D03*
X105250000Y-70700000D03*
X104750000Y-70700000D03*
X104750000Y-67300000D03*
X105250000Y-67300000D03*
X105750000Y-67300000D03*
X106250000Y-67300000D03*
X106750000Y-67300000D03*
X107250000Y-67300000D03*
X107750000Y-67300000D03*
X108250000Y-67300000D03*
X108750000Y-67300000D03*
X109250000Y-67300000D03*
X109750000Y-67300000D03*
X110250000Y-67300000D03*
X110750000Y-67300000D03*
X111250000Y-67300000D03*
X111750000Y-67300000D03*
X112250000Y-67300000D03*
X112750000Y-67300000D03*
X113250000Y-67300000D03*
X113750000Y-67300000D03*
X114250000Y-67300000D03*
%TD*%
D13*
%TO.C,U1*%
X103550000Y-79862500D03*
X104200000Y-79862500D03*
X104850000Y-79862500D03*
X105500000Y-79862500D03*
X106150000Y-79862500D03*
X106800000Y-79862500D03*
X107450000Y-79862500D03*
X107450000Y-74137500D03*
X106800000Y-74137500D03*
X106150000Y-74137500D03*
X105500000Y-74137500D03*
X104850000Y-74137500D03*
X104200000Y-74137500D03*
X103550000Y-74137500D03*
%TD*%
D14*
%TO.C,R1*%
X117000000Y-79412500D03*
X117000000Y-77587500D03*
%TD*%
D15*
%TO.C,C2*%
X117000000Y-75612500D03*
X117000000Y-73887500D03*
%TD*%
%TO.C,C1*%
X102000000Y-77862500D03*
X102000000Y-76137500D03*
%TD*%
M02*
