%TF.GenerationSoftware,KiCad,Pcbnew,8.0.2*%
%TF.CreationDate,2024-11-21T20:15:38+01:00*%
%TF.ProjectId,NTR-Subcard,4e54522d-5375-4626-9361-72642e6b6963,rev?*%
%TF.SameCoordinates,Original*%
%TF.FileFunction,Drillmap*%
%TF.FilePolarity,Positive*%
%FSLAX45Y45*%
G04 Gerber Fmt 4.5, Leading zero omitted, Abs format (unit mm)*
G04 Created by KiCad (PCBNEW 8.0.2) date 2024-11-21 20:15:38*
%MOMM*%
%LPD*%
G01*
G04 APERTURE LIST*
%ADD10C,0.050000*%
%ADD11C,0.200000*%
%ADD12C,0.100000*%
G04 APERTURE END LIST*
D10*
X12050000Y-6600000D02*
X12050000Y-8200000D01*
X9850000Y-8200000D02*
X9850000Y-6600000D01*
X9950000Y-6500000D02*
X11950000Y-6500000D01*
X11950000Y-8300000D02*
X9950000Y-8300000D01*
X11950000Y-6500000D02*
G75*
G02*
X12050000Y-6600000I0J-100000D01*
G01*
X9850000Y-6600000D02*
G75*
G02*
X9950000Y-6500000I100000J0D01*
G01*
X12050000Y-8200000D02*
G75*
G02*
X11950000Y-8300000I-100000J0D01*
G01*
X9950000Y-8300000D02*
G75*
G02*
X9850000Y-8200000I0J100000D01*
G01*
D11*
D12*
X9985000Y-6710000D02*
X10015000Y-6740000D01*
X10015000Y-6710000D02*
X9985000Y-6740000D01*
X9985000Y-6985000D02*
X10015000Y-7015000D01*
X10015000Y-6985000D02*
X9985000Y-7015000D01*
X9985000Y-7285000D02*
X10015000Y-7315000D01*
X10015000Y-7285000D02*
X9985000Y-7315000D01*
X9985000Y-7560000D02*
X10015000Y-7590000D01*
X10015000Y-7560000D02*
X9985000Y-7590000D01*
X9985000Y-7860000D02*
X10015000Y-7890000D01*
X10015000Y-7860000D02*
X9985000Y-7890000D01*
X9985000Y-8160000D02*
X10015000Y-8190000D01*
X10015000Y-8160000D02*
X9985000Y-8190000D01*
X10210000Y-7185000D02*
X10240000Y-7215000D01*
X10240000Y-7185000D02*
X10210000Y-7215000D01*
X10210000Y-7285000D02*
X10240000Y-7315000D01*
X10240000Y-7285000D02*
X10210000Y-7315000D01*
X10285000Y-7185000D02*
X10315000Y-7215000D01*
X10315000Y-7185000D02*
X10285000Y-7215000D01*
X10335000Y-8135000D02*
X10365000Y-8165000D01*
X10365000Y-8135000D02*
X10335000Y-8165000D01*
X10360000Y-7785000D02*
X10390000Y-7815000D01*
X10390000Y-7785000D02*
X10360000Y-7815000D01*
X10385000Y-7560000D02*
X10415000Y-7590000D01*
X10415000Y-7560000D02*
X10385000Y-7590000D01*
X10460000Y-7785000D02*
X10490000Y-7815000D01*
X10490000Y-7785000D02*
X10460000Y-7815000D01*
X10485000Y-8110000D02*
X10515000Y-8140000D01*
X10515000Y-8110000D02*
X10485000Y-8140000D01*
X10489927Y-7539926D02*
X10519927Y-7569926D01*
X10519927Y-7539926D02*
X10489927Y-7569926D01*
X10510000Y-7210000D02*
X10540000Y-7240000D01*
X10540000Y-7210000D02*
X10510000Y-7240000D01*
X10585000Y-8135000D02*
X10615000Y-8165000D01*
X10615000Y-8135000D02*
X10585000Y-8165000D01*
X10610000Y-6910000D02*
X10640000Y-6940000D01*
X10640000Y-6910000D02*
X10610000Y-6940000D01*
X10635000Y-6585000D02*
X10665000Y-6615000D01*
X10665000Y-6585000D02*
X10635000Y-6615000D01*
X10685000Y-7560000D02*
X10715000Y-7590000D01*
X10715000Y-7560000D02*
X10685000Y-7590000D01*
X10685000Y-8110000D02*
X10715000Y-8140000D01*
X10715000Y-8110000D02*
X10685000Y-8140000D01*
X10735000Y-6610000D02*
X10765000Y-6640000D01*
X10765000Y-6610000D02*
X10735000Y-6640000D01*
X10735000Y-7210000D02*
X10765000Y-7240000D01*
X10765000Y-7210000D02*
X10735000Y-7240000D01*
X10785000Y-7560000D02*
X10815000Y-7590000D01*
X10815000Y-7560000D02*
X10785000Y-7590000D01*
X10835000Y-6610000D02*
X10865000Y-6640000D01*
X10865000Y-6610000D02*
X10835000Y-6640000D01*
X10835000Y-7210000D02*
X10865000Y-7240000D01*
X10865000Y-7210000D02*
X10835000Y-7240000D01*
X10835000Y-7435000D02*
X10865000Y-7465000D01*
X10865000Y-7435000D02*
X10835000Y-7465000D01*
X10910000Y-8135000D02*
X10940000Y-8165000D01*
X10940000Y-8135000D02*
X10910000Y-8165000D01*
X10935000Y-6585000D02*
X10965000Y-6615000D01*
X10965000Y-6585000D02*
X10935000Y-6615000D01*
X10935000Y-6910000D02*
X10965000Y-6940000D01*
X10965000Y-6910000D02*
X10935000Y-6940000D01*
X10985000Y-7485000D02*
X11015000Y-7515000D01*
X11015000Y-7485000D02*
X10985000Y-7515000D01*
X11035000Y-6610000D02*
X11065000Y-6640000D01*
X11065000Y-6610000D02*
X11035000Y-6640000D01*
X11035000Y-7210000D02*
X11065000Y-7240000D01*
X11065000Y-7210000D02*
X11035000Y-7240000D01*
X11085000Y-7585000D02*
X11115000Y-7615000D01*
X11115000Y-7585000D02*
X11085000Y-7615000D01*
X11085000Y-7760000D02*
X11115000Y-7790000D01*
X11115000Y-7760000D02*
X11085000Y-7790000D01*
X11135000Y-6610000D02*
X11165000Y-6640000D01*
X11165000Y-6610000D02*
X11135000Y-6640000D01*
X11135000Y-6910000D02*
X11165000Y-6940000D01*
X11165000Y-6910000D02*
X11135000Y-6940000D01*
X11135000Y-7210000D02*
X11165000Y-7240000D01*
X11165000Y-7210000D02*
X11135000Y-7240000D01*
X11222846Y-7179604D02*
X11252846Y-7209604D01*
X11252846Y-7179604D02*
X11222846Y-7209604D01*
X11235000Y-6585000D02*
X11265000Y-6615000D01*
X11265000Y-6585000D02*
X11235000Y-6615000D01*
X11235000Y-7585000D02*
X11265000Y-7615000D01*
X11265000Y-7585000D02*
X11235000Y-7615000D01*
X11235000Y-7710000D02*
X11265000Y-7740000D01*
X11265000Y-7710000D02*
X11235000Y-7740000D01*
X11235000Y-8135000D02*
X11265000Y-8165000D01*
X11265000Y-8135000D02*
X11235000Y-8165000D01*
X11360000Y-7710000D02*
X11390000Y-7740000D01*
X11390000Y-7710000D02*
X11360000Y-7740000D01*
X11360000Y-8110000D02*
X11390000Y-8140000D01*
X11390000Y-8110000D02*
X11360000Y-8140000D01*
X11385000Y-6610000D02*
X11415000Y-6640000D01*
X11415000Y-6610000D02*
X11385000Y-6640000D01*
X11435000Y-6885000D02*
X11465000Y-6915000D01*
X11465000Y-6885000D02*
X11435000Y-6915000D01*
X11475500Y-7794500D02*
X11505500Y-7824500D01*
X11505500Y-7794500D02*
X11475500Y-7824500D01*
X11485000Y-7185000D02*
X11515000Y-7215000D01*
X11515000Y-7185000D02*
X11485000Y-7215000D01*
X11535000Y-8135000D02*
X11565000Y-8165000D01*
X11565000Y-8135000D02*
X11535000Y-8165000D01*
X11585000Y-7185000D02*
X11615000Y-7215000D01*
X11615000Y-7185000D02*
X11585000Y-7215000D01*
X11585000Y-7260000D02*
X11615000Y-7290000D01*
X11615000Y-7260000D02*
X11585000Y-7290000D01*
X11610000Y-6710000D02*
X11640000Y-6740000D01*
X11640000Y-6710000D02*
X11610000Y-6740000D01*
X11610000Y-8010000D02*
X11640000Y-8040000D01*
X11640000Y-8010000D02*
X11610000Y-8040000D01*
X11860000Y-6635000D02*
X11890000Y-6665000D01*
X11890000Y-6635000D02*
X11860000Y-6665000D01*
X11860000Y-6910000D02*
X11890000Y-6940000D01*
X11890000Y-6910000D02*
X11860000Y-6940000D01*
X11860000Y-7210000D02*
X11890000Y-7240000D01*
X11890000Y-7210000D02*
X11860000Y-7240000D01*
X11860000Y-7510000D02*
X11890000Y-7540000D01*
X11890000Y-7510000D02*
X11860000Y-7540000D01*
X11885000Y-7785000D02*
X11915000Y-7815000D01*
X11915000Y-7785000D02*
X11885000Y-7815000D01*
X11885000Y-8060000D02*
X11915000Y-8090000D01*
X11915000Y-8060000D02*
X11885000Y-8090000D01*
D11*
X10108277Y-8613984D02*
X10108277Y-8413984D01*
X10108277Y-8413984D02*
X10155896Y-8413984D01*
X10155896Y-8413984D02*
X10184467Y-8423508D01*
X10184467Y-8423508D02*
X10203515Y-8442555D01*
X10203515Y-8442555D02*
X10213039Y-8461603D01*
X10213039Y-8461603D02*
X10222563Y-8499698D01*
X10222563Y-8499698D02*
X10222563Y-8528270D01*
X10222563Y-8528270D02*
X10213039Y-8566365D01*
X10213039Y-8566365D02*
X10203515Y-8585412D01*
X10203515Y-8585412D02*
X10184467Y-8604460D01*
X10184467Y-8604460D02*
X10155896Y-8613984D01*
X10155896Y-8613984D02*
X10108277Y-8613984D01*
X10308277Y-8613984D02*
X10308277Y-8480650D01*
X10308277Y-8518746D02*
X10317801Y-8499698D01*
X10317801Y-8499698D02*
X10327324Y-8490174D01*
X10327324Y-8490174D02*
X10346372Y-8480650D01*
X10346372Y-8480650D02*
X10365420Y-8480650D01*
X10432086Y-8613984D02*
X10432086Y-8480650D01*
X10432086Y-8413984D02*
X10422563Y-8423508D01*
X10422563Y-8423508D02*
X10432086Y-8433031D01*
X10432086Y-8433031D02*
X10441610Y-8423508D01*
X10441610Y-8423508D02*
X10432086Y-8413984D01*
X10432086Y-8413984D02*
X10432086Y-8433031D01*
X10555896Y-8613984D02*
X10536848Y-8604460D01*
X10536848Y-8604460D02*
X10527324Y-8585412D01*
X10527324Y-8585412D02*
X10527324Y-8413984D01*
X10660658Y-8613984D02*
X10641610Y-8604460D01*
X10641610Y-8604460D02*
X10632086Y-8585412D01*
X10632086Y-8585412D02*
X10632086Y-8413984D01*
X10889229Y-8613984D02*
X10889229Y-8413984D01*
X10889229Y-8413984D02*
X10955896Y-8556841D01*
X10955896Y-8556841D02*
X11022563Y-8413984D01*
X11022563Y-8413984D02*
X11022563Y-8613984D01*
X11203515Y-8613984D02*
X11203515Y-8509222D01*
X11203515Y-8509222D02*
X11193991Y-8490174D01*
X11193991Y-8490174D02*
X11174944Y-8480650D01*
X11174944Y-8480650D02*
X11136848Y-8480650D01*
X11136848Y-8480650D02*
X11117801Y-8490174D01*
X11203515Y-8604460D02*
X11184467Y-8613984D01*
X11184467Y-8613984D02*
X11136848Y-8613984D01*
X11136848Y-8613984D02*
X11117801Y-8604460D01*
X11117801Y-8604460D02*
X11108277Y-8585412D01*
X11108277Y-8585412D02*
X11108277Y-8566365D01*
X11108277Y-8566365D02*
X11117801Y-8547317D01*
X11117801Y-8547317D02*
X11136848Y-8537793D01*
X11136848Y-8537793D02*
X11184467Y-8537793D01*
X11184467Y-8537793D02*
X11203515Y-8528270D01*
X11298753Y-8480650D02*
X11298753Y-8680650D01*
X11298753Y-8490174D02*
X11317801Y-8480650D01*
X11317801Y-8480650D02*
X11355896Y-8480650D01*
X11355896Y-8480650D02*
X11374943Y-8490174D01*
X11374943Y-8490174D02*
X11384467Y-8499698D01*
X11384467Y-8499698D02*
X11393991Y-8518746D01*
X11393991Y-8518746D02*
X11393991Y-8575889D01*
X11393991Y-8575889D02*
X11384467Y-8594936D01*
X11384467Y-8594936D02*
X11374943Y-8604460D01*
X11374943Y-8604460D02*
X11355896Y-8613984D01*
X11355896Y-8613984D02*
X11317801Y-8613984D01*
X11317801Y-8613984D02*
X11298753Y-8604460D01*
X11479705Y-8594936D02*
X11489229Y-8604460D01*
X11489229Y-8604460D02*
X11479705Y-8613984D01*
X11479705Y-8613984D02*
X11470182Y-8604460D01*
X11470182Y-8604460D02*
X11479705Y-8594936D01*
X11479705Y-8594936D02*
X11479705Y-8613984D01*
X11479705Y-8490174D02*
X11489229Y-8499698D01*
X11489229Y-8499698D02*
X11479705Y-8509222D01*
X11479705Y-8509222D02*
X11470182Y-8499698D01*
X11470182Y-8499698D02*
X11479705Y-8490174D01*
X11479705Y-8490174D02*
X11479705Y-8509222D01*
D12*
X9817500Y-8927500D02*
X9847500Y-8957500D01*
X9847500Y-8927500D02*
X9817500Y-8957500D01*
D11*
X10146372Y-8833984D02*
X10165420Y-8833984D01*
X10165420Y-8833984D02*
X10184467Y-8843508D01*
X10184467Y-8843508D02*
X10193991Y-8853031D01*
X10193991Y-8853031D02*
X10203515Y-8872079D01*
X10203515Y-8872079D02*
X10213039Y-8910174D01*
X10213039Y-8910174D02*
X10213039Y-8957793D01*
X10213039Y-8957793D02*
X10203515Y-8995889D01*
X10203515Y-8995889D02*
X10193991Y-9014936D01*
X10193991Y-9014936D02*
X10184467Y-9024460D01*
X10184467Y-9024460D02*
X10165420Y-9033984D01*
X10165420Y-9033984D02*
X10146372Y-9033984D01*
X10146372Y-9033984D02*
X10127324Y-9024460D01*
X10127324Y-9024460D02*
X10117801Y-9014936D01*
X10117801Y-9014936D02*
X10108277Y-8995889D01*
X10108277Y-8995889D02*
X10098753Y-8957793D01*
X10098753Y-8957793D02*
X10098753Y-8910174D01*
X10098753Y-8910174D02*
X10108277Y-8872079D01*
X10108277Y-8872079D02*
X10117801Y-8853031D01*
X10117801Y-8853031D02*
X10127324Y-8843508D01*
X10127324Y-8843508D02*
X10146372Y-8833984D01*
X10298753Y-9014936D02*
X10308277Y-9024460D01*
X10308277Y-9024460D02*
X10298753Y-9033984D01*
X10298753Y-9033984D02*
X10289229Y-9024460D01*
X10289229Y-9024460D02*
X10298753Y-9014936D01*
X10298753Y-9014936D02*
X10298753Y-9033984D01*
X10374944Y-8833984D02*
X10498753Y-8833984D01*
X10498753Y-8833984D02*
X10432086Y-8910174D01*
X10432086Y-8910174D02*
X10460658Y-8910174D01*
X10460658Y-8910174D02*
X10479705Y-8919698D01*
X10479705Y-8919698D02*
X10489229Y-8929222D01*
X10489229Y-8929222D02*
X10498753Y-8948270D01*
X10498753Y-8948270D02*
X10498753Y-8995889D01*
X10498753Y-8995889D02*
X10489229Y-9014936D01*
X10489229Y-9014936D02*
X10479705Y-9024460D01*
X10479705Y-9024460D02*
X10460658Y-9033984D01*
X10460658Y-9033984D02*
X10403515Y-9033984D01*
X10403515Y-9033984D02*
X10384467Y-9024460D01*
X10384467Y-9024460D02*
X10374944Y-9014936D01*
X10622563Y-8833984D02*
X10641610Y-8833984D01*
X10641610Y-8833984D02*
X10660658Y-8843508D01*
X10660658Y-8843508D02*
X10670182Y-8853031D01*
X10670182Y-8853031D02*
X10679705Y-8872079D01*
X10679705Y-8872079D02*
X10689229Y-8910174D01*
X10689229Y-8910174D02*
X10689229Y-8957793D01*
X10689229Y-8957793D02*
X10679705Y-8995889D01*
X10679705Y-8995889D02*
X10670182Y-9014936D01*
X10670182Y-9014936D02*
X10660658Y-9024460D01*
X10660658Y-9024460D02*
X10641610Y-9033984D01*
X10641610Y-9033984D02*
X10622563Y-9033984D01*
X10622563Y-9033984D02*
X10603515Y-9024460D01*
X10603515Y-9024460D02*
X10593991Y-9014936D01*
X10593991Y-9014936D02*
X10584467Y-8995889D01*
X10584467Y-8995889D02*
X10574944Y-8957793D01*
X10574944Y-8957793D02*
X10574944Y-8910174D01*
X10574944Y-8910174D02*
X10584467Y-8872079D01*
X10584467Y-8872079D02*
X10593991Y-8853031D01*
X10593991Y-8853031D02*
X10603515Y-8843508D01*
X10603515Y-8843508D02*
X10622563Y-8833984D01*
X10813039Y-8833984D02*
X10832086Y-8833984D01*
X10832086Y-8833984D02*
X10851134Y-8843508D01*
X10851134Y-8843508D02*
X10860658Y-8853031D01*
X10860658Y-8853031D02*
X10870182Y-8872079D01*
X10870182Y-8872079D02*
X10879705Y-8910174D01*
X10879705Y-8910174D02*
X10879705Y-8957793D01*
X10879705Y-8957793D02*
X10870182Y-8995889D01*
X10870182Y-8995889D02*
X10860658Y-9014936D01*
X10860658Y-9014936D02*
X10851134Y-9024460D01*
X10851134Y-9024460D02*
X10832086Y-9033984D01*
X10832086Y-9033984D02*
X10813039Y-9033984D01*
X10813039Y-9033984D02*
X10793991Y-9024460D01*
X10793991Y-9024460D02*
X10784467Y-9014936D01*
X10784467Y-9014936D02*
X10774944Y-8995889D01*
X10774944Y-8995889D02*
X10765420Y-8957793D01*
X10765420Y-8957793D02*
X10765420Y-8910174D01*
X10765420Y-8910174D02*
X10774944Y-8872079D01*
X10774944Y-8872079D02*
X10784467Y-8853031D01*
X10784467Y-8853031D02*
X10793991Y-8843508D01*
X10793991Y-8843508D02*
X10813039Y-8833984D01*
X10965420Y-9033984D02*
X10965420Y-8900650D01*
X10965420Y-8919698D02*
X10974944Y-8910174D01*
X10974944Y-8910174D02*
X10993991Y-8900650D01*
X10993991Y-8900650D02*
X11022563Y-8900650D01*
X11022563Y-8900650D02*
X11041610Y-8910174D01*
X11041610Y-8910174D02*
X11051134Y-8929222D01*
X11051134Y-8929222D02*
X11051134Y-9033984D01*
X11051134Y-8929222D02*
X11060658Y-8910174D01*
X11060658Y-8910174D02*
X11079705Y-8900650D01*
X11079705Y-8900650D02*
X11108277Y-8900650D01*
X11108277Y-8900650D02*
X11127325Y-8910174D01*
X11127325Y-8910174D02*
X11136848Y-8929222D01*
X11136848Y-8929222D02*
X11136848Y-9033984D01*
X11232086Y-9033984D02*
X11232086Y-8900650D01*
X11232086Y-8919698D02*
X11241610Y-8910174D01*
X11241610Y-8910174D02*
X11260658Y-8900650D01*
X11260658Y-8900650D02*
X11289229Y-8900650D01*
X11289229Y-8900650D02*
X11308277Y-8910174D01*
X11308277Y-8910174D02*
X11317801Y-8929222D01*
X11317801Y-8929222D02*
X11317801Y-9033984D01*
X11317801Y-8929222D02*
X11327324Y-8910174D01*
X11327324Y-8910174D02*
X11346372Y-8900650D01*
X11346372Y-8900650D02*
X11374943Y-8900650D01*
X11374943Y-8900650D02*
X11393991Y-8910174D01*
X11393991Y-8910174D02*
X11403515Y-8929222D01*
X11403515Y-8929222D02*
X11403515Y-9033984D01*
X11793991Y-8824460D02*
X11622563Y-9081603D01*
X12051134Y-8833984D02*
X12070182Y-8833984D01*
X12070182Y-8833984D02*
X12089229Y-8843508D01*
X12089229Y-8843508D02*
X12098753Y-8853031D01*
X12098753Y-8853031D02*
X12108277Y-8872079D01*
X12108277Y-8872079D02*
X12117801Y-8910174D01*
X12117801Y-8910174D02*
X12117801Y-8957793D01*
X12117801Y-8957793D02*
X12108277Y-8995889D01*
X12108277Y-8995889D02*
X12098753Y-9014936D01*
X12098753Y-9014936D02*
X12089229Y-9024460D01*
X12089229Y-9024460D02*
X12070182Y-9033984D01*
X12070182Y-9033984D02*
X12051134Y-9033984D01*
X12051134Y-9033984D02*
X12032086Y-9024460D01*
X12032086Y-9024460D02*
X12022563Y-9014936D01*
X12022563Y-9014936D02*
X12013039Y-8995889D01*
X12013039Y-8995889D02*
X12003515Y-8957793D01*
X12003515Y-8957793D02*
X12003515Y-8910174D01*
X12003515Y-8910174D02*
X12013039Y-8872079D01*
X12013039Y-8872079D02*
X12022563Y-8853031D01*
X12022563Y-8853031D02*
X12032086Y-8843508D01*
X12032086Y-8843508D02*
X12051134Y-8833984D01*
X12203515Y-9014936D02*
X12213039Y-9024460D01*
X12213039Y-9024460D02*
X12203515Y-9033984D01*
X12203515Y-9033984D02*
X12193991Y-9024460D01*
X12193991Y-9024460D02*
X12203515Y-9014936D01*
X12203515Y-9014936D02*
X12203515Y-9033984D01*
X12336848Y-8833984D02*
X12355896Y-8833984D01*
X12355896Y-8833984D02*
X12374944Y-8843508D01*
X12374944Y-8843508D02*
X12384467Y-8853031D01*
X12384467Y-8853031D02*
X12393991Y-8872079D01*
X12393991Y-8872079D02*
X12403515Y-8910174D01*
X12403515Y-8910174D02*
X12403515Y-8957793D01*
X12403515Y-8957793D02*
X12393991Y-8995889D01*
X12393991Y-8995889D02*
X12384467Y-9014936D01*
X12384467Y-9014936D02*
X12374944Y-9024460D01*
X12374944Y-9024460D02*
X12355896Y-9033984D01*
X12355896Y-9033984D02*
X12336848Y-9033984D01*
X12336848Y-9033984D02*
X12317801Y-9024460D01*
X12317801Y-9024460D02*
X12308277Y-9014936D01*
X12308277Y-9014936D02*
X12298753Y-8995889D01*
X12298753Y-8995889D02*
X12289229Y-8957793D01*
X12289229Y-8957793D02*
X12289229Y-8910174D01*
X12289229Y-8910174D02*
X12298753Y-8872079D01*
X12298753Y-8872079D02*
X12308277Y-8853031D01*
X12308277Y-8853031D02*
X12317801Y-8843508D01*
X12317801Y-8843508D02*
X12336848Y-8833984D01*
X12593991Y-9033984D02*
X12479706Y-9033984D01*
X12536848Y-9033984D02*
X12536848Y-8833984D01*
X12536848Y-8833984D02*
X12517801Y-8862555D01*
X12517801Y-8862555D02*
X12498753Y-8881603D01*
X12498753Y-8881603D02*
X12479706Y-8891127D01*
X12784467Y-9033984D02*
X12670182Y-9033984D01*
X12727325Y-9033984D02*
X12727325Y-8833984D01*
X12727325Y-8833984D02*
X12708277Y-8862555D01*
X12708277Y-8862555D02*
X12689229Y-8881603D01*
X12689229Y-8881603D02*
X12670182Y-8891127D01*
X12898753Y-8919698D02*
X12879706Y-8910174D01*
X12879706Y-8910174D02*
X12870182Y-8900650D01*
X12870182Y-8900650D02*
X12860658Y-8881603D01*
X12860658Y-8881603D02*
X12860658Y-8872079D01*
X12860658Y-8872079D02*
X12870182Y-8853031D01*
X12870182Y-8853031D02*
X12879706Y-8843508D01*
X12879706Y-8843508D02*
X12898753Y-8833984D01*
X12898753Y-8833984D02*
X12936848Y-8833984D01*
X12936848Y-8833984D02*
X12955896Y-8843508D01*
X12955896Y-8843508D02*
X12965420Y-8853031D01*
X12965420Y-8853031D02*
X12974944Y-8872079D01*
X12974944Y-8872079D02*
X12974944Y-8881603D01*
X12974944Y-8881603D02*
X12965420Y-8900650D01*
X12965420Y-8900650D02*
X12955896Y-8910174D01*
X12955896Y-8910174D02*
X12936848Y-8919698D01*
X12936848Y-8919698D02*
X12898753Y-8919698D01*
X12898753Y-8919698D02*
X12879706Y-8929222D01*
X12879706Y-8929222D02*
X12870182Y-8938746D01*
X12870182Y-8938746D02*
X12860658Y-8957793D01*
X12860658Y-8957793D02*
X12860658Y-8995889D01*
X12860658Y-8995889D02*
X12870182Y-9014936D01*
X12870182Y-9014936D02*
X12879706Y-9024460D01*
X12879706Y-9024460D02*
X12898753Y-9033984D01*
X12898753Y-9033984D02*
X12936848Y-9033984D01*
X12936848Y-9033984D02*
X12955896Y-9024460D01*
X12955896Y-9024460D02*
X12965420Y-9014936D01*
X12965420Y-9014936D02*
X12974944Y-8995889D01*
X12974944Y-8995889D02*
X12974944Y-8957793D01*
X12974944Y-8957793D02*
X12965420Y-8938746D01*
X12965420Y-8938746D02*
X12955896Y-8929222D01*
X12955896Y-8929222D02*
X12936848Y-8919698D01*
X13051134Y-8833984D02*
X13051134Y-8872079D01*
X13127325Y-8833984D02*
X13127325Y-8872079D01*
X13422563Y-9110174D02*
X13413039Y-9100650D01*
X13413039Y-9100650D02*
X13393991Y-9072079D01*
X13393991Y-9072079D02*
X13384468Y-9053031D01*
X13384468Y-9053031D02*
X13374944Y-9024460D01*
X13374944Y-9024460D02*
X13365420Y-8976841D01*
X13365420Y-8976841D02*
X13365420Y-8938746D01*
X13365420Y-8938746D02*
X13374944Y-8891127D01*
X13374944Y-8891127D02*
X13384468Y-8862555D01*
X13384468Y-8862555D02*
X13393991Y-8843508D01*
X13393991Y-8843508D02*
X13413039Y-8814936D01*
X13413039Y-8814936D02*
X13422563Y-8805412D01*
X13584468Y-8833984D02*
X13546372Y-8833984D01*
X13546372Y-8833984D02*
X13527325Y-8843508D01*
X13527325Y-8843508D02*
X13517801Y-8853031D01*
X13517801Y-8853031D02*
X13498753Y-8881603D01*
X13498753Y-8881603D02*
X13489229Y-8919698D01*
X13489229Y-8919698D02*
X13489229Y-8995889D01*
X13489229Y-8995889D02*
X13498753Y-9014936D01*
X13498753Y-9014936D02*
X13508277Y-9024460D01*
X13508277Y-9024460D02*
X13527325Y-9033984D01*
X13527325Y-9033984D02*
X13565420Y-9033984D01*
X13565420Y-9033984D02*
X13584468Y-9024460D01*
X13584468Y-9024460D02*
X13593991Y-9014936D01*
X13593991Y-9014936D02*
X13603515Y-8995889D01*
X13603515Y-8995889D02*
X13603515Y-8948270D01*
X13603515Y-8948270D02*
X13593991Y-8929222D01*
X13593991Y-8929222D02*
X13584468Y-8919698D01*
X13584468Y-8919698D02*
X13565420Y-8910174D01*
X13565420Y-8910174D02*
X13527325Y-8910174D01*
X13527325Y-8910174D02*
X13508277Y-8919698D01*
X13508277Y-8919698D02*
X13498753Y-8929222D01*
X13498753Y-8929222D02*
X13489229Y-8948270D01*
X13727325Y-8833984D02*
X13746372Y-8833984D01*
X13746372Y-8833984D02*
X13765420Y-8843508D01*
X13765420Y-8843508D02*
X13774944Y-8853031D01*
X13774944Y-8853031D02*
X13784468Y-8872079D01*
X13784468Y-8872079D02*
X13793991Y-8910174D01*
X13793991Y-8910174D02*
X13793991Y-8957793D01*
X13793991Y-8957793D02*
X13784468Y-8995889D01*
X13784468Y-8995889D02*
X13774944Y-9014936D01*
X13774944Y-9014936D02*
X13765420Y-9024460D01*
X13765420Y-9024460D02*
X13746372Y-9033984D01*
X13746372Y-9033984D02*
X13727325Y-9033984D01*
X13727325Y-9033984D02*
X13708277Y-9024460D01*
X13708277Y-9024460D02*
X13698753Y-9014936D01*
X13698753Y-9014936D02*
X13689229Y-8995889D01*
X13689229Y-8995889D02*
X13679706Y-8957793D01*
X13679706Y-8957793D02*
X13679706Y-8910174D01*
X13679706Y-8910174D02*
X13689229Y-8872079D01*
X13689229Y-8872079D02*
X13698753Y-8853031D01*
X13698753Y-8853031D02*
X13708277Y-8843508D01*
X13708277Y-8843508D02*
X13727325Y-8833984D01*
X14032087Y-9033984D02*
X14032087Y-8833984D01*
X14117801Y-9033984D02*
X14117801Y-8929222D01*
X14117801Y-8929222D02*
X14108277Y-8910174D01*
X14108277Y-8910174D02*
X14089230Y-8900650D01*
X14089230Y-8900650D02*
X14060658Y-8900650D01*
X14060658Y-8900650D02*
X14041610Y-8910174D01*
X14041610Y-8910174D02*
X14032087Y-8919698D01*
X14241610Y-9033984D02*
X14222563Y-9024460D01*
X14222563Y-9024460D02*
X14213039Y-9014936D01*
X14213039Y-9014936D02*
X14203515Y-8995889D01*
X14203515Y-8995889D02*
X14203515Y-8938746D01*
X14203515Y-8938746D02*
X14213039Y-8919698D01*
X14213039Y-8919698D02*
X14222563Y-8910174D01*
X14222563Y-8910174D02*
X14241610Y-8900650D01*
X14241610Y-8900650D02*
X14270182Y-8900650D01*
X14270182Y-8900650D02*
X14289230Y-8910174D01*
X14289230Y-8910174D02*
X14298753Y-8919698D01*
X14298753Y-8919698D02*
X14308277Y-8938746D01*
X14308277Y-8938746D02*
X14308277Y-8995889D01*
X14308277Y-8995889D02*
X14298753Y-9014936D01*
X14298753Y-9014936D02*
X14289230Y-9024460D01*
X14289230Y-9024460D02*
X14270182Y-9033984D01*
X14270182Y-9033984D02*
X14241610Y-9033984D01*
X14422563Y-9033984D02*
X14403515Y-9024460D01*
X14403515Y-9024460D02*
X14393991Y-9005412D01*
X14393991Y-9005412D02*
X14393991Y-8833984D01*
X14574944Y-9024460D02*
X14555896Y-9033984D01*
X14555896Y-9033984D02*
X14517801Y-9033984D01*
X14517801Y-9033984D02*
X14498753Y-9024460D01*
X14498753Y-9024460D02*
X14489230Y-9005412D01*
X14489230Y-9005412D02*
X14489230Y-8929222D01*
X14489230Y-8929222D02*
X14498753Y-8910174D01*
X14498753Y-8910174D02*
X14517801Y-8900650D01*
X14517801Y-8900650D02*
X14555896Y-8900650D01*
X14555896Y-8900650D02*
X14574944Y-8910174D01*
X14574944Y-8910174D02*
X14584468Y-8929222D01*
X14584468Y-8929222D02*
X14584468Y-8948270D01*
X14584468Y-8948270D02*
X14489230Y-8967317D01*
X14660658Y-9024460D02*
X14679706Y-9033984D01*
X14679706Y-9033984D02*
X14717801Y-9033984D01*
X14717801Y-9033984D02*
X14736849Y-9024460D01*
X14736849Y-9024460D02*
X14746372Y-9005412D01*
X14746372Y-9005412D02*
X14746372Y-8995889D01*
X14746372Y-8995889D02*
X14736849Y-8976841D01*
X14736849Y-8976841D02*
X14717801Y-8967317D01*
X14717801Y-8967317D02*
X14689230Y-8967317D01*
X14689230Y-8967317D02*
X14670182Y-8957793D01*
X14670182Y-8957793D02*
X14660658Y-8938746D01*
X14660658Y-8938746D02*
X14660658Y-8929222D01*
X14660658Y-8929222D02*
X14670182Y-8910174D01*
X14670182Y-8910174D02*
X14689230Y-8900650D01*
X14689230Y-8900650D02*
X14717801Y-8900650D01*
X14717801Y-8900650D02*
X14736849Y-8910174D01*
X14813039Y-9110174D02*
X14822563Y-9100650D01*
X14822563Y-9100650D02*
X14841611Y-9072079D01*
X14841611Y-9072079D02*
X14851134Y-9053031D01*
X14851134Y-9053031D02*
X14860658Y-9024460D01*
X14860658Y-9024460D02*
X14870182Y-8976841D01*
X14870182Y-8976841D02*
X14870182Y-8938746D01*
X14870182Y-8938746D02*
X14860658Y-8891127D01*
X14860658Y-8891127D02*
X14851134Y-8862555D01*
X14851134Y-8862555D02*
X14841611Y-8843508D01*
X14841611Y-8843508D02*
X14822563Y-8814936D01*
X14822563Y-8814936D02*
X14813039Y-8805412D01*
M02*
