%TF.GenerationSoftware,KiCad,Pcbnew,8.0.2*%
%TF.CreationDate,2024-11-23T19:12:39+01:00*%
%TF.ProjectId,NTR-Subcard,4e54522d-5375-4626-9361-72642e6b6963,rev?*%
%TF.SameCoordinates,Original*%
%TF.FileFunction,Copper,L2,Bot*%
%TF.FilePolarity,Positive*%
%FSLAX46Y46*%
G04 Gerber Fmt 4.6, Leading zero omitted, Abs format (unit mm)*
G04 Created by KiCad (PCBNEW 8.0.2) date 2024-11-23 19:12:39*
%MOMM*%
%LPD*%
G01*
G04 APERTURE LIST*
%TA.AperFunction,ViaPad*%
%ADD10C,0.600000*%
%TD*%
%TA.AperFunction,Conductor*%
%ADD11C,0.400000*%
%TD*%
%TA.AperFunction,Conductor*%
%ADD12C,0.200000*%
%TD*%
G04 APERTURE END LIST*
D10*
%TO.N,VCC*%
X102250000Y-73000000D03*
X116250000Y-80250000D03*
X114088296Y-81633450D03*
X116000000Y-72000000D03*
X105000000Y-81250000D03*
X103000000Y-72000000D03*
X116000000Y-72750000D03*
X115000000Y-72000000D03*
X107000000Y-81250000D03*
X102250000Y-72000000D03*
%TO.N,GND*%
X118750000Y-66500000D03*
X108500000Y-74500000D03*
X118750000Y-69250000D03*
X100000000Y-75750000D03*
X100000000Y-67250000D03*
X115254696Y-82015955D03*
X100000000Y-78750000D03*
X105750000Y-68500000D03*
X116250000Y-67250000D03*
X111750000Y-82000000D03*
X106500000Y-66000000D03*
X100000000Y-73000000D03*
X100000000Y-81750000D03*
X112378463Y-71946036D03*
X119000000Y-80750000D03*
X114000000Y-66250000D03*
X113750000Y-77000000D03*
X100000000Y-70000000D03*
X114750000Y-68500000D03*
X103500000Y-81750000D03*
X106000000Y-81750000D03*
X105250000Y-72250000D03*
X112500000Y-66000000D03*
X112500000Y-76000000D03*
X109500000Y-66000000D03*
X119000000Y-78000000D03*
X118750000Y-72250000D03*
X118750000Y-75250000D03*
X108250000Y-68500000D03*
X111000000Y-68500000D03*
X110000000Y-75000000D03*
X109250000Y-81750000D03*
%TO.N,C*%
X104000000Y-75750000D03*
X111500000Y-66250000D03*
X107000000Y-75750000D03*
X112500000Y-77250000D03*
X107500000Y-72250000D03*
%TO.N,Q*%
X110500000Y-72250000D03*
X111500000Y-77250000D03*
X108500000Y-66250000D03*
X104750000Y-78000000D03*
%TO.N,S*%
X114905000Y-77250000D03*
X111500000Y-72250000D03*
X107500000Y-66250000D03*
X103750000Y-78000000D03*
%TO.N,D*%
X111000000Y-76000000D03*
X108000000Y-75750000D03*
X108500000Y-72250000D03*
X105049265Y-75549265D03*
X110500000Y-66250000D03*
%TD*%
D11*
%TO.N,VCC*%
X114250000Y-80250000D02*
X116250000Y-80250000D01*
X114088296Y-80411704D02*
X114250000Y-80250000D01*
X114088296Y-81633450D02*
X114088296Y-80411704D01*
D12*
%TO.N,Q*%
X105000000Y-78000000D02*
X104750000Y-78000000D01*
X111500000Y-77250000D02*
X105750000Y-77250000D01*
X105750000Y-77250000D02*
X105000000Y-78000000D01*
D11*
%TO.N,VCC*%
X107000000Y-80250000D02*
X106750000Y-80000000D01*
X107000000Y-81250000D02*
X107000000Y-80250000D01*
X105000000Y-81250000D02*
X105000000Y-80000000D01*
X105000000Y-80000000D02*
X106750000Y-80000000D01*
D12*
%TO.N,C*%
X111850000Y-76600000D02*
X107850000Y-76600000D01*
X107500000Y-72250000D02*
X108900000Y-73650000D01*
X108900000Y-73650000D02*
X112850000Y-73650000D01*
X104500000Y-76250000D02*
X104000000Y-75750000D01*
X113800000Y-72700000D02*
X113800000Y-68550000D01*
X106500000Y-76250000D02*
X104500000Y-76250000D01*
X107850000Y-76600000D02*
X107000000Y-75750000D01*
X107000000Y-75750000D02*
X106500000Y-76250000D01*
X112500000Y-77250000D02*
X111850000Y-76600000D01*
X112850000Y-73650000D02*
X113800000Y-72700000D01*
X113800000Y-68550000D02*
X111500000Y-66250000D01*
%TO.N,Q*%
X113000000Y-72250000D02*
X113000000Y-69500000D01*
X110500000Y-72250000D02*
X111100000Y-72850000D01*
X111100000Y-72850000D02*
X112400000Y-72850000D01*
X113000000Y-69500000D02*
X110750000Y-67250000D01*
X112400000Y-72850000D02*
X113000000Y-72250000D01*
X109500000Y-67250000D02*
X108500000Y-66250000D01*
X110750000Y-67250000D02*
X109500000Y-67250000D01*
%TO.N,S*%
X111500000Y-72250000D02*
X111500000Y-70250000D01*
X111500000Y-70250000D02*
X107500000Y-66250000D01*
X110750000Y-71500000D02*
X111500000Y-72250000D01*
X107000000Y-71500000D02*
X110750000Y-71500000D01*
X103750000Y-78000000D02*
X103400000Y-77650000D01*
X103400000Y-75100000D02*
X107000000Y-71500000D01*
X103400000Y-77650000D02*
X103400000Y-75100000D01*
%TO.N,D*%
X107250000Y-75000000D02*
X105750000Y-75000000D01*
X113400000Y-69150000D02*
X110500000Y-66250000D01*
X108500000Y-72250000D02*
X109500000Y-73250000D01*
X108000000Y-75750000D02*
X107250000Y-75000000D01*
X109500000Y-73250000D02*
X112565686Y-73250000D01*
X111000000Y-76000000D02*
X110750000Y-75750000D01*
X110750000Y-75750000D02*
X108000000Y-75750000D01*
X112565686Y-73250000D02*
X113400000Y-72415686D01*
X105750000Y-75000000D02*
X105200735Y-75549265D01*
X105200735Y-75549265D02*
X105049265Y-75549265D01*
X113400000Y-72415686D02*
X113400000Y-69150000D01*
%TO.N,S*%
X104350000Y-78600000D02*
X103750000Y-78000000D01*
X113555000Y-78600000D02*
X104350000Y-78600000D01*
X114905000Y-77250000D02*
X113555000Y-78600000D01*
%TD*%
%TA.AperFunction,Conductor*%
%TO.N,VCC*%
G36*
X103693039Y-71269685D02*
G01*
X103738794Y-71322489D01*
X103750000Y-71374000D01*
X103750000Y-73849402D01*
X103730315Y-73916441D01*
X103713681Y-73937083D01*
X102919481Y-74731282D01*
X102919477Y-74731287D01*
X102877196Y-74804522D01*
X102840424Y-74868211D01*
X102840423Y-74868212D01*
X102815868Y-74959851D01*
X102799499Y-75020943D01*
X102799499Y-75020945D01*
X102799499Y-75189046D01*
X102799500Y-75189059D01*
X102799500Y-77563330D01*
X102799499Y-77563348D01*
X102799499Y-77729054D01*
X102799498Y-77729054D01*
X102840424Y-77881789D01*
X102840425Y-77881790D01*
X102863030Y-77920942D01*
X102863031Y-77920944D01*
X102919475Y-78018709D01*
X102924426Y-78025161D01*
X102923362Y-78025977D01*
X102952783Y-78079857D01*
X102954837Y-78092331D01*
X102964630Y-78179251D01*
X102993041Y-78260442D01*
X103000000Y-78301397D01*
X103000000Y-78500000D01*
X103500000Y-79000000D01*
X103849402Y-79000000D01*
X103916441Y-79019685D01*
X103937083Y-79036319D01*
X103981284Y-79080520D01*
X104068095Y-79130639D01*
X104068097Y-79130641D01*
X104106151Y-79152611D01*
X104118215Y-79159577D01*
X104270943Y-79200500D01*
X113468331Y-79200500D01*
X113468347Y-79200501D01*
X113475943Y-79200501D01*
X113634054Y-79200501D01*
X113634057Y-79200501D01*
X113786785Y-79159577D01*
X113836904Y-79130639D01*
X113923716Y-79080520D01*
X113967916Y-79036320D01*
X114029239Y-79002834D01*
X114055598Y-79000000D01*
X115250000Y-79000000D01*
X115500000Y-78750000D01*
X115500000Y-77838440D01*
X115519685Y-77771401D01*
X115530625Y-77757824D01*
X115530475Y-77757705D01*
X115534811Y-77752266D01*
X115534816Y-77752262D01*
X115630789Y-77599522D01*
X115690368Y-77429255D01*
X115710565Y-77250000D01*
X115704304Y-77194435D01*
X115690369Y-77070750D01*
X115690368Y-77070745D01*
X115630788Y-76900476D01*
X115534815Y-76747737D01*
X115407262Y-76620184D01*
X115254523Y-76524211D01*
X115084254Y-76464631D01*
X115084249Y-76464630D01*
X114905004Y-76444435D01*
X114904996Y-76444435D01*
X114725750Y-76464630D01*
X114725742Y-76464632D01*
X114664954Y-76485903D01*
X114595175Y-76489464D01*
X114534548Y-76454735D01*
X114502321Y-76392741D01*
X114500000Y-76368861D01*
X114500000Y-71624000D01*
X114519685Y-71556961D01*
X114572489Y-71511206D01*
X114624000Y-71500000D01*
X116376000Y-71500000D01*
X116443039Y-71519685D01*
X116488794Y-71572489D01*
X116500000Y-71624000D01*
X116500000Y-75500000D01*
X117213681Y-76213681D01*
X117247166Y-76275004D01*
X117250000Y-76301362D01*
X117250000Y-79948638D01*
X117230315Y-80015677D01*
X117213681Y-80036319D01*
X116536319Y-80713681D01*
X116474996Y-80747166D01*
X116448638Y-80750000D01*
X102551362Y-80750000D01*
X102484323Y-80730315D01*
X102463681Y-80713681D01*
X101036319Y-79286319D01*
X101002834Y-79224996D01*
X101000000Y-79198638D01*
X101000000Y-74551362D01*
X101019685Y-74484323D01*
X101036319Y-74463681D01*
X101500000Y-74000000D01*
X101500000Y-71374000D01*
X101519685Y-71306961D01*
X101572489Y-71261206D01*
X101624000Y-71250000D01*
X103626000Y-71250000D01*
X103693039Y-71269685D01*
G37*
%TD.AperFunction*%
%TD*%
%TA.AperFunction,Conductor*%
%TO.N,GND*%
G36*
X106925436Y-72174896D02*
G01*
X106947110Y-72227222D01*
X106946477Y-72236880D01*
X106944750Y-72249999D01*
X106963669Y-72393708D01*
X106965107Y-72397179D01*
X107019139Y-72527625D01*
X107107379Y-72642621D01*
X107222375Y-72730861D01*
X107356291Y-72786330D01*
X107500000Y-72805250D01*
X107516456Y-72803083D01*
X107571163Y-72817741D01*
X107578442Y-72824124D01*
X108684788Y-73930470D01*
X108764712Y-73976614D01*
X108764713Y-73976614D01*
X108764715Y-73976615D01*
X108809284Y-73988557D01*
X108853853Y-74000499D01*
X108853854Y-74000500D01*
X108853856Y-74000500D01*
X112896146Y-74000500D01*
X112896146Y-74000499D01*
X112985288Y-73976614D01*
X113065212Y-73930470D01*
X113868174Y-73127508D01*
X113920500Y-73105834D01*
X113972826Y-73127508D01*
X113994500Y-73179834D01*
X113994500Y-76368887D01*
X113996870Y-76417757D01*
X113999193Y-76441652D01*
X114006284Y-76490091D01*
X114053803Y-76625898D01*
X114086031Y-76687894D01*
X114144302Y-76769138D01*
X114169887Y-76804810D01*
X114237203Y-76857379D01*
X114283279Y-76893362D01*
X114283281Y-76893363D01*
X114283286Y-76893367D01*
X114333184Y-76921950D01*
X114343913Y-76928096D01*
X114358726Y-76933968D01*
X114399382Y-76973399D01*
X114400248Y-77030030D01*
X114399823Y-77031078D01*
X114368669Y-77106291D01*
X114349750Y-77250000D01*
X114349750Y-77250003D01*
X114351916Y-77266460D01*
X114337256Y-77321166D01*
X114330875Y-77328442D01*
X113431492Y-78227826D01*
X113379166Y-78249500D01*
X105424834Y-78249500D01*
X105372508Y-78227826D01*
X105350834Y-78175500D01*
X105372508Y-78123174D01*
X105873508Y-77622174D01*
X105925834Y-77600500D01*
X111038565Y-77600500D01*
X111090891Y-77622174D01*
X111097272Y-77629450D01*
X111107377Y-77642618D01*
X111107376Y-77642618D01*
X111107377Y-77642619D01*
X111107379Y-77642621D01*
X111222375Y-77730861D01*
X111356291Y-77786330D01*
X111500000Y-77805250D01*
X111643709Y-77786330D01*
X111777625Y-77730861D01*
X111892621Y-77642621D01*
X111941293Y-77579190D01*
X111990341Y-77550873D01*
X112045049Y-77565532D01*
X112058704Y-77579187D01*
X112107379Y-77642621D01*
X112222375Y-77730861D01*
X112356291Y-77786330D01*
X112500000Y-77805250D01*
X112643709Y-77786330D01*
X112777625Y-77730861D01*
X112892621Y-77642621D01*
X112980861Y-77527625D01*
X113036330Y-77393709D01*
X113055250Y-77250000D01*
X113036330Y-77106291D01*
X112980861Y-76972375D01*
X112892621Y-76857379D01*
X112777625Y-76769139D01*
X112777623Y-76769138D01*
X112643708Y-76713669D01*
X112516452Y-76696916D01*
X112500000Y-76694750D01*
X112499999Y-76694750D01*
X112499996Y-76694750D01*
X112483539Y-76696916D01*
X112428832Y-76682255D01*
X112421557Y-76675875D01*
X112065212Y-76319530D01*
X111985289Y-76273386D01*
X111985284Y-76273384D01*
X111896146Y-76249500D01*
X111896144Y-76249500D01*
X111603258Y-76249500D01*
X111550932Y-76227826D01*
X111529258Y-76175500D01*
X111534891Y-76147182D01*
X111536330Y-76143709D01*
X111555250Y-76000000D01*
X111536330Y-75856291D01*
X111480861Y-75722375D01*
X111392621Y-75607379D01*
X111277625Y-75519139D01*
X111277623Y-75519138D01*
X111143708Y-75463669D01*
X111000000Y-75444750D01*
X110999999Y-75444750D01*
X110961623Y-75449801D01*
X110914967Y-75440521D01*
X110885288Y-75423386D01*
X110885287Y-75423385D01*
X110885286Y-75423385D01*
X110882608Y-75422668D01*
X110879929Y-75421950D01*
X110796146Y-75399500D01*
X110796144Y-75399500D01*
X108461435Y-75399500D01*
X108409109Y-75377826D01*
X108402728Y-75370550D01*
X108398372Y-75364874D01*
X108392621Y-75357379D01*
X108277625Y-75269139D01*
X108277623Y-75269138D01*
X108143708Y-75213669D01*
X108016452Y-75196916D01*
X108000000Y-75194750D01*
X107999999Y-75194750D01*
X107999996Y-75194750D01*
X107983539Y-75196916D01*
X107928832Y-75182255D01*
X107921557Y-75175875D01*
X107465212Y-74719530D01*
X107385289Y-74673386D01*
X107385284Y-74673384D01*
X107296146Y-74649500D01*
X107296144Y-74649500D01*
X105703856Y-74649500D01*
X105703854Y-74649500D01*
X105614715Y-74673384D01*
X105614710Y-74673386D01*
X105534787Y-74719530D01*
X105261362Y-74992954D01*
X105209036Y-75014628D01*
X105197837Y-75013154D01*
X105197783Y-75013568D01*
X105049265Y-74994015D01*
X104905556Y-75012934D01*
X104771641Y-75068403D01*
X104656644Y-75156644D01*
X104568403Y-75271641D01*
X104532765Y-75357681D01*
X104492717Y-75397730D01*
X104436080Y-75397730D01*
X104405692Y-75374413D01*
X104392621Y-75357379D01*
X104277625Y-75269139D01*
X104277623Y-75269138D01*
X104143708Y-75213669D01*
X104016452Y-75196916D01*
X104000000Y-75194750D01*
X103999999Y-75194750D01*
X103986881Y-75196477D01*
X103932174Y-75181818D01*
X103903856Y-75132768D01*
X103918515Y-75078061D01*
X103924890Y-75070791D01*
X106820785Y-72174895D01*
X106873110Y-72153222D01*
X106925436Y-72174896D01*
G37*
%TD.AperFunction*%
%TA.AperFunction,Conductor*%
G36*
X110626492Y-67622174D02*
G01*
X112627826Y-69623508D01*
X112649500Y-69675834D01*
X112649500Y-72074166D01*
X112627826Y-72126492D01*
X112276492Y-72477826D01*
X112224166Y-72499500D01*
X112103258Y-72499500D01*
X112050932Y-72477826D01*
X112029258Y-72425500D01*
X112034891Y-72397182D01*
X112036330Y-72393709D01*
X112055250Y-72250000D01*
X112036330Y-72106291D01*
X111980861Y-71972375D01*
X111892621Y-71857379D01*
X111892619Y-71857377D01*
X111892618Y-71857376D01*
X111879450Y-71847272D01*
X111851133Y-71798222D01*
X111850500Y-71788565D01*
X111850500Y-70203854D01*
X111850499Y-70203853D01*
X111826615Y-70114715D01*
X111826613Y-70114710D01*
X111780471Y-70034791D01*
X111780470Y-70034790D01*
X111780469Y-70034788D01*
X111715212Y-69969531D01*
X111369189Y-69623508D01*
X109472508Y-67726826D01*
X109450834Y-67674500D01*
X109472508Y-67622174D01*
X109524834Y-67600500D01*
X109546144Y-67600500D01*
X110574166Y-67600500D01*
X110626492Y-67622174D01*
G37*
%TD.AperFunction*%
%TA.AperFunction,Conductor*%
G36*
X119504126Y-65500965D02*
G01*
X119514292Y-65502110D01*
X119602873Y-65512091D01*
X119619013Y-65515775D01*
X119708852Y-65547211D01*
X119723781Y-65554400D01*
X119804372Y-65605038D01*
X119817328Y-65615370D01*
X119884629Y-65682671D01*
X119894961Y-65695627D01*
X119945599Y-65776218D01*
X119952788Y-65791147D01*
X119984222Y-65880980D01*
X119987909Y-65897131D01*
X119999035Y-65995873D01*
X119999500Y-66004159D01*
X119999500Y-81995840D01*
X119999035Y-82004126D01*
X119987909Y-82102868D01*
X119984221Y-82119023D01*
X119952788Y-82208852D01*
X119945599Y-82223781D01*
X119894961Y-82304372D01*
X119884629Y-82317328D01*
X119817328Y-82384629D01*
X119804372Y-82394961D01*
X119723781Y-82445599D01*
X119708852Y-82452788D01*
X119635258Y-82478539D01*
X119619021Y-82484221D01*
X119602868Y-82487909D01*
X119504127Y-82499035D01*
X119495841Y-82499500D01*
X99504159Y-82499500D01*
X99495873Y-82499035D01*
X99397131Y-82487909D01*
X99380980Y-82484222D01*
X99333867Y-82467736D01*
X99291147Y-82452788D01*
X99276218Y-82445599D01*
X99195627Y-82394961D01*
X99182671Y-82384629D01*
X99115370Y-82317328D01*
X99105038Y-82304372D01*
X99054400Y-82223781D01*
X99047211Y-82208852D01*
X99015775Y-82119013D01*
X99012091Y-82102873D01*
X99000965Y-82004125D01*
X99000500Y-81995840D01*
X99000500Y-74551357D01*
X100494500Y-74551357D01*
X100494500Y-79198653D01*
X100497396Y-79252678D01*
X100500231Y-79279037D01*
X100500233Y-79279056D01*
X100508885Y-79332447D01*
X100559168Y-79467258D01*
X100559167Y-79467258D01*
X100592649Y-79528575D01*
X100592653Y-79528580D01*
X100678877Y-79643761D01*
X102106239Y-81071123D01*
X102106248Y-81071131D01*
X102106249Y-81071132D01*
X102146497Y-81107286D01*
X102146520Y-81107305D01*
X102167138Y-81123919D01*
X102167151Y-81123929D01*
X102202917Y-81149719D01*
X102211026Y-81155567D01*
X102341903Y-81215338D01*
X102341908Y-81215339D01*
X102341920Y-81215344D01*
X102408920Y-81235017D01*
X102408927Y-81235018D01*
X102408942Y-81235023D01*
X102408946Y-81235024D01*
X102551362Y-81255500D01*
X104380578Y-81255500D01*
X104432904Y-81277174D01*
X104453945Y-81319841D01*
X104463669Y-81393708D01*
X104503447Y-81489741D01*
X104519139Y-81527625D01*
X104607379Y-81642621D01*
X104722375Y-81730861D01*
X104856291Y-81786330D01*
X105000000Y-81805250D01*
X105143709Y-81786330D01*
X105277625Y-81730861D01*
X105392621Y-81642621D01*
X105480861Y-81527625D01*
X105536330Y-81393709D01*
X105546055Y-81319840D01*
X105574374Y-81270792D01*
X105619422Y-81255500D01*
X106380578Y-81255500D01*
X106432904Y-81277174D01*
X106453945Y-81319841D01*
X106463669Y-81393708D01*
X106503447Y-81489741D01*
X106519139Y-81527625D01*
X106607379Y-81642621D01*
X106722375Y-81730861D01*
X106856291Y-81786330D01*
X107000000Y-81805250D01*
X107143709Y-81786330D01*
X107277625Y-81730861D01*
X107392621Y-81642621D01*
X107480861Y-81527625D01*
X107536330Y-81393709D01*
X107546055Y-81319840D01*
X107574374Y-81270792D01*
X107619422Y-81255500D01*
X113538242Y-81255500D01*
X113590568Y-81277174D01*
X113612242Y-81329500D01*
X113606609Y-81357818D01*
X113551965Y-81489741D01*
X113533046Y-81633450D01*
X113551965Y-81777158D01*
X113607434Y-81911073D01*
X113607435Y-81911075D01*
X113695675Y-82026071D01*
X113810671Y-82114311D01*
X113944587Y-82169780D01*
X114088296Y-82188700D01*
X114232005Y-82169780D01*
X114365921Y-82114311D01*
X114480917Y-82026071D01*
X114569157Y-81911075D01*
X114624626Y-81777159D01*
X114643546Y-81633450D01*
X114624626Y-81489741D01*
X114584849Y-81393709D01*
X114569983Y-81357818D01*
X114569983Y-81301181D01*
X114610032Y-81261133D01*
X114638350Y-81255500D01*
X116448622Y-81255500D01*
X116448638Y-81255500D01*
X116502678Y-81252603D01*
X116529036Y-81249769D01*
X116529051Y-81249766D01*
X116529056Y-81249766D01*
X116560972Y-81244593D01*
X116582448Y-81241114D01*
X116651555Y-81215338D01*
X116717258Y-81190832D01*
X116778575Y-81157350D01*
X116778576Y-81157349D01*
X116778580Y-81157347D01*
X116893761Y-81071123D01*
X117571123Y-80393761D01*
X117607288Y-80353500D01*
X117623922Y-80332858D01*
X117655567Y-80288974D01*
X117715338Y-80158097D01*
X117715340Y-80158086D01*
X117715344Y-80158079D01*
X117735017Y-80091079D01*
X117735017Y-80091076D01*
X117735023Y-80091058D01*
X117735024Y-80091054D01*
X117755500Y-79948638D01*
X117755500Y-76301362D01*
X117752603Y-76247322D01*
X117749769Y-76220964D01*
X117746983Y-76203773D01*
X117741114Y-76167552D01*
X117690831Y-76032741D01*
X117690832Y-76032741D01*
X117657350Y-75971424D01*
X117603508Y-75899500D01*
X117571123Y-75856239D01*
X117027174Y-75312290D01*
X117005500Y-75259964D01*
X117005500Y-71623999D01*
X116993947Y-71516545D01*
X116993947Y-71516544D01*
X116982741Y-71465033D01*
X116965562Y-71413420D01*
X116948615Y-71362501D01*
X116948614Y-71362499D01*
X116948613Y-71362496D01*
X116893984Y-71277492D01*
X116870827Y-71241459D01*
X116825075Y-71188658D01*
X116825070Y-71188653D01*
X116716335Y-71094432D01*
X116622074Y-71051384D01*
X116585459Y-71034662D01*
X116585457Y-71034661D01*
X116585454Y-71034660D01*
X116585441Y-71034655D01*
X116518441Y-71014982D01*
X116518420Y-71014977D01*
X116518416Y-71014976D01*
X116518414Y-71014975D01*
X116518411Y-71014975D01*
X116376004Y-70994500D01*
X116376000Y-70994500D01*
X114624000Y-70994500D01*
X114623999Y-70994500D01*
X114516545Y-71006052D01*
X114465027Y-71017260D01*
X114465019Y-71017263D01*
X114362501Y-71051384D01*
X114362496Y-71051386D01*
X114362496Y-71051387D01*
X114320780Y-71078196D01*
X114264507Y-71114361D01*
X114208770Y-71124417D01*
X114162247Y-71092115D01*
X114150500Y-71052108D01*
X114150500Y-68503854D01*
X114150499Y-68503853D01*
X114126615Y-68414715D01*
X114126613Y-68414710D01*
X114080469Y-68334787D01*
X112074124Y-66328442D01*
X112052450Y-66276116D01*
X112053083Y-66266456D01*
X112055250Y-66250000D01*
X112036330Y-66106291D01*
X111980861Y-65972375D01*
X111892621Y-65857379D01*
X111777625Y-65769139D01*
X111777623Y-65769138D01*
X111643708Y-65713669D01*
X111500000Y-65694750D01*
X111356291Y-65713669D01*
X111222376Y-65769138D01*
X111107379Y-65857379D01*
X111058708Y-65920808D01*
X111009658Y-65949126D01*
X110954951Y-65934467D01*
X110941292Y-65920808D01*
X110892621Y-65857379D01*
X110777625Y-65769139D01*
X110777623Y-65769138D01*
X110643708Y-65713669D01*
X110500000Y-65694750D01*
X110356291Y-65713669D01*
X110222376Y-65769138D01*
X110107379Y-65857379D01*
X110019138Y-65972376D01*
X109963669Y-66106291D01*
X109944750Y-66250000D01*
X109963669Y-66393708D01*
X110019138Y-66527623D01*
X110019139Y-66527625D01*
X110107379Y-66642621D01*
X110222375Y-66730861D01*
X110277041Y-66753504D01*
X110285802Y-66757133D01*
X110325851Y-66797181D01*
X110325851Y-66853818D01*
X110285803Y-66893867D01*
X110257484Y-66899500D01*
X109675834Y-66899500D01*
X109623508Y-66877826D01*
X109074124Y-66328442D01*
X109052450Y-66276116D01*
X109053083Y-66266456D01*
X109055250Y-66250000D01*
X109036330Y-66106291D01*
X108980861Y-65972375D01*
X108892621Y-65857379D01*
X108777625Y-65769139D01*
X108777623Y-65769138D01*
X108643708Y-65713669D01*
X108500000Y-65694750D01*
X108356291Y-65713669D01*
X108222376Y-65769138D01*
X108107379Y-65857379D01*
X108058708Y-65920808D01*
X108009658Y-65949126D01*
X107954951Y-65934467D01*
X107941292Y-65920808D01*
X107892621Y-65857379D01*
X107777625Y-65769139D01*
X107777623Y-65769138D01*
X107643708Y-65713669D01*
X107500000Y-65694750D01*
X107356291Y-65713669D01*
X107222376Y-65769138D01*
X107107379Y-65857379D01*
X107019138Y-65972376D01*
X106963669Y-66106291D01*
X106944750Y-66250000D01*
X106963669Y-66393708D01*
X107019138Y-66527623D01*
X107019139Y-66527625D01*
X107107379Y-66642621D01*
X107222375Y-66730861D01*
X107356291Y-66786330D01*
X107500000Y-66805250D01*
X107516453Y-66803083D01*
X107571161Y-66817738D01*
X107578442Y-66824123D01*
X111127826Y-70373507D01*
X111149500Y-70425833D01*
X111149500Y-71225166D01*
X111127826Y-71277492D01*
X111075500Y-71299166D01*
X111023174Y-71277492D01*
X110965212Y-71219530D01*
X110885289Y-71173386D01*
X110885284Y-71173384D01*
X110796146Y-71149500D01*
X110796144Y-71149500D01*
X107046144Y-71149500D01*
X106953856Y-71149500D01*
X106953854Y-71149500D01*
X106864715Y-71173384D01*
X106864710Y-71173386D01*
X106784787Y-71219530D01*
X104381826Y-73622492D01*
X104329500Y-73644166D01*
X104277174Y-73622492D01*
X104255500Y-73570166D01*
X104255500Y-71373999D01*
X104243947Y-71266545D01*
X104243947Y-71266544D01*
X104232741Y-71215033D01*
X104210929Y-71149500D01*
X104198615Y-71112501D01*
X104198614Y-71112499D01*
X104198613Y-71112496D01*
X104135940Y-71014976D01*
X104120827Y-70991459D01*
X104075075Y-70938658D01*
X104075070Y-70938653D01*
X103966335Y-70844432D01*
X103872074Y-70801384D01*
X103835459Y-70784662D01*
X103835457Y-70784661D01*
X103835454Y-70784660D01*
X103835441Y-70784655D01*
X103768441Y-70764982D01*
X103768420Y-70764977D01*
X103768416Y-70764976D01*
X103768414Y-70764975D01*
X103768411Y-70764975D01*
X103626004Y-70744500D01*
X103626000Y-70744500D01*
X101624000Y-70744500D01*
X101623999Y-70744500D01*
X101516545Y-70756052D01*
X101465027Y-70767260D01*
X101465019Y-70767263D01*
X101362501Y-70801384D01*
X101362496Y-70801386D01*
X101362496Y-70801387D01*
X101341621Y-70814802D01*
X101241459Y-70879172D01*
X101188658Y-70924924D01*
X101188653Y-70924929D01*
X101094432Y-71033664D01*
X101034660Y-71164545D01*
X101034655Y-71164558D01*
X101014982Y-71231558D01*
X101014975Y-71231588D01*
X100994500Y-71373995D01*
X100994500Y-73759964D01*
X100972826Y-73812290D01*
X100678867Y-74106249D01*
X100642713Y-74146497D01*
X100642694Y-74146520D01*
X100626080Y-74167138D01*
X100626070Y-74167151D01*
X100594435Y-74211022D01*
X100534660Y-74341907D01*
X100534655Y-74341920D01*
X100514982Y-74408920D01*
X100514975Y-74408950D01*
X100494500Y-74551357D01*
X99000500Y-74551357D01*
X99000500Y-66004159D01*
X99000965Y-65995874D01*
X99001982Y-65986842D01*
X99012091Y-65897124D01*
X99015775Y-65880988D01*
X99047212Y-65791143D01*
X99054400Y-65776218D01*
X99058849Y-65769138D01*
X99105042Y-65695621D01*
X99115366Y-65682675D01*
X99182675Y-65615366D01*
X99195621Y-65605042D01*
X99276219Y-65554399D01*
X99291143Y-65547212D01*
X99380988Y-65515775D01*
X99397124Y-65512091D01*
X99486842Y-65501982D01*
X99495874Y-65500965D01*
X99504159Y-65500500D01*
X99565892Y-65500500D01*
X119434108Y-65500500D01*
X119495841Y-65500500D01*
X119504126Y-65500965D01*
G37*
%TD.AperFunction*%
%TD*%
M02*
