%TF.GenerationSoftware,KiCad,Pcbnew,8.0.2*%
%TF.CreationDate,2024-11-21T20:15:41+01:00*%
%TF.ProjectId,NTR-Subcard,4e54522d-5375-4626-9361-72642e6b6963,rev?*%
%TF.SameCoordinates,Original*%
%TF.FileFunction,Legend,Top*%
%TF.FilePolarity,Positive*%
%FSLAX46Y46*%
G04 Gerber Fmt 4.6, Leading zero omitted, Abs format (unit mm)*
G04 Created by KiCad (PCBNEW 8.0.2) date 2024-11-21 20:15:41*
%MOMM*%
%LPD*%
G01*
G04 APERTURE LIST*
%ADD10C,0.100000*%
%ADD11C,0.150000*%
%ADD12C,0.120000*%
G04 APERTURE END LIST*
D10*
X105850000Y-74750000D02*
X105850000Y-79250000D01*
X117732455Y-67205752D02*
X117732455Y-67872419D01*
X117494360Y-66824800D02*
X117256265Y-67539085D01*
X117256265Y-67539085D02*
X117875312Y-67539085D01*
X118446741Y-66872419D02*
X118541979Y-66872419D01*
X118541979Y-66872419D02*
X118637217Y-66920038D01*
X118637217Y-66920038D02*
X118684836Y-66967657D01*
X118684836Y-66967657D02*
X118732455Y-67062895D01*
X118732455Y-67062895D02*
X118780074Y-67253371D01*
X118780074Y-67253371D02*
X118780074Y-67491466D01*
X118780074Y-67491466D02*
X118732455Y-67681942D01*
X118732455Y-67681942D02*
X118684836Y-67777180D01*
X118684836Y-67777180D02*
X118637217Y-67824800D01*
X118637217Y-67824800D02*
X118541979Y-67872419D01*
X118541979Y-67872419D02*
X118446741Y-67872419D01*
X118446741Y-67872419D02*
X118351503Y-67824800D01*
X118351503Y-67824800D02*
X118303884Y-67777180D01*
X118303884Y-67777180D02*
X118256265Y-67681942D01*
X118256265Y-67681942D02*
X118208646Y-67491466D01*
X118208646Y-67491466D02*
X118208646Y-67253371D01*
X118208646Y-67253371D02*
X118256265Y-67062895D01*
X118256265Y-67062895D02*
X118303884Y-66967657D01*
X118303884Y-66967657D02*
X118351503Y-66920038D01*
X118351503Y-66920038D02*
X118446741Y-66872419D01*
X117827693Y-70872419D02*
X117256265Y-70872419D01*
X117541979Y-70872419D02*
X117541979Y-69872419D01*
X117541979Y-69872419D02*
X117446741Y-70015276D01*
X117446741Y-70015276D02*
X117351503Y-70110514D01*
X117351503Y-70110514D02*
X117256265Y-70158133D01*
X100256265Y-70467657D02*
X100303884Y-70420038D01*
X100303884Y-70420038D02*
X100399122Y-70372419D01*
X100399122Y-70372419D02*
X100637217Y-70372419D01*
X100637217Y-70372419D02*
X100732455Y-70420038D01*
X100732455Y-70420038D02*
X100780074Y-70467657D01*
X100780074Y-70467657D02*
X100827693Y-70562895D01*
X100827693Y-70562895D02*
X100827693Y-70658133D01*
X100827693Y-70658133D02*
X100780074Y-70800990D01*
X100780074Y-70800990D02*
X100208646Y-71372419D01*
X100208646Y-71372419D02*
X100827693Y-71372419D01*
X101446741Y-70372419D02*
X101541979Y-70372419D01*
X101541979Y-70372419D02*
X101637217Y-70420038D01*
X101637217Y-70420038D02*
X101684836Y-70467657D01*
X101684836Y-70467657D02*
X101732455Y-70562895D01*
X101732455Y-70562895D02*
X101780074Y-70753371D01*
X101780074Y-70753371D02*
X101780074Y-70991466D01*
X101780074Y-70991466D02*
X101732455Y-71181942D01*
X101732455Y-71181942D02*
X101684836Y-71277180D01*
X101684836Y-71277180D02*
X101637217Y-71324800D01*
X101637217Y-71324800D02*
X101541979Y-71372419D01*
X101541979Y-71372419D02*
X101446741Y-71372419D01*
X101446741Y-71372419D02*
X101351503Y-71324800D01*
X101351503Y-71324800D02*
X101303884Y-71277180D01*
X101303884Y-71277180D02*
X101256265Y-71181942D01*
X101256265Y-71181942D02*
X101208646Y-70991466D01*
X101208646Y-70991466D02*
X101208646Y-70753371D01*
X101208646Y-70753371D02*
X101256265Y-70562895D01*
X101256265Y-70562895D02*
X101303884Y-70467657D01*
X101303884Y-70467657D02*
X101351503Y-70420038D01*
X101351503Y-70420038D02*
X101446741Y-70372419D01*
X100256265Y-66467657D02*
X100303884Y-66420038D01*
X100303884Y-66420038D02*
X100399122Y-66372419D01*
X100399122Y-66372419D02*
X100637217Y-66372419D01*
X100637217Y-66372419D02*
X100732455Y-66420038D01*
X100732455Y-66420038D02*
X100780074Y-66467657D01*
X100780074Y-66467657D02*
X100827693Y-66562895D01*
X100827693Y-66562895D02*
X100827693Y-66658133D01*
X100827693Y-66658133D02*
X100780074Y-66800990D01*
X100780074Y-66800990D02*
X100208646Y-67372419D01*
X100208646Y-67372419D02*
X100827693Y-67372419D01*
X101780074Y-67372419D02*
X101208646Y-67372419D01*
X101494360Y-67372419D02*
X101494360Y-66372419D01*
X101494360Y-66372419D02*
X101399122Y-66515276D01*
X101399122Y-66515276D02*
X101303884Y-66610514D01*
X101303884Y-66610514D02*
X101208646Y-66658133D01*
D11*
X100309523Y-69359580D02*
X100261904Y-69407200D01*
X100261904Y-69407200D02*
X100119047Y-69454819D01*
X100119047Y-69454819D02*
X100023809Y-69454819D01*
X100023809Y-69454819D02*
X99880952Y-69407200D01*
X99880952Y-69407200D02*
X99785714Y-69311961D01*
X99785714Y-69311961D02*
X99738095Y-69216723D01*
X99738095Y-69216723D02*
X99690476Y-69026247D01*
X99690476Y-69026247D02*
X99690476Y-68883390D01*
X99690476Y-68883390D02*
X99738095Y-68692914D01*
X99738095Y-68692914D02*
X99785714Y-68597676D01*
X99785714Y-68597676D02*
X99880952Y-68502438D01*
X99880952Y-68502438D02*
X100023809Y-68454819D01*
X100023809Y-68454819D02*
X100119047Y-68454819D01*
X100119047Y-68454819D02*
X100261904Y-68502438D01*
X100261904Y-68502438D02*
X100309523Y-68550057D01*
X100738095Y-69454819D02*
X100738095Y-68454819D01*
X100738095Y-68454819D02*
X101309523Y-69454819D01*
X101309523Y-69454819D02*
X101309523Y-68454819D01*
X102309523Y-69454819D02*
X101738095Y-69454819D01*
X102023809Y-69454819D02*
X102023809Y-68454819D01*
X102023809Y-68454819D02*
X101928571Y-68597676D01*
X101928571Y-68597676D02*
X101833333Y-68692914D01*
X101833333Y-68692914D02*
X101738095Y-68740533D01*
X108738095Y-73454819D02*
X108738095Y-74264342D01*
X108738095Y-74264342D02*
X108785714Y-74359580D01*
X108785714Y-74359580D02*
X108833333Y-74407200D01*
X108833333Y-74407200D02*
X108928571Y-74454819D01*
X108928571Y-74454819D02*
X109119047Y-74454819D01*
X109119047Y-74454819D02*
X109214285Y-74407200D01*
X109214285Y-74407200D02*
X109261904Y-74359580D01*
X109261904Y-74359580D02*
X109309523Y-74264342D01*
X109309523Y-74264342D02*
X109309523Y-73454819D01*
X109738095Y-73550057D02*
X109785714Y-73502438D01*
X109785714Y-73502438D02*
X109880952Y-73454819D01*
X109880952Y-73454819D02*
X110119047Y-73454819D01*
X110119047Y-73454819D02*
X110214285Y-73502438D01*
X110214285Y-73502438D02*
X110261904Y-73550057D01*
X110261904Y-73550057D02*
X110309523Y-73645295D01*
X110309523Y-73645295D02*
X110309523Y-73740533D01*
X110309523Y-73740533D02*
X110261904Y-73883390D01*
X110261904Y-73883390D02*
X109690476Y-74454819D01*
X109690476Y-74454819D02*
X110309523Y-74454819D01*
X100738095Y-73954819D02*
X100738095Y-74764342D01*
X100738095Y-74764342D02*
X100785714Y-74859580D01*
X100785714Y-74859580D02*
X100833333Y-74907200D01*
X100833333Y-74907200D02*
X100928571Y-74954819D01*
X100928571Y-74954819D02*
X101119047Y-74954819D01*
X101119047Y-74954819D02*
X101214285Y-74907200D01*
X101214285Y-74907200D02*
X101261904Y-74859580D01*
X101261904Y-74859580D02*
X101309523Y-74764342D01*
X101309523Y-74764342D02*
X101309523Y-73954819D01*
X102309523Y-74954819D02*
X101738095Y-74954819D01*
X102023809Y-74954819D02*
X102023809Y-73954819D01*
X102023809Y-73954819D02*
X101928571Y-74097676D01*
X101928571Y-74097676D02*
X101833333Y-74192914D01*
X101833333Y-74192914D02*
X101738095Y-74240533D01*
X117454819Y-81166666D02*
X116978628Y-81499999D01*
X117454819Y-81738094D02*
X116454819Y-81738094D01*
X116454819Y-81738094D02*
X116454819Y-81357142D01*
X116454819Y-81357142D02*
X116502438Y-81261904D01*
X116502438Y-81261904D02*
X116550057Y-81214285D01*
X116550057Y-81214285D02*
X116645295Y-81166666D01*
X116645295Y-81166666D02*
X116788152Y-81166666D01*
X116788152Y-81166666D02*
X116883390Y-81214285D01*
X116883390Y-81214285D02*
X116931009Y-81261904D01*
X116931009Y-81261904D02*
X116978628Y-81357142D01*
X116978628Y-81357142D02*
X116978628Y-81738094D01*
X117454819Y-80214285D02*
X117454819Y-80785713D01*
X117454819Y-80499999D02*
X116454819Y-80499999D01*
X116454819Y-80499999D02*
X116597676Y-80595237D01*
X116597676Y-80595237D02*
X116692914Y-80690475D01*
X116692914Y-80690475D02*
X116740533Y-80785713D01*
X117359580Y-72416666D02*
X117407200Y-72464285D01*
X117407200Y-72464285D02*
X117454819Y-72607142D01*
X117454819Y-72607142D02*
X117454819Y-72702380D01*
X117454819Y-72702380D02*
X117407200Y-72845237D01*
X117407200Y-72845237D02*
X117311961Y-72940475D01*
X117311961Y-72940475D02*
X117216723Y-72988094D01*
X117216723Y-72988094D02*
X117026247Y-73035713D01*
X117026247Y-73035713D02*
X116883390Y-73035713D01*
X116883390Y-73035713D02*
X116692914Y-72988094D01*
X116692914Y-72988094D02*
X116597676Y-72940475D01*
X116597676Y-72940475D02*
X116502438Y-72845237D01*
X116502438Y-72845237D02*
X116454819Y-72702380D01*
X116454819Y-72702380D02*
X116454819Y-72607142D01*
X116454819Y-72607142D02*
X116502438Y-72464285D01*
X116502438Y-72464285D02*
X116550057Y-72416666D01*
X116550057Y-72035713D02*
X116502438Y-71988094D01*
X116502438Y-71988094D02*
X116454819Y-71892856D01*
X116454819Y-71892856D02*
X116454819Y-71654761D01*
X116454819Y-71654761D02*
X116502438Y-71559523D01*
X116502438Y-71559523D02*
X116550057Y-71511904D01*
X116550057Y-71511904D02*
X116645295Y-71464285D01*
X116645295Y-71464285D02*
X116740533Y-71464285D01*
X116740533Y-71464285D02*
X116883390Y-71511904D01*
X116883390Y-71511904D02*
X117454819Y-72083332D01*
X117454819Y-72083332D02*
X117454819Y-71464285D01*
X100929580Y-77166666D02*
X100977200Y-77214285D01*
X100977200Y-77214285D02*
X101024819Y-77357142D01*
X101024819Y-77357142D02*
X101024819Y-77452380D01*
X101024819Y-77452380D02*
X100977200Y-77595237D01*
X100977200Y-77595237D02*
X100881961Y-77690475D01*
X100881961Y-77690475D02*
X100786723Y-77738094D01*
X100786723Y-77738094D02*
X100596247Y-77785713D01*
X100596247Y-77785713D02*
X100453390Y-77785713D01*
X100453390Y-77785713D02*
X100262914Y-77738094D01*
X100262914Y-77738094D02*
X100167676Y-77690475D01*
X100167676Y-77690475D02*
X100072438Y-77595237D01*
X100072438Y-77595237D02*
X100024819Y-77452380D01*
X100024819Y-77452380D02*
X100024819Y-77357142D01*
X100024819Y-77357142D02*
X100072438Y-77214285D01*
X100072438Y-77214285D02*
X100120057Y-77166666D01*
X101024819Y-76214285D02*
X101024819Y-76785713D01*
X101024819Y-76499999D02*
X100024819Y-76499999D01*
X100024819Y-76499999D02*
X100167676Y-76595237D01*
X100167676Y-76595237D02*
X100262914Y-76690475D01*
X100262914Y-76690475D02*
X100310533Y-76785713D01*
D12*
%TO.C,CN1*%
X116510000Y-70717262D02*
X115734683Y-71260000D01*
X116510000Y-66740000D02*
X116510000Y-70717262D01*
X115734683Y-71260000D02*
X115190000Y-71260000D01*
X115190000Y-71260000D02*
X115190000Y-70660000D01*
X115190000Y-70660000D02*
X114660000Y-70660000D01*
X115190000Y-67340000D02*
X115190000Y-66740000D01*
X115190000Y-66740000D02*
X116510000Y-66740000D01*
X114660000Y-67340000D02*
X115190000Y-67340000D01*
X104340000Y-70660000D02*
X104340000Y-71250000D01*
X104340000Y-67340000D02*
X103810000Y-67340000D01*
X103810000Y-71260000D02*
X103810000Y-71260000D01*
X103810000Y-71260000D02*
X103810000Y-70660000D01*
X103810000Y-70660000D02*
X104340000Y-70660000D01*
X103810000Y-67340000D02*
X103810000Y-66740000D01*
X103810000Y-66740000D02*
X102490000Y-66740000D01*
X102490000Y-71260000D02*
X103810000Y-71260000D01*
X102490000Y-66740000D02*
X102490000Y-71260000D01*
%TO.C,U2*%
X110535000Y-79700000D02*
X110205000Y-79940000D01*
X110205000Y-79460000D01*
X110535000Y-79700000D01*
G36*
X110535000Y-79700000D02*
G01*
X110205000Y-79940000D01*
X110205000Y-79460000D01*
X110535000Y-79700000D01*
G37*
X115560000Y-77000000D02*
X115560000Y-78950000D01*
X115560000Y-77000000D02*
X115560000Y-75050000D01*
X110440000Y-77000000D02*
X110440000Y-78950000D01*
X110440000Y-77000000D02*
X110440000Y-75050000D01*
%TO.C,U1*%
X102890000Y-77000000D02*
X102890000Y-74800000D01*
X102890000Y-77000000D02*
X102890000Y-79200000D01*
X108110000Y-77000000D02*
X108110000Y-74800000D01*
X108110000Y-77000000D02*
X108110000Y-79200000D01*
X103090000Y-79900000D02*
X102760000Y-80140000D01*
X102760000Y-79660000D01*
X103090000Y-79900000D01*
G36*
X103090000Y-79900000D02*
G01*
X102760000Y-80140000D01*
X102760000Y-79660000D01*
X103090000Y-79900000D01*
G37*
%TO.C,R1*%
X117522500Y-78754724D02*
X117522500Y-78245276D01*
X116477500Y-78754724D02*
X116477500Y-78245276D01*
%TO.C,C2*%
X117510000Y-74896267D02*
X117510000Y-74603733D01*
X116490000Y-74896267D02*
X116490000Y-74603733D01*
%TO.C,C1*%
X102510000Y-77146267D02*
X102510000Y-76853733D01*
X101490000Y-77146267D02*
X101490000Y-76853733D01*
%TD*%
M02*
