%TF.GenerationSoftware,KiCad,Pcbnew,8.0.2*%
%TF.CreationDate,2024-11-21T20:15:38+01:00*%
%TF.ProjectId,NTR-Subcard,4e54522d-5375-4626-9361-72642e6b6963,rev?*%
%TF.SameCoordinates,Original*%
%TF.FileFunction,Drillmap*%
%TF.FilePolarity,Positive*%
%FSLAX45Y45*%
G04 Gerber Fmt 4.5, Leading zero omitted, Abs format (unit mm)*
G04 Created by KiCad (PCBNEW 8.0.2) date 2024-11-21 20:15:38*
%MOMM*%
%LPD*%
G01*
G04 APERTURE LIST*
%ADD10C,0.050000*%
%ADD11C,0.200000*%
G04 APERTURE END LIST*
D10*
X12050000Y-6600000D02*
X12050000Y-8200000D01*
X9850000Y-8200000D02*
X9850000Y-6600000D01*
X9950000Y-6500000D02*
X11950000Y-6500000D01*
X11950000Y-8300000D02*
X9950000Y-8300000D01*
X11950000Y-6500000D02*
G75*
G02*
X12050000Y-6600000I0J-100000D01*
G01*
X9850000Y-6600000D02*
G75*
G02*
X9950000Y-6500000I100000J0D01*
G01*
X12050000Y-8200000D02*
G75*
G02*
X11950000Y-8300000I-100000J0D01*
G01*
X9950000Y-8300000D02*
G75*
G02*
X9850000Y-8200000I0J100000D01*
G01*
D11*
X10108277Y-8613984D02*
X10108277Y-8413984D01*
X10108277Y-8413984D02*
X10155896Y-8413984D01*
X10155896Y-8413984D02*
X10184467Y-8423508D01*
X10184467Y-8423508D02*
X10203515Y-8442555D01*
X10203515Y-8442555D02*
X10213039Y-8461603D01*
X10213039Y-8461603D02*
X10222563Y-8499698D01*
X10222563Y-8499698D02*
X10222563Y-8528270D01*
X10222563Y-8528270D02*
X10213039Y-8566365D01*
X10213039Y-8566365D02*
X10203515Y-8585412D01*
X10203515Y-8585412D02*
X10184467Y-8604460D01*
X10184467Y-8604460D02*
X10155896Y-8613984D01*
X10155896Y-8613984D02*
X10108277Y-8613984D01*
X10308277Y-8613984D02*
X10308277Y-8480650D01*
X10308277Y-8518746D02*
X10317801Y-8499698D01*
X10317801Y-8499698D02*
X10327324Y-8490174D01*
X10327324Y-8490174D02*
X10346372Y-8480650D01*
X10346372Y-8480650D02*
X10365420Y-8480650D01*
X10432086Y-8613984D02*
X10432086Y-8480650D01*
X10432086Y-8413984D02*
X10422563Y-8423508D01*
X10422563Y-8423508D02*
X10432086Y-8433031D01*
X10432086Y-8433031D02*
X10441610Y-8423508D01*
X10441610Y-8423508D02*
X10432086Y-8413984D01*
X10432086Y-8413984D02*
X10432086Y-8433031D01*
X10555896Y-8613984D02*
X10536848Y-8604460D01*
X10536848Y-8604460D02*
X10527324Y-8585412D01*
X10527324Y-8585412D02*
X10527324Y-8413984D01*
X10660658Y-8613984D02*
X10641610Y-8604460D01*
X10641610Y-8604460D02*
X10632086Y-8585412D01*
X10632086Y-8585412D02*
X10632086Y-8413984D01*
X10889229Y-8613984D02*
X10889229Y-8413984D01*
X10889229Y-8413984D02*
X10955896Y-8556841D01*
X10955896Y-8556841D02*
X11022563Y-8413984D01*
X11022563Y-8413984D02*
X11022563Y-8613984D01*
X11203515Y-8613984D02*
X11203515Y-8509222D01*
X11203515Y-8509222D02*
X11193991Y-8490174D01*
X11193991Y-8490174D02*
X11174944Y-8480650D01*
X11174944Y-8480650D02*
X11136848Y-8480650D01*
X11136848Y-8480650D02*
X11117801Y-8490174D01*
X11203515Y-8604460D02*
X11184467Y-8613984D01*
X11184467Y-8613984D02*
X11136848Y-8613984D01*
X11136848Y-8613984D02*
X11117801Y-8604460D01*
X11117801Y-8604460D02*
X11108277Y-8585412D01*
X11108277Y-8585412D02*
X11108277Y-8566365D01*
X11108277Y-8566365D02*
X11117801Y-8547317D01*
X11117801Y-8547317D02*
X11136848Y-8537793D01*
X11136848Y-8537793D02*
X11184467Y-8537793D01*
X11184467Y-8537793D02*
X11203515Y-8528270D01*
X11298753Y-8480650D02*
X11298753Y-8680650D01*
X11298753Y-8490174D02*
X11317801Y-8480650D01*
X11317801Y-8480650D02*
X11355896Y-8480650D01*
X11355896Y-8480650D02*
X11374943Y-8490174D01*
X11374943Y-8490174D02*
X11384467Y-8499698D01*
X11384467Y-8499698D02*
X11393991Y-8518746D01*
X11393991Y-8518746D02*
X11393991Y-8575889D01*
X11393991Y-8575889D02*
X11384467Y-8594936D01*
X11384467Y-8594936D02*
X11374943Y-8604460D01*
X11374943Y-8604460D02*
X11355896Y-8613984D01*
X11355896Y-8613984D02*
X11317801Y-8613984D01*
X11317801Y-8613984D02*
X11298753Y-8604460D01*
X11479705Y-8594936D02*
X11489229Y-8604460D01*
X11489229Y-8604460D02*
X11479705Y-8613984D01*
X11479705Y-8613984D02*
X11470182Y-8604460D01*
X11470182Y-8604460D02*
X11479705Y-8594936D01*
X11479705Y-8594936D02*
X11479705Y-8613984D01*
X11479705Y-8490174D02*
X11489229Y-8499698D01*
X11489229Y-8499698D02*
X11479705Y-8509222D01*
X11479705Y-8509222D02*
X11470182Y-8499698D01*
X11470182Y-8499698D02*
X11479705Y-8490174D01*
X11479705Y-8490174D02*
X11479705Y-8509222D01*
M02*
